Betamatic-Bold.ufo
<glyph name="exclam" format="1">
  <advance width="458"/>
  <unicode hex="0021"/>
  <outline>
    <contour>
      <point x="223" y="412" type="line"/>
      <point x="182.2" y="415.709" type="line"/>
      <point x="176.2" y="492.709"/>
      <point x="110.2" y="1536.61"/>
      <point x="109" y="1626.71" type="curve"/>
      <point x="273" y="1623" type="line"/>
      <point x="398.2" y="1623.71" type="line"/>
      <point x="389" y="1522" type="line"/>
      <point x="389" y="1485.71"/>
      <point x="268.875" y="469.748"/>
      <point x="266.2" y="409.709" type="curve"/>
    </contour>
    <contour>
      <point x="370" y="26" type="curve" smooth="yes"/>
      <point x="370" y="-101.491"/>
      <point x="264.134" y="-134.1"/>
      <point x="196.832" y="-134.1" type="curve" smooth="yes"/>
      <point x="144.176" y="-134.1"/>
      <point x="48" y="-94.1425"/>
      <point x="48" y="33" type="curve" smooth="yes"/>
      <point x="48" y="113.213"/>
      <point x="124.251" y="176"/>
      <point x="210" y="176" type="curve" smooth="yes"/>
      <point x="307.648" y="176"/>
      <point x="370" y="104.237"/>
    </contour>
  </outline>
</glyph>
<glyph name="quotedbl" format="1">
  <advance width="647"/>
  <unicode hex="0022"/>
  <outline>
    <contour>
      <point x="100.3" y="1621.1" type="line"/>
      <point x="301.3" y="1621.1" type="line"/>
      <point x="301.3" y="1465.1" type="line"/>
      <point x="229.3" y="1138.1" type="line"/>
      <point x="165" y="1138.1" type="line"/>
    </contour>
    <contour>
      <point x="397.3" y="1615.1" type="line"/>
      <point x="583.3" y="1615.1" type="line"/>
      <point x="523.301" y="1144.1" type="line"/>
      <point x="433" y="1144.1" type="line"/>
    </contour>
  </outline>
</glyph>
<glyph name="numbersign" format="1">
  <advance width="1374"/>
  <unicode hex="0023"/>
  <outline>
    <contour>
      <point x="546.275" y="735.999" type="line"/>
      <point x="830.937" y="735.999" type="line"/>
      <point x="863.604" y="905.366" type="line"/>
      <point x="572.338" y="905.366" type="line"/>
    </contour>
    <contour>
      <point x="1013" y="520.9" type="line"/>
      <point x="854" y="-124.1" type="line"/>
      <point x="674.709" y="-96.1406" type="line"/>
      <point x="791.791" y="532.067" type="line"/>
      <point x="526.244" y="532.067" type="line"/>
      <point x="386" y="-55.0996" type="line"/>
      <point x="185" y="-40.0996" type="line"/>
      <point x="295.401" y="520.315" type="line"/>
      <point x="101" y="520.315" type="line"/>
      <point x="101" y="637" type="line"/>
      <point x="128" y="736.9" type="line"/>
      <point x="331.574" y="736.9" type="line"/>
      <point x="356.386" y="894.002" type="line"/>
      <point x="122" y="894.002" type="line"/>
      <point x="169.6" y="1098" type="line"/>
      <point x="341.6" y="1098" type="line"/>
      <point x="383.831" y="1249.56"/>
      <point x="406.79" y="1418.55"/>
      <point x="454.688" y="1576.98" type="curve"/>
      <point x="454.688" y="1624.9" type="line"/>
      <point x="709.303" y="1624.9" type="line"/>
      <point x="617.173" y="1105.59" type="line"/>
      <point x="926" y="1105.59" type="line"/>
      <point x="1049" y="1627.9" type="line"/>
      <point x="1220" y="1594.9" type="line"/>
      <point x="1129.89" y="1107" type="line"/>
      <point x="1285.19" y="1103.9" type="line"/>
      <point x="1241" y="901.9" type="line"/>
      <point x="1090.18" y="901.9" type="line"/>
      <point x="1058" y="749.177" type="line"/>
      <point x="1235" y="742.9" type="line"/>
      <point x="1206.6" y="637" type="line"/>
      <point x="1187" y="526.9" type="line"/>
    </contour>
  </outline>
</glyph>
<glyph name="dollar" format="1">
  <advance width="958"/>
  <unicode hex="0024"/>
  <outline>
    <contour>
      <point x="558.495" y="1353.32" type="curve"/>
      <point x="556.427" y="862.375" type="line"/>
      <point x="742.791" y="732.502"/>
      <point x="973.24" y="594.341"/>
      <point x="973.24" y="356.505" type="curve" smooth="yes"/>
      <point x="973.24" y="213.846"/>
      <point x="863.565" y="19.4797"/>
      <point x="555.934" y="-31.8261" type="curve"/>
      <point x="558.2" y="-231.6" type="line"/>
      <point x="516.107" y="-236.831"/>
      <point x="475.334" y="-243.382"/>
      <point x="434.124" y="-249.497" type="curve"/>
      <point x="429.375" y="-43.6916" type="line"/>
      <point x="409.261" y="-44.5556"/>
      <point x="388.557" y="-45"/>
      <point x="367.251" y="-45" type="curve" smooth="yes"/>
      <point x="280.421" y="-45"/>
      <point x="172.489" y="-16.1276"/>
      <point x="90" y="60.3877" type="curve"/>
      <point x="154.211" y="242.318" type="line"/>
      <point x="222.057" y="191.683"/>
      <point x="286.858" y="150.802"/>
      <point x="383.164" y="150.802" type="curve" smooth="yes"/>
      <point x="396.426" y="150.802"/>
      <point x="410.285" y="151.577"/>
      <point x="424.832" y="153.209" type="curve"/>
      <point x="423.924" y="192.569" type="line"/>
      <point x="427.025" y="701.803" type="line"/>
      <point x="226.49" y="822.633"/>
      <point x="11.2402" y="950.59"/>
      <point x="11.2402" y="1105.88" type="curve" smooth="yes"/>
      <point x="11.2402" y="1307.75"/>
      <point x="124.719" y="1516.15"/>
      <point x="432.524" y="1542.36" type="curve"/>
      <point x="436.2" y="1719.4" type="line"/>
      <point x="530" y="1719" type="line"/>
      <point x="560.2" y="1711.4" type="line"/>
      <point x="559.311" y="1543.59" type="line"/>
      <point x="657.371" y="1538.2"/>
      <point x="727.624" y="1518.32"/>
      <point x="818.477" y="1479.23" type="curve" smooth="yes"/>
      <point x="854.886" y="1463.56" type="line"/>
      <point x="816.84" y="1277.7" type="line"/>
      <point x="763.411" y="1291.84" type="line" smooth="yes"/>
      <point x="725.131" y="1301.97"/>
      <point x="645.943" y="1342.65"/>
    </contour>
    <contour>
      <point x="555.417" y="646.47" type="curve"/>
      <point x="553.575" y="167.065" type="line"/>
      <point x="679.74" y="167.065"/>
      <point x="752.315" y="265.061"/>
      <point x="752.315" y="375.795" type="curve" smooth="yes"/>
      <point x="752.315" y="477.134"/>
      <point x="691.533" y="589.14"/>
    </contour>
    <contour>
      <point x="428.504" y="944.635" type="curve"/>
      <point x="430.98" y="1351.26" type="line"/>
      <point x="351.935" y="1339.92"/>
      <point x="288.15" y="1301.56"/>
      <point x="288.15" y="1174.39" type="curve" smooth="yes"/>
      <point x="288.15" y="1059.49"/>
      <point x="334.522" y="1012.68"/>
    </contour>
  </outline>
</glyph>
<glyph name="percent" format="1">
  <advance width="1839"/>
  <unicode hex="0025"/>
  <outline>
    <contour>
      <point x="1324.18" y="682" type="curve" smooth="yes"/>
      <point x="1310.08" y="682" type="line"/>
      <point x="1218.51" y="669.094"/>
      <point x="1194.8" y="492.854"/>
      <point x="1194.8" y="389" type="curve" smooth="yes"/>
      <point x="1194.8" y="366.577" type="line"/>
      <point x="1198.74" y="329.056"/>
      <point x="1274.36" y="176.253"/>
      <point x="1304.01" y="167" type="curve"/>
      <point x="1516.21" y="167.605"/>
      <point x="1518.03" y="303.27"/>
      <point x="1518.03" y="386" type="curve" smooth="yes"/>
      <point x="1518.03" y="434" type="line" smooth="yes"/>
      <point x="1518.03" y="550.229"/>
      <point x="1504.93" y="682"/>
    </contour>
    <contour>
      <point x="512.81" y="1093" type="curve" smooth="yes"/>
      <point x="512.81" y="1195.04"/>
      <point x="494.372" y="1384.61"/>
      <point x="401.833" y="1397.98" type="curve"/>
      <point x="370.715" y="1351.45"/>
      <point x="334.026" y="1187.3"/>
      <point x="334.026" y="1166" type="curve" smooth="yes"/>
      <point x="334.026" y="1073.41"/>
      <point x="370.828" y="852"/>
      <point x="409.743" y="852" type="curve" smooth="yes"/>
      <point x="491.853" y="852"/>
      <point x="512.81" y="998.225"/>
    </contour>
    <contour>
      <point x="648.236" y="720.771" type="curve"/>
      <point x="596.168" y="677.994"/>
      <point x="520.417" y="650"/>
      <point x="410.84" y="650" type="curve" smooth="yes"/>
      <point x="409.743" y="650" type="line" smooth="yes"/>
      <point x="89.9199" y="650"/>
      <point x="99.0264" y="1022.59"/>
      <point x="99.0264" y="1136.55" type="curve" smooth="yes"/>
      <point x="99.0264" y="1214.09"/>
      <point x="130.361" y="1554"/>
      <point x="372.464" y="1554" type="curve" smooth="yes"/>
      <point x="718.508" y="1554"/>
      <point x="754.029" y="1268.79"/>
      <point x="754.029" y="1129.6" type="curve" smooth="yes"/>
      <point x="754.029" y="1104.58"/>
      <point x="756.861" y="1070.94"/>
      <point x="757.974" y="1033.35" type="curve"/>
      <point x="857.562" y="1284.88"/>
      <point x="966.299" y="1498.71"/>
      <point x="1054.55" y="1531.75" type="curve" smooth="yes"/>
      <point x="1064.5" y="1535.47"/>
      <point x="1076.41" y="1538.21"/>
      <point x="1089.54" y="1538.21" type="curve" smooth="yes"/>
      <point x="1130.08" y="1538.21"/>
      <point x="1237.57" y="1524.66"/>
      <point x="1237.57" y="1445.35" type="curve" smooth="yes"/>
      <point x="1237.57" y="1397.98" type="line"/>
      <point x="1231.22" y="1397.98" type="line"/>
      <point x="1212.14" y="1291.76"/>
      <point x="1132.28" y="1029.81"/>
      <point x="1031.73" y="761.456" type="curve"/>
      <point x="1089.4" y="835.724"/>
      <point x="1183.84" y="890"/>
      <point x="1338.44" y="890" type="curve" smooth="yes"/>
      <point x="1730.1" y="890"/>
      <point x="1750.03" y="602.928"/>
      <point x="1750.03" y="430" type="curve" smooth="yes"/>
      <point x="1750.03" y="379" type="line" smooth="yes"/>
      <point x="1750.03" y="219.454"/>
      <point x="1688.42" y="-48"/>
      <point x="1293.48" y="-48" type="curve" smooth="yes"/>
      <point x="1291.29" y="-48" type="line" smooth="yes"/>
      <point x="985.159" y="-48"/>
      <point x="941.522" y="273.127"/>
      <point x="941.522" y="371" type="curve" smooth="yes"/>
      <point x="941.522" y="410" type="line" smooth="yes"/>
      <point x="941.522" y="443.888"/>
      <point x="942.199" y="488.443"/>
      <point x="948.261" y="536.761" type="curve"/>
      <point x="826.588" y="226.352"/>
      <point x="692.292" y="-40"/>
      <point x="601.622" y="-40" type="curve" smooth="yes"/>
      <point x="529.829" y="-40"/>
      <point x="471.145" y="15.9121"/>
      <point x="471.145" y="66" type="curve" smooth="yes"/>
      <point x="471.145" y="96.6729"/>
      <point x="545.737" y="395.861"/>
    </contour>
  </outline>
</glyph>
<glyph name="ampersand" format="1">
  <advance width="1626"/>
  <unicode hex="0026"/>
  <outline>
    <contour>
      <point x="405.99" y="985.076" type="move" smooth="yes"/>
      <point x="394.116" y="1019" type="line"/>
      <point x="620.519" y="1019" type="line"/>
      <point x="527.868" y="949.805" type="line" smooth="yes"/>
    </contour>
    <contour>
      <point x="443.983" y="883.098" type="curve"/>
      <point x="334.193" y="783.097"/>
      <point x="287" y="673.588"/>
      <point x="287" y="569" type="curve" smooth="yes"/>
      <point x="287" y="477.951"/>
      <point x="369.869" y="333"/>
      <point x="674" y="333" type="curve" smooth="yes"/>
      <point x="721.44" y="333"/>
      <point x="806.797" y="342.54"/>
      <point x="873.569" y="355.955" type="curve"/>
      <point x="661.684" y="512.915"/>
      <point x="526.256" y="686.839"/>
    </contour>
    <contour>
      <point x="1378.8" y="663.641" type="curve"/>
      <point x="1380.35" y="655.521"/>
      <point x="1381" y="648.255"/>
      <point x="1381" y="644" type="curve" smooth="yes"/>
      <point x="1381" y="585.311"/>
      <point x="1333.65" y="458.793"/>
      <point x="1290.17" y="371.214" type="curve"/>
      <point x="1321.25" y="353.955"/>
      <point x="1356.44" y="343"/>
      <point x="1392" y="343" type="curve" smooth="yes"/>
      <point x="1422.28" y="343"/>
      <point x="1457.28" y="349"/>
      <point x="1499" y="349" type="curve" smooth="yes"/>
      <point x="1513.53" y="349" type="line"/>
      <point x="1600" y="295.387" type="line"/>
      <point x="1600" y="267" type="line" smooth="yes"/>
      <point x="1600" y="147.624"/>
      <point x="1462.9" y="148"/>
      <point x="1414" y="148" type="curve" smooth="yes"/>
      <point x="1310.12" y="148"/>
      <point x="1220.84" y="182.616"/>
      <point x="1118.4" y="221.979" type="curve"/>
      <point x="967.539" y="174.778"/>
      <point x="819.33" y="147"/>
      <point x="634" y="147" type="curve" smooth="yes"/>
      <point x="269.433" y="147"/>
      <point x="60" y="341.413"/>
      <point x="60" y="534" type="curve" smooth="yes"/>
      <point x="60" y="790.664"/>
      <point x="163.521" y="940.503"/>
      <point x="368.071" y="1145.27" type="curve"/>
      <point x="362.862" y="1224.42"/>
      <point x="338" y="1310.29"/>
      <point x="338" y="1406" type="curve" smooth="yes"/>
      <point x="338" y="1576" type="line" smooth="yes"/>
      <point x="338" y="1655.01"/>
      <point x="398.153" y="1779"/>
      <point x="579" y="1779" type="curve" smooth="yes"/>
      <point x="709.366" y="1779"/>
      <point x="964.708" y="1755.93"/>
      <point x="1002.22" y="1626.49" type="curve" smooth="yes"/>
      <point x="1004.66" y="1618.07"/>
      <point x="1006" y="1609.08"/>
      <point x="1006" y="1600" type="curve" smooth="yes"/>
      <point x="1006" y="1552.61"/>
      <point x="993" y="1517.26"/>
      <point x="993" y="1496" type="curve" smooth="yes"/>
      <point x="993" y="1490.02"/>
      <point x="993.137" y="1485.18"/>
      <point x="993.366" y="1482.76" type="curve"/>
      <point x="1024.7" y="1451.43" type="line"/>
      <point x="989.489" y="1415.37" type="line" smooth="yes"/>
      <point x="904.031" y="1327.85"/>
      <point x="685.878" y="1130.71"/>
      <point x="676.007" y="1084.32" type="curve"/>
      <point x="677.786" y="1000.39"/>
      <point x="912.254" y="602.326"/>
      <point x="1067.06" y="484.107" type="curve"/>
      <point x="1131.26" y="566.982"/>
      <point x="1155.69" y="653.344"/>
      <point x="1160.94" y="741.862" type="curve"/>
      <point x="1123.95" y="748.927"/>
      <point x="1090" y="761.588"/>
      <point x="1065.03" y="787.874" type="curve" smooth="yes"/>
      <point x="1051" y="802.637" type="line"/>
      <point x="1051" y="926" type="line"/>
      <point x="1102" y="926" type="line" smooth="yes"/>
      <point x="1175.92" y="926"/>
      <point x="1282.52" y="929.89"/>
      <point x="1363.58" y="937.189" type="curve" smooth="yes"/>
      <point x="1405.53" y="940.966"/>
      <point x="1441.45" y="946.053"/>
      <point x="1458.28" y="950.388" type="curve" smooth="yes"/>
      <point x="1468.73" y="953.081" type="line"/>
      <point x="1479.38" y="951.306" type="line" smooth="yes"/>
      <point x="1511.64" y="945.93"/>
      <point x="1597" y="928.647"/>
      <point x="1597" y="847" type="curve" smooth="yes"/>
      <point x="1597" y="726.485"/>
      <point x="1422.15" y="740"/>
      <point x="1399" y="740" type="curve" smooth="yes"/>
      <point x="1382.96" y="740" type="line"/>
      <point x="1381.88" y="712.201"/>
      <point x="1380.45" y="689.256"/>
    </contour>
    <contour>
      <point x="637" y="1522" type="line"/>
      <point x="638" y="1522" type="line"/>
      <point x="638" y="1471" type="line" smooth="yes"/>
      <point x="638" y="1446.72"/>
      <point x="638.682" y="1420.91"/>
      <point x="639.416" y="1397.5" type="curve"/>
      <point x="681.598" y="1454.57"/>
      <point x="709" y="1513.96"/>
      <point x="709" y="1531" type="curve" smooth="yes"/>
      <point x="709" y="1557.5"/>
      <point x="713.23" y="1574.12"/>
      <point x="663.873" y="1578.44" type="curve"/>
      <point x="652.651" y="1572.48"/>
      <point x="645.814" y="1566.86"/>
      <point x="637" y="1558.65" type="curve"/>
    </contour>
  </outline>
</glyph>
<glyph name="quotesingle" format="1">
  <advance width="425"/>
  <unicode hex="0027"/>
  <outline>
    <contour>
      <point x="119.584" y="1638.23" type="line"/>
      <point x="305.855" y="1640.94" type="line"/>
      <point x="248.5" y="1147.1" type="line"/>
      <point x="187" y="1147.1" type="line"/>
    </contour>
  </outline>
</glyph>
<glyph name="parenleft" format="1">
  <advance width="612"/>
  <unicode hex="0028"/>
  <outline>
    <contour>
      <point x="296" y="879.383" type="curve" smooth="yes"/>
      <point x="296" y="244.43"/>
      <point x="424.602" y="15.6"/>
      <point x="604.616" y="-340.808" type="curve"/>
      <point x="484" y="-412" type="line"/>
      <point x="145.885" y="-44.2328"/>
      <point x="52.1352" y="440.183"/>
      <point x="52.1352" y="736.432" type="curve" smooth="yes"/>
      <point x="52.1352" y="987.696"/>
      <point x="120.647" y="1519.4"/>
      <point x="509" y="1702" type="curve"/>
      <point x="618.992" y="1650.11" type="line"/>
      <point x="385.602" y="1395.6"/>
      <point x="296" y="1131.69"/>
    </contour>
  </outline>
</glyph>
<glyph name="parenright" format="1">
  <advance width="634"/>
  <unicode hex="0029"/>
  <outline>
    <contour>
      <point x="-24.0703" y="-263.712" type="line"/>
      <point x="210.004" y="-55.4708"/>
      <point x="348.777" y="463.456"/>
      <point x="349" y="815.398" type="curve" smooth="yes"/>
      <point x="348.773" y="1065.23"/>
      <point x="272.6" y="1378.4"/>
      <point x="135" y="1610" type="curve"/>
      <point x="234" y="1672" type="line"/>
      <point x="494.005" y="1417.85"/>
      <point x="584" y="913.788"/>
      <point x="584" y="815" type="curve" smooth="yes"/>
      <point x="584" y="669.484"/>
      <point x="560.6" y="115.4"/>
      <point x="132" y="-354" type="curve"/>
    </contour>
  </outline>
</glyph>
<glyph name="asterisk" format="1">
  <advance width="1417"/>
  <unicode hex="002A"/>
  <outline>
    <contour>
      <point x="1100.43" y="1461" type="line"/>
      <point x="1071.33" y="1391.01"/>
      <point x="1001.73" y="1309.79"/>
      <point x="941.867" y="1240.74" type="curve"/>
      <point x="968.578" y="1240.19"/>
      <point x="994.333" y="1240"/>
      <point x="1020" y="1240" type="curve" smooth="yes"/>
      <point x="1048.85" y="1240"/>
      <point x="1125.89" y="1250"/>
      <point x="1196" y="1250" type="curve" smooth="yes"/>
      <point x="1254.44" y="1250"/>
      <point x="1382" y="1246.22"/>
      <point x="1382" y="1137" type="curve" smooth="yes"/>
      <point x="1382" y="1041.91"/>
      <point x="1278.22" y="1034"/>
      <point x="1239" y="1034" type="curve" smooth="yes"/>
      <point x="1148.17" y="1034"/>
      <point x="1058.33" y="1039.3"/>
      <point x="938.303" y="1041.75" type="curve" smooth="yes"/>
      <point x="936.662" y="1041.79"/>
      <point x="934.076" y="1041.84"/>
      <point x="933.13" y="1041.86" type="curve"/>
      <point x="1014.06" y="954.869"/>
      <point x="1140" y="843.041"/>
      <point x="1140" y="752" type="curve" smooth="yes"/>
      <point x="1140" y="670.344"/>
      <point x="1044.23" y="640"/>
      <point x="989" y="640" type="curve" smooth="yes"/>
      <point x="967.302" y="640" type="line"/>
      <point x="684.569" y="933.749" type="line"/>
      <point x="614.448" y="844.109"/>
      <point x="539.68" y="740.591"/>
      <point x="430.03" y="656.526" type="curve" smooth="yes"/>
      <point x="416.3" y="646" type="line"/>
      <point x="319.222" y="646" type="line"/>
      <point x="227" y="709.1" type="line"/>
      <point x="227" y="742" type="line" smooth="yes"/>
      <point x="227" y="832.929"/>
      <point x="348.082" y="954.755"/>
      <point x="423.056" y="1045" type="curve"/>
      <point x="168" y="1045" type="line" smooth="yes"/>
      <point x="124.841" y="1045"/>
      <point x="36" y="1054.62"/>
      <point x="36" y="1150" type="curve" smooth="yes"/>
      <point x="36" y="1211.93"/>
      <point x="93.1055" y="1249"/>
      <point x="147" y="1249" type="curve" smooth="yes"/>
      <point x="386.185" y="1249" type="line"/>
      <point x="320.563" y="1330.67"/>
      <point x="235" y="1430.61"/>
      <point x="235" y="1501" type="curve" smooth="yes"/>
      <point x="235" y="1581.77"/>
      <point x="320.842" y="1598"/>
      <point x="359" y="1598" type="curve" smooth="yes"/>
      <point x="475.797" y="1598"/>
      <point x="581.689" y="1421.6"/>
      <point x="642.775" y="1343.45" type="curve"/>
      <point x="699.894" y="1434.13"/>
      <point x="811.841" y="1618"/>
      <point x="972" y="1618" type="curve" smooth="yes"/>
      <point x="1033.99" y="1618"/>
      <point x="1113" y="1588.39"/>
      <point x="1113" y="1512" type="curve" smooth="yes"/>
      <point x="1113" y="1461" type="line"/>
    </contour>
  </outline>
</glyph>
<glyph name="plus" format="1">
  <advance width="971"/>
  <unicode hex="002B"/>
  <outline>
    <contour>
      <point x="595" y="909" type="curve" smooth="yes"/>
      <point x="595" y="878" type="line" smooth="yes"/>
      <point x="595" y="861.987"/>
      <point x="594" y="837.943"/>
      <point x="594" y="812" type="curve" smooth="yes"/>
      <point x="594" y="791.057"/>
      <point x="595.02" y="767.414"/>
      <point x="596.857" y="753.24" type="curve"/>
      <point x="598.834" y="753.373"/>
      <point x="599.401" y="753.412"/>
      <point x="600.765" y="753.508" type="curve" smooth="yes"/>
      <point x="633.425" y="755.787"/>
      <point x="678.325" y="760"/>
      <point x="724" y="760" type="curve" smooth="yes"/>
      <point x="781.55" y="760"/>
      <point x="913" y="757.353"/>
      <point x="913" y="647" type="curve" smooth="yes"/>
      <point x="913" y="573.755"/>
      <point x="841.701" y="540"/>
      <point x="786" y="540" type="curve" smooth="yes"/>
      <point x="725.861" y="540"/>
      <point x="674.853" y="551"/>
      <point x="629" y="551" type="curve" smooth="yes"/>
      <point x="624.118" y="551"/>
      <point x="619.451" y="550.866"/>
      <point x="615.142" y="550.587" type="curve" smooth="yes"/>
      <point x="606.552" y="550.031"/>
      <point x="599.285" y="548.732"/>
      <point x="595.109" y="547.538" type="curve"/>
      <point x="596.773" y="507.706"/>
      <point x="620" y="456"/>
      <point x="620" y="389" type="curve" smooth="yes"/>
      <point x="620" y="373.817"/>
      <point x="616.119" y="358.975"/>
      <point x="609.541" y="346.398" type="curve" smooth="yes"/>
      <point x="582.582" y="294.853"/>
      <point x="524.735" y="282"/>
      <point x="482" y="282" type="curve" smooth="yes"/>
      <point x="442.325" y="282"/>
      <point x="386.362" y="293.015"/>
      <point x="357.401" y="340.944" type="curve" smooth="yes"/>
      <point x="349.957" y="353.265"/>
      <point x="345" y="368.731"/>
      <point x="345" y="385" type="curve" smooth="yes"/>
      <point x="345" y="440.688"/>
      <point x="350.213" y="495.745"/>
      <point x="352.171" y="545.377" type="curve"/>
      <point x="312.51" y="542.651"/>
      <point x="267.552" y="539"/>
      <point x="231" y="539" type="curve" smooth="yes"/>
      <point x="184.889" y="539"/>
      <point x="118.573" y="540.839"/>
      <point x="83.2606" y="596.306" type="curve" smooth="yes"/>
      <point x="72.1891" y="613.696"/>
      <point x="67" y="634.413"/>
      <point x="67" y="655" type="curve" smooth="yes"/>
      <point x="67" y="666.155"/>
      <point x="68.8546" y="677.186"/>
      <point x="72.4265" y="687.652" type="curve" smooth="yes"/>
      <point x="86.6919" y="729.448"/>
      <point x="128.123" y="759"/>
      <point x="178" y="759" type="curve" smooth="yes"/>
      <point x="234.534" y="759"/>
      <point x="287.529" y="752"/>
      <point x="335" y="752" type="curve" smooth="yes"/>
      <point x="340.163" y="752" type="line"/>
      <point x="335.729" y="784.46"/>
      <point x="330" y="817.139"/>
      <point x="330" y="855" type="curve" smooth="yes"/>
      <point x="330" y="898.242"/>
      <point x="342.009" y="1019"/>
      <point x="466" y="1019" type="curve" smooth="yes"/>
      <point x="523.518" y="1019"/>
      <point x="595" y="982.785"/>
    </contour>
  </outline>
</glyph>
<glyph name="comma" format="1">
  <advance width="563"/>
  <unicode hex="002C"/>
  <outline>
    <contour>
      <point x="319" y="235" type="curve" smooth="yes"/>
      <point x="398.173" y="235"/>
      <point x="463.7" y="155.32"/>
      <point x="463.7" y="76" type="curve" smooth="yes"/>
      <point x="463.7" y="-42.8639"/>
      <point x="338.433" y="-195.627"/>
      <point x="195" y="-253" type="curve" smooth="yes"/>
      <point x="95" y="-293" type="line"/>
      <point x="52.7002" y="-192" type="line"/>
      <point x="177.667" y="-149.154"/>
      <point x="195.531" y="-90.5003"/>
      <point x="195.531" y="-51.3" type="curve" smooth="yes"/>
      <point x="195.531" y="-35.6054"/>
      <point x="192.668" y="-23.0292"/>
      <point x="192.668" y="-15.8342" type="curve"/>
      <point x="162.791" y="10.8521"/>
      <point x="137" y="49.1174"/>
      <point x="137" y="97" type="curve" smooth="yes"/>
      <point x="137" y="197.701"/>
      <point x="248.571" y="235"/>
    </contour>
  </outline>
</glyph>
<glyph name="hyphen" format="1">
  <advance width="856"/>
  <unicode hex="002D"/>
  <outline>
    <contour>
      <point x="772" y="739" type="curve" smooth="yes"/>
      <point x="772" y="614.845"/>
      <point x="260.64" y="650"/>
      <point x="233" y="650" type="curve" smooth="yes"/>
      <point x="181.157" y="650"/>
      <point x="95" y="677.703"/>
      <point x="95" y="760" type="curve" smooth="yes"/>
      <point x="95" y="884.153"/>
      <point x="606.337" y="849"/>
      <point x="632" y="849" type="curve" smooth="yes"/>
      <point x="682.061" y="849"/>
      <point x="772" y="823.681"/>
    </contour>
  </outline>
</glyph>
<glyph name="period" format="1">
  <advance width="475"/>
  <unicode hex="002E"/>
  <outline>
    <contour>
      <point x="96" y="41" type="curve" smooth="yes"/>
      <point x="96" y="121.214"/>
      <point x="175.251" y="171"/>
      <point x="247" y="171" type="curve" smooth="yes"/>
      <point x="319.213" y="171"/>
      <point x="393" y="118.658"/>
      <point x="393" y="43" type="curve" smooth="yes"/>
      <point x="393" y="-46.6735"/>
      <point x="305.54" y="-83"/>
      <point x="237" y="-83" type="curve" smooth="yes"/>
      <point x="166.067" y="-83"/>
      <point x="96" y="-32.8146"/>
    </contour>
  </outline>
</glyph>
<glyph name="slash" format="1">
  <advance width="937"/>
  <unicode hex="002F"/>
  <outline>
    <contour>
      <point x="66" y="30" type="line" smooth="yes"/>
      <point x="587.024" y="1597.01" type="line" smooth="yes"/>
      <point x="619" y="1604" type="line" smooth="yes"/>
      <point x="734.604" y="1536.04" type="line" smooth="yes"/>
      <point x="876.2" y="1487.43" type="line" smooth="yes"/>
      <point x="264.2" y="-132.574" type="line" smooth="yes"/>
      <point x="252.562" y="-132.574" type="line"/>
      <point x="154.875" y="-76.9512" type="line" smooth="yes"/>
    </contour>
  </outline>
</glyph>
<glyph name="zero" format="1">
  <advance width="1163"/>
  <unicode hex="0030"/>
  <outline>
    <contour>
      <point x="137" y="1182" type="line" smooth="yes"/>
      <point x="137" y="1361.06"/>
      <point x="163.103" y="1563"/>
      <point x="456.149" y="1563" type="curve" smooth="yes"/>
      <point x="1078.89" y="1563"/>
      <point x="1065" y="731.066"/>
      <point x="1065" y="470" type="curve" smooth="yes"/>
      <point x="1065" y="332.959"/>
      <point x="1059.6" y="-95"/>
      <point x="625.788" y="-95" type="curve" smooth="yes"/>
      <point x="143.227" y="-95"/>
      <point x="137" y="617.687"/>
      <point x="137" y="753" type="curve" smooth="yes"/>
    </contour>
    <contour>
      <point x="671.461" y="100" type="curve" smooth="yes"/>
      <point x="760.216" y="100"/>
      <point x="832.048" y="352.664"/>
      <point x="840" y="489.448" type="curve"/>
      <point x="840" y="517" type="line" smooth="yes"/>
      <point x="840" y="738.369"/>
      <point x="741.313" y="1356"/>
      <point x="456.149" y="1356" type="curve" smooth="yes"/>
      <point x="384.191" y="1356"/>
      <point x="352" y="1324.03"/>
      <point x="352" y="1287" type="curve" smooth="yes"/>
      <point x="352" y="1176.26"/>
      <point x="370" y="1060.26"/>
      <point x="370" y="939" type="curve" smooth="yes"/>
      <point x="370" y="890.834"/>
      <point x="415.696" y="824.834"/>
      <point x="415.696" y="739" type="curve" smooth="yes"/>
      <point x="415.696" y="605.681"/>
      <point x="468.324" y="100"/>
    </contour>
  </outline>
</glyph>
<glyph name="one" format="1">
  <advance width="993"/>
  <unicode hex="0031"/>
  <outline>
    <contour>
      <point x="395.939" y="174.496" type="line"/>
      <point x="407.074" y="174.713" type="line"/>
      <point x="302" y="1265.23" type="line"/>
      <point x="290.7" y="1364.36" type="line"/>
      <point x="281.812" y="1373.75"/>
      <point x="273.592" y="1372.38"/>
      <point x="265" y="1377" type="curve"/>
      <point x="82.7002" y="1375" type="line"/>
      <point x="77" y="1470" type="line"/>
      <point x="64.7002" y="1575" type="line"/>
      <point x="570.7" y="1582.36" type="line"/>
      <point x="593.268" y="1504.44" type="line"/>
      <point x="596.7" y="1452.36"/>
      <point x="629.581" y="1174.94"/>
      <point x="648.086" y="1061.13" type="curve"/>
      <point x="714.645" y="192.151" type="line"/>
      <point x="762" y="192.151" type="line"/>
      <point x="920.7" y="189.127" type="line"/>
      <point x="925" y="96.3291" type="line"/>
      <point x="924.7" y="-7.14746" type="line"/>
      <point x="527.616" y="-8" type="line"/>
      <point x="232.7" y="-9" type="line"/>
      <point x="230" y="90.665" type="line"/>
      <point x="230" y="182.029" type="line"/>
      <point x="283.995" y="179.071" type="line"/>
    </contour>
  </outline>
</glyph>
<glyph name="two" format="1">
  <advance width="965"/>
  <unicode hex="0032"/>
  <outline>
    <contour>
      <point x="311" y="1276" type="curve"/>
      <point x="195" y="1390" type="line"/>
      <point x="195" y="1513.21"/>
      <point x="314.13" y="1638"/>
      <point x="469.091" y="1638" type="curve" smooth="yes"/>
      <point x="852.417" y="1638"/>
      <point x="857" y="1349.93"/>
      <point x="857" y="1201" type="curve" smooth="yes"/>
      <point x="857" y="888.619"/>
      <point x="757.058" y="588.896"/>
      <point x="584.911" y="368.65" type="curve" smooth="yes"/>
      <point x="411.583" y="146.895" type="line"/>
      <point x="700" y="158" type="line"/>
      <point x="848.5" y="158" type="line"/>
      <point x="859.665" y="65.1035" type="line"/>
      <point x="859.665" y="-47" type="line"/>
      <point x="734" y="-47" type="line"/>
      <point x="227.082" y="-67.2331" type="line"/>
      <point x="101.385" y="98.0479" type="line"/>
      <point x="347.057" y="446.081" type="line" smooth="yes"/>
      <point x="528.359" y="702.924"/>
      <point x="627" y="1006.17"/>
      <point x="627" y="1236" type="curve" smooth="yes"/>
      <point x="627" y="1309.56"/>
      <point x="606.984" y="1429.22"/>
      <point x="535.454" y="1446.04" type="curve"/>
      <point x="525.561" y="1436.72"/>
      <point x="392.5" y="1463.24"/>
    </contour>
  </outline>
</glyph>
<glyph name="three" format="1">
  <advance width="991"/>
  <unicode hex="0033"/>
  <outline>
    <contour>
      <point x="74" y="1371.54" type="line"/>
      <point x="134.055" y="1487.56"/>
      <point x="312.035" y="1573"/>
      <point x="412.728" y="1573" type="curve"/>
      <point x="679.209" y="1534.34"/>
      <point x="815.778" y="1394.3"/>
      <point x="815.778" y="1216.1" type="curve" smooth="yes"/>
      <point x="815.778" y="1126.96"/>
      <point x="781.609" y="1028.28"/>
      <point x="712.439" y="927.952" type="curve"/>
      <point x="832.868" y="826.628"/>
      <point x="910.651" y="659.734"/>
      <point x="910.651" y="452.515" type="curve" smooth="yes"/>
      <point x="910.651" y="430.778"/>
      <point x="909.795" y="408.598"/>
      <point x="908.043" y="386.004" type="curve"/>
      <point x="849.518" y="124.814"/>
      <point x="752.056" y="17.8423"/>
      <point x="588.769" y="17.8423" type="curve" smooth="yes"/>
      <point x="493.859" y="17.8423"/>
      <point x="376.711" y="53.9822"/>
      <point x="232.043" y="116.984" type="curve"/>
      <point x="232.043" y="286.623" type="line"/>
      <point x="318.625" y="261.172"/>
      <point x="402.252" y="245.924"/>
      <point x="474.62" y="245.924" type="curve" smooth="yes"/>
      <point x="611.592" y="245.924"/>
      <point x="708.231" y="300.548"/>
      <point x="708.231" y="444.002" type="curve" smooth="yes"/>
      <point x="708.231" y="585.116"/>
      <point x="618.301" y="785.447"/>
      <point x="358.431" y="807.139" type="curve"/>
      <point x="312.043" y="817.971" type="line"/>
      <point x="312.043" y="963" type="line"/>
      <point x="509.862" y="988.13"/>
      <point x="583.254" y="1088.53"/>
      <point x="583.254" y="1183.92" type="curve" smooth="yes"/>
      <point x="583.254" y="1282.11"/>
      <point x="505.481" y="1375"/>
      <point x="405.608" y="1375" type="curve" smooth="yes"/>
      <point x="323.5" y="1375"/>
      <point x="239.5" y="1311"/>
      <point x="205.043" y="1258" type="curve"/>
      <point x="78.4668" y="1353.03" type="line"/>
    </contour>
  </outline>
</glyph>
<glyph name="four" format="1">
  <advance width="1000"/>
  <unicode hex="0034"/>
  <outline>
    <contour>
      <point x="360.01" y="679.134" type="curve"/>
      <point x="446.398" y="681.688"/>
      <point x="554.509" y="683.029"/>
      <point x="636.907" y="684.273" type="curve"/>
      <point x="631.588" y="857.852"/>
      <point x="605.701" y="1030.12"/>
      <point x="605.701" y="1212" type="curve"/>
      <point x="600.109" y="1293.16" type="line"/>
      <point x="703.425" y="1309" type="line"/>
      <point x="725.604" y="1309" type="line"/>
      <point x="832" y="1309.57" type="line"/>
      <point x="832" y="1123" type="line" smooth="yes"/>
      <point x="832" y="980.009"/>
      <point x="833.897" y="838.429"/>
      <point x="856.009" y="701.587" type="curve"/>
      <point x="1021" y="703" type="line"/>
      <point x="1021" y="608" type="line"/>
      <point x="1013" y="507" type="line"/>
      <point x="872.51" y="506.763" type="line"/>
      <point x="893.654" y="228.799" type="line"/>
      <point x="901.189" y="214.917" type="line"/>
      <point x="898.306" y="197.615" type="line"/>
      <point x="894" y="168" type="line"/>
      <point x="896.733" y="156.833"/>
      <point x="901.18" y="151.913"/>
      <point x="907" y="144.347" type="curve"/>
      <point x="907" y="-50" type="line"/>
      <point x="792" y="-38" type="line"/>
      <point x="680.083" y="-30" type="line"/>
      <point x="680.083" y="126.248" type="line"/>
      <point x="684.818" y="134.907" type="line"/>
      <point x="680.209" y="191" type="line"/>
      <point x="680.209" y="248.31"/>
      <point x="665.498" y="313.308"/>
      <point x="665.498" y="390" type="curve" smooth="yes"/>
      <point x="665.498" y="422.299"/>
      <point x="668.415" y="451.299"/>
      <point x="668.415" y="479" type="curve" smooth="yes"/>
      <point x="668.415" y="482.311"/>
      <point x="640.21" y="485.868"/>
      <point x="598.284" y="488.887" type="curve"/>
      <point x="597.038" y="487.939"/>
      <point x="595.851" y="486.922"/>
      <point x="594.563" y="485.837" type="curve"/>
      <point x="495.327" y="484.028"/>
      <point x="400.292" y="482.173"/>
      <point x="332" y="481.058" type="curve"/>
      <point x="332" y="479" type="line"/>
      <point x="281" y="479" type="line" smooth="yes"/>
      <point x="228.648" y="479"/>
      <point x="184.821" y="497.776"/>
      <point x="149.35" y="519.518" type="curve" smooth="yes"/>
      <point x="125" y="534.441" type="line"/>
      <point x="125" y="563" type="line" smooth="yes"/>
      <point x="125" y="589.119"/>
      <point x="127.986" y="618.096"/>
      <point x="135.257" y="644.131" type="curve"/>
      <point x="127.48" y="681.771"/>
      <point x="125" y="719.224"/>
      <point x="125" y="757" type="curve" smooth="yes"/>
      <point x="125" y="904.439"/>
      <point x="165" y="1051.78"/>
      <point x="165" y="1175" type="curve" smooth="yes"/>
      <point x="165" y="1554" type="line"/>
      <point x="178.21" y="1646.79" type="line"/>
      <point x="267" y="1645" type="line"/>
      <point x="455.723" y="1634.67" type="line"/>
      <point x="444.033" y="1543" type="line"/>
      <point x="414.864" y="1384" type="line"/>
      <point x="414.864" y="1154.21"/>
      <point x="360.779" y="907.083"/>
    </contour>
  </outline>
</glyph>
<glyph name="five" format="1">
  <advance width="964"/>
  <unicode hex="0035"/>
  <outline>
    <contour>
      <point x="294.479" y="835.742" type="curve"/>
      <point x="173.479" y="993.739" type="line"/>
      <point x="160.479" y="1091.55" type="line"/>
      <point x="141.6" y="1241.59"/>
      <point x="96.939" y="1482.49"/>
      <point x="96.5107" y="1484.46" type="curve" smooth="yes"/>
      <point x="90" y="1514.44" type="line"/>
      <point x="175.677" y="1574" type="line"/>
      <point x="665.6" y="1574" type="line"/>
      <point x="672.479" y="1473" type="line"/>
      <point x="672.479" y="1433.92" type="line"/>
      <point x="677.6" y="1380" type="line"/>
      <point x="531.823" y="1380" type="line"/>
      <point x="531.823" y="1375.34" type="line"/>
      <point x="349.276" y="1375.34" type="line"/>
      <point x="362.985" y="1256.85"/>
      <point x="390.163" y="1143.71"/>
      <point x="415.473" y="1022.83" type="curve"/>
      <point x="479.921" y="1016.94"/>
      <point x="536.999" y="1007.79"/>
      <point x="589.436" y="995.29" type="curve"/>
      <point x="861.498" y="901.908"/>
      <point x="878.479" y="647.137"/>
      <point x="878.479" y="450.299" type="curve" smooth="yes"/>
      <point x="878.479" y="287.862"/>
      <point x="844.399" y="-27"/>
      <point x="456.591" y="-27" type="curve" smooth="yes"/>
      <point x="441.51" y="-27"/>
      <point x="423.87" y="-27.2783"/>
      <point x="404.83" y="-27.2783" type="curve" smooth="yes"/>
      <point x="318.536" y="-27.2783"/>
      <point x="203.481" y="-21.5695"/>
      <point x="167.6" y="41.5947" type="curve"/>
      <point x="243.6" y="193.595" type="line"/>
      <point x="359.106" y="166.733" type="line"/>
      <point x="574.588" y="166.733"/>
      <point x="650.968" y="311.638"/>
      <point x="650.968" y="467.477" type="curve" smooth="yes"/>
      <point x="650.968" y="654.782"/>
      <point x="568.864" y="857.373"/>
      <point x="483.081" y="857.373" type="curve"/>
      <point x="483.081" y="854.211" type="line"/>
      <point x="411.137" y="850.921" type="line" smooth="yes"/>
      <point x="390.389" y="849.972"/>
      <point x="339.043" y="835.742"/>
    </contour>
  </outline>
</glyph>
<glyph name="six" format="1">
  <advance width="1060"/>
  <unicode hex="0036"/>
  <outline>
    <contour>
      <point x="423.355" y="879.898" type="curve"/>
      <point x="350.882" y="858.352"/>
      <point x="359" y="850.973"/>
      <point x="359" y="820" type="curve" smooth="yes"/>
      <point x="359" y="659.922"/>
      <point x="402.088" y="174"/>
      <point x="668.339" y="174" type="curve" smooth="yes"/>
      <point x="744.746" y="174"/>
      <point x="747" y="221.773"/>
      <point x="747" y="262" type="curve" smooth="yes"/>
      <point x="747" y="381.51"/>
      <point x="670.037" y="849.141"/>
    </contour>
    <contour>
      <point x="972" y="269.047" type="curve" smooth="yes"/>
      <point x="972" y="156.029"/>
      <point x="945.463" y="4.44043"/>
      <point x="690.803" y="-12.2666" type="curve"/>
      <point x="690.803" y="-15" type="line"/>
      <point x="619.2" y="-15" type="line" smooth="yes"/>
      <point x="139.988" y="-15"/>
      <point x="126" y="454.841"/>
      <point x="126" y="713.582" type="curve" smooth="yes"/>
      <point x="126" y="778.895"/>
      <point x="127" y="834.57"/>
      <point x="127" y="878.101" type="curve" smooth="yes"/>
      <point x="127" y="1007.11"/>
      <point x="116.631" y="1586"/>
      <point x="637.452" y="1586" type="curve" smooth="yes"/>
      <point x="679.57" y="1586"/>
      <point x="815" y="1584.81"/>
      <point x="815" y="1499.52" type="curve" smooth="yes"/>
      <point x="815" y="1401.9"/>
      <point x="640.1" y="1392.71"/>
      <point x="569.509" y="1387.09" type="curve"/>
      <point x="481.219" y="1347.01"/>
      <point x="394.052" y="1117.39"/>
      <point x="368.049" y="989.967" type="curve"/>
      <point x="372.622" y="990.019"/>
      <point x="376.635" y="990.034"/>
      <point x="381.925" y="990.034" type="curve" smooth="yes"/>
      <point x="967.996" y="990.034"/>
      <point x="972" y="405.98"/>
    </contour>
  </outline>
</glyph>
<glyph name="seven" format="1">
  <advance width="714"/>
  <unicode hex="0037"/>
  <outline>
    <contour>
      <point x="625.173" y="1481.02" type="line"/>
      <point x="508.187" y="1067.82"/>
      <point x="429.724" y="362.992"/>
      <point x="293" y="-41" type="curve"/>
      <point x="199.784" y="-11" type="line"/>
      <point x="99" y="41.209" type="line"/>
      <point x="99" y="69.1904" type="line"/>
      <point x="383.79" y="1396.85" type="line"/>
      <point x="374" y="1397" type="line"/>
      <point x="77.9414" y="1387.37" type="line"/>
      <point x="92" y="1499" type="line"/>
      <point x="99.0908" y="1587.58" type="line"/>
      <point x="387" y="1583" type="line"/>
      <point x="597" y="1583" type="line"/>
      <point x="620.471" y="1494.52" type="line"/>
    </contour>
  </outline>
</glyph>
<glyph name="eight" format="1">
  <advance width="1039"/>
  <unicode hex="0038"/>
  <outline>
    <contour>
      <point x="414.789" y="1466.84" type="curve"/>
      <point x="378.676" y="1465.09" type="line"/>
      <point x="339.213" y="1441.58"/>
      <point x="330" y="1419.45"/>
      <point x="330" y="1413" type="curve" smooth="yes"/>
      <point x="330" y="1347.73"/>
      <point x="373.539" y="1197.42"/>
      <point x="434.236" y="1089.26" type="curve"/>
      <point x="472.138" y="1164.84"/>
      <point x="492.801" y="1238.45"/>
      <point x="492.971" y="1311.92" type="curve"/>
      <point x="492.01" y="1336.21"/>
      <point x="443.928" y="1453.8"/>
    </contour>
    <contour>
      <point x="487.659" y="721.331" type="curve"/>
      <point x="421.068" y="573.714"/>
      <point x="397.853" y="370.739"/>
      <point x="397.853" y="241" type="curve" smooth="yes"/>
      <point x="397.853" y="239.31" type="line"/>
      <point x="402.38" y="203.147"/>
      <point x="489.888" y="108"/>
      <point x="524.675" y="108" type="curve" smooth="yes"/>
      <point x="727.214" y="108"/>
      <point x="737" y="159.244"/>
      <point x="737" y="191" type="curve" smooth="yes"/>
      <point x="737" y="363.918"/>
      <point x="632.372" y="541.722"/>
    </contour>
    <contour>
      <point x="953" y="87.2236" type="line"/>
      <point x="889.991" y="-16.7451"/>
      <point x="796.269" y="-82"/>
      <point x="519.161" y="-82" type="curve" smooth="yes"/>
      <point x="246.173" y="-82"/>
      <point x="174.267" y="76.71"/>
      <point x="161.027" y="182.054" type="curve"/>
      <point x="157" y="182.054" type="line"/>
      <point x="157" y="230.149" type="line" smooth="yes"/>
      <point x="157" y="450.729"/>
      <point x="219.997" y="665.578"/>
      <point x="277.505" y="852.761" type="curve"/>
      <point x="239.781" y="926.045"/>
      <point x="98" y="1203.12"/>
      <point x="98" y="1383.5" type="curve" smooth="yes"/>
      <point x="98" y="1485.3"/>
      <point x="167.054" y="1607"/>
      <point x="335" y="1607" type="curve" smooth="yes"/>
      <point x="465.867" y="1607" type="line"/>
      <point x="808.706" y="1533.92"/>
      <point x="844" y="1438.48"/>
      <point x="844" y="1281.55" type="curve" smooth="yes"/>
      <point x="844" y="1132.08"/>
      <point x="772.756" y="992.173"/>
      <point x="701.131" y="862.285" type="curve"/>
      <point x="873.858" y="654.202"/>
      <point x="961" y="375.508"/>
      <point x="961" y="155.632" type="curve" smooth="yes"/>
      <point x="961" y="139.345"/>
      <point x="959.015" y="121.411"/>
      <point x="953" y="103.029" type="curve"/>
    </contour>
  </outline>
</glyph>
<glyph name="nine" format="1">
  <advance width="836"/>
  <unicode hex="0039"/>
  <outline>
    <contour>
      <point x="454.795" y="1425" type="curve" smooth="yes"/>
      <point x="417.745" y="1425"/>
      <point x="376.795" y="1272.61"/>
      <point x="376.795" y="1196" type="curve" smooth="yes"/>
      <point x="376.795" y="1098.96"/>
      <point x="419.029" y="1055.3"/>
      <point x="491.224" y="1030.2" type="curve"/>
      <point x="497.438" y="1145.77"/>
      <point x="498.795" y="1260.39"/>
      <point x="498.795" y="1376" type="curve" smooth="yes"/>
      <point x="498.795" y="1382.92"/>
      <point x="498.911" y="1388.87"/>
      <point x="498.911" y="1394" type="curve" smooth="yes"/>
      <point x="498.911" y="1421.08"/>
      <point x="495.66" y="1425"/>
    </contour>
    <contour>
      <point x="727.795" y="1383.28" type="curve" smooth="yes"/>
      <point x="727.795" y="1283.25"/>
      <point x="732.845" y="1130.71"/>
      <point x="732.845" y="962.188" type="curve" smooth="yes"/>
      <point x="732.845" y="545.938"/>
      <point x="670.102" y="26"/>
      <point x="214.795" y="26" type="curve" smooth="yes"/>
      <point x="109.125" y="26" type="line"/>
      <point x="95.2031" y="92.4082" type="line"/>
      <point x="82" y="148.908" type="line"/>
      <point x="385.47" y="202.186"/>
      <point x="489.795" y="542.957"/>
      <point x="489.795" y="692.062" type="curve" smooth="yes"/>
      <point x="489.795" y="758.321"/>
      <point x="486.976" y="820.835"/>
      <point x="484.93" y="883.577" type="curve"/>
      <point x="297.467" y="926.931"/>
      <point x="144.795" y="1048.33"/>
      <point x="144.795" y="1216.6" type="curve" smooth="yes"/>
      <point x="144.795" y="1332.42"/>
      <point x="178.163" y="1614"/>
      <point x="452.795" y="1614" type="curve" smooth="yes"/>
      <point x="657.859" y="1614"/>
      <point x="727.795" y="1522.84"/>
    </contour>
  </outline>
</glyph>
<glyph name="colon" format="1">
  <advance width="472"/>
  <unicode hex="003A"/>
  <outline>
    <contour>
      <point x="109" y="1024" type="curve" smooth="yes"/>
      <point x="109" y="1102.48"/>
      <point x="186.189" y="1154"/>
      <point x="259" y="1154" type="curve" smooth="yes"/>
      <point x="331.213" y="1154"/>
      <point x="405" y="1101.66"/>
      <point x="405" y="1026" type="curve" smooth="yes"/>
      <point x="405" y="936.326"/>
      <point x="317.54" y="900"/>
      <point x="249" y="900" type="curve" smooth="yes"/>
      <point x="177.495" y="900"/>
      <point x="109" y="950.97"/>
    </contour>
    <contour>
      <point x="82" y="250" type="curve" smooth="yes"/>
      <point x="82" y="330.214"/>
      <point x="161.251" y="380"/>
      <point x="233" y="380" type="curve" smooth="yes"/>
      <point x="305.756" y="380"/>
      <point x="378" y="326.927"/>
      <point x="378" y="252" type="curve" smooth="yes"/>
      <point x="378" y="164"/>
      <point x="292.558" y="126"/>
      <point x="223" y="126" type="curve" smooth="yes"/>
      <point x="152.067" y="126"/>
      <point x="82" y="176.185"/>
    </contour>
  </outline>
</glyph>
<glyph name="semicolon" format="1">
  <advance width="543"/>
  <unicode hex="003B"/>
  <outline>
    <contour>
      <point x="176" y="1025" type="curve" smooth="yes"/>
      <point x="176" y="1103.48"/>
      <point x="253.189" y="1155"/>
      <point x="326" y="1155" type="curve" smooth="yes"/>
      <point x="398.213" y="1155"/>
      <point x="472" y="1102.66"/>
      <point x="472" y="1027" type="curve" smooth="yes"/>
      <point x="472" y="937.326"/>
      <point x="384.54" y="901"/>
      <point x="316" y="901" type="curve" smooth="yes"/>
      <point x="245.633" y="901"/>
      <point x="176" y="951.43"/>
    </contour>
    <contour>
      <point x="172" y="-62" type="curve"/>
      <point x="116" y="6.9707" type="line"/>
      <point x="153.045" y="33.912"/>
      <point x="205.156" y="63.0912"/>
      <point x="236.254" y="88.6426" type="curve"/>
      <point x="177.646" y="133.472"/>
      <point x="130" y="194.218"/>
      <point x="130" y="272" type="curve" smooth="yes"/>
      <point x="130" y="373.027"/>
      <point x="242.688" y="410"/>
      <point x="312" y="410" type="curve" smooth="yes"/>
      <point x="404.736" y="410"/>
      <point x="481" y="342.054"/>
      <point x="481" y="258" type="curve" smooth="yes"/>
      <point x="481" y="54.3"/>
      <point x="267.7" y="-13.7"/>
    </contour>
  </outline>
</glyph>
<glyph name="less" format="1">
  <advance width="726"/>
  <unicode hex="003C"/>
  <outline>
    <contour>
      <point x="40.0658" y="700.59" type="line"/>
      <point x="511" y="1498" type="line"/>
      <point x="522.443" y="1497" type="line"/>
      <point x="533.989" y="1497" type="line"/>
      <point x="634.997" y="1437.08" type="line"/>
      <point x="629.318" y="1402.69" type="line"/>
      <point x="294.424" y="711.125" type="line"/>
      <point x="688.246" y="98.9968" type="line"/>
      <point x="726" y="45.9004" type="line"/>
      <point x="611" y="-73" type="line"/>
      <point x="47.7521" y="670.97" type="line"/>
      <point x="39.2513" y="684.571" type="line"/>
    </contour>
  </outline>
</glyph>
<glyph name="equal" format="1">
  <advance width="1030"/>
  <unicode hex="003D"/>
  <outline>
    <contour>
      <point x="692" y="923" type="line" smooth="yes"/>
      <point x="751.265" y="923"/>
      <point x="950" y="941.678"/>
      <point x="950" y="818" type="curve" smooth="yes"/>
      <point x="950" y="760.42"/>
      <point x="899.814" y="733.631"/>
      <point x="836.265" y="721.473" type="curve"/>
      <point x="893.248" y="708.581"/>
      <point x="937" y="681.493"/>
      <point x="937" y="626" type="curve" smooth="yes"/>
      <point x="937" y="557.757"/>
      <point x="873.262" y="528"/>
      <point x="823" y="528" type="curve" smooth="yes"/>
      <point x="634.182" y="528"/>
      <point x="447.182" y="538"/>
      <point x="262" y="538" type="curve" smooth="yes"/>
      <point x="242.341" y="538"/>
      <point x="104" y="525.92"/>
      <point x="104" y="634" type="curve" smooth="yes"/>
      <point x="104" y="686.931"/>
      <point x="143.429" y="718.206"/>
      <point x="186.351" y="727.809" type="curve"/>
      <point x="141.539" y="740.958"/>
      <point x="104" y="768.503"/>
      <point x="104" y="826" type="curve" smooth="yes"/>
      <point x="104" y="890.657"/>
      <point x="162.833" y="923"/>
      <point x="215" y="923" type="curve" smooth="yes"/>
    </contour>
  </outline>
</glyph>
<glyph name="greater" format="1">
  <advance width="758"/>
  <unicode hex="003E"/>
  <outline>
    <contour>
      <point x="294" y="1473.02" type="line"/>
      <point x="722.96" y="700.018" type="line"/>
      <point x="723.6" y="683.864" type="line"/>
      <point x="235.743" y="-70" type="line"/>
      <point x="208" y="-70" type="line"/>
      <point x="153" y="-74" type="line"/>
      <point x="32.0283" y="47.3009" type="line"/>
      <point x="31.4605" y="64.3353" type="line"/>
      <point x="41.2485" y="78.2884" type="line"/>
      <point x="467.647" y="712.19" type="line"/>
      <point x="133.005" y="1410.27" type="line"/>
      <point x="132.581" y="1439.8" type="line"/>
      <point x="294" y="1535.55" type="line"/>
    </contour>
  </outline>
</glyph>
<glyph name="question" format="1">
  <advance width="2088"/>
  <unicode hex="003F"/>
  <outline>
    <contour>
      <point x="1024" y="-241" type="curve" smooth="yes"/>
      <point x="245.896" y="-241"/>
      <point x="201.937" y="371.004"/>
      <point x="80" y="757.139" type="curve"/>
      <point x="80" y="765" type="line" smooth="yes"/>
      <point x="80" y="809.273"/>
      <point x="79" y="865.489"/>
      <point x="79" y="930" type="curve" smooth="yes"/>
      <point x="79" y="1307.65"/>
      <point x="132.912" y="1989"/>
      <point x="1053" y="1989" type="curve" smooth="yes"/>
      <point x="1054" y="1989" type="line" smooth="yes"/>
      <point x="1964.09" y="1989"/>
      <point x="2031" y="1222.76"/>
      <point x="2031" y="807" type="curve" smooth="yes"/>
      <point x="2031" y="470.155"/>
      <point x="2020.95" y="-241"/>
    </contour>
    <contour>
      <point x="1135.2" y="910" type="curve"/>
      <point x="1251.2" y="750"/>
      <point x="1501.68" y="427.828"/>
      <point x="1569" y="325.329" type="curve"/>
      <point x="1569" y="316.444" type="line"/>
      <point x="1575.44" y="306.671"/>
      <point x="1608.09" y="285.601"/>
      <point x="1633.35" y="249" type="curve"/>
      <point x="1654.97" y="249" type="line"/>
      <point x="1766.43" y="392.456"/>
      <point x="1781" y="565.665"/>
      <point x="1781" y="706" type="curve" smooth="yes"/>
      <point x="1781" y="1019.81"/>
      <point x="1746.37" y="1336.26"/>
      <point x="1526.48" y="1624.04" type="curve" smooth="yes"/>
      <point x="1516" y="1637.75" type="line"/>
      <point x="1516" y="1642.19" type="line"/>
      <point x="1423.95" y="1696.59"/>
      <point x="1201.18" y="1781"/>
      <point x="1087" y="1781" type="curve" smooth="yes"/>
      <point x="377.731" y="1781"/>
      <point x="337" y="1239.42"/>
      <point x="337" y="954" type="curve" smooth="yes"/>
      <point x="337" y="953" type="line" smooth="yes"/>
      <point x="337" y="429.256"/>
      <point x="465.041" y="-11.1018"/>
      <point x="969.188" y="-11.1018" type="curve" smooth="yes"/>
      <point x="1104.82" y="-11.1018"/>
      <point x="1267.66" y="20.7685"/>
      <point x="1462.56" y="91.4593" type="curve"/>
      <point x="897.549" y="862" type="line"/>
      <point x="852.521" y="862" type="line"/>
      <point x="848" y="795" type="line"/>
      <point x="897" y="209" type="line"/>
      <point x="763" y="191" type="line"/>
      <point x="622.025" y="176.104" type="line"/>
      <point x="617" y="207" type="line"/>
      <point x="591" y="473.922" type="line"/>
      <point x="591" y="1582" type="line"/>
      <point x="949" y="1590" type="line"/>
      <point x="1409.73" y="1590"/>
      <point x="1498" y="1411.69"/>
      <point x="1498" y="1269" type="curve" smooth="yes"/>
      <point x="1498" y="1010.27"/>
      <point x="1230.93" y="941.459"/>
    </contour>
    <contour>
      <point x="965" y="1473" type="curve"/>
      <point x="812" y="1474" type="line"/>
      <point x="822" y="1262" type="line"/>
      <point x="837.818" y="1058.59" type="line"/>
      <point x="1091.96" y="1071.05"/>
      <point x="1204" y="1184.58"/>
      <point x="1204" y="1289.69" type="curve" smooth="yes"/>
      <point x="1204" y="1382.02"/>
      <point x="1117.54" y="1467.86"/>
    </contour>
  </outline>
</glyph>
<glyph name="at" format="1">
  <advance width="1799"/>
  <unicode hex="0040"/>
  <outline>
    <contour>
      <point x="857.492" y="1195" type="curve" smooth="yes"/>
      <point x="711.208" y="1194.61"/>
      <point x="696" y="1025.84"/>
      <point x="696" y="888" type="curve" smooth="yes"/>
      <point x="696" y="855" type="line" smooth="yes"/>
      <point x="696" y="661.799"/>
      <point x="710.051" y="461"/>
      <point x="881" y="461" type="curve" smooth="yes"/>
      <point x="976.783" y="461"/>
      <point x="1102.55" y="571.867"/>
      <point x="1115" y="607.088" type="curve"/>
      <point x="1115" y="759" type="line" smooth="yes"/>
      <point x="1115" y="881.196"/>
      <point x="1050.23" y="1194.47"/>
    </contour>
    <contour>
      <point x="1750" y="767" type="curve" smooth="yes"/>
      <point x="1750" y="649.067"/>
      <point x="1741" y="355"/>
      <point x="1422" y="355" type="curve" smooth="yes"/>
      <point x="1362.59" y="355"/>
      <point x="1314.87" y="367.085"/>
      <point x="1278.81" y="384.203" type="curve"/>
      <point x="1190.39" y="302.966"/>
      <point x="1034.01" y="255"/>
      <point x="849" y="255" type="curve" smooth="yes"/>
      <point x="435.266" y="255"/>
      <point x="435" y="672.097"/>
      <point x="435" y="851" type="curve" smooth="yes"/>
      <point x="435" y="1040.19"/>
      <point x="442.303" y="1402"/>
      <point x="858" y="1402" type="curve" smooth="yes"/>
      <point x="1332.68" y="1402"/>
      <point x="1316.31" y="789.636"/>
      <point x="1344.1" y="539.5" type="curve"/>
      <point x="1374.53" y="518.938"/>
      <point x="1398.99" y="509.937"/>
      <point x="1418.64" y="509.937" type="curve" smooth="yes"/>
      <point x="1496.8" y="509.937"/>
      <point x="1499" y="652.289"/>
      <point x="1499" y="776" type="curve" smooth="yes"/>
      <point x="1499" y="1082.25"/>
      <point x="1388.39" y="1561"/>
      <point x="810" y="1561" type="curve" smooth="yes"/>
      <point x="345.593" y="1561"/>
      <point x="319" y="1191.61"/>
      <point x="319" y="849" type="curve" smooth="yes"/>
      <point x="319" y="847" type="line" smooth="yes"/>
      <point x="319" y="597.591"/>
      <point x="349.94" y="20"/>
      <point x="737" y="20" type="curve" smooth="yes"/>
      <point x="797.54" y="20"/>
      <point x="850.183" y="21.1491"/>
      <point x="896.315" y="23.3254" type="curve" smooth="yes"/>
      <point x="1235.77" y="39.339"/>
      <point x="1217.57" y="105.383"/>
      <point x="1476" y="204.494" type="curve"/>
      <point x="1612.1" y="279.5" type="line"/>
      <point x="1664.15" y="163.552" type="line"/>
      <point x="1364.1" y="-124.5"/>
      <point x="916.1" y="-169.658"/>
      <point x="824.168" y="-169.658" type="curve" smooth="yes"/>
      <point x="799.987" y="-169.658"/>
      <point x="776.231" y="-171"/>
      <point x="753" y="-171" type="curve" smooth="yes"/>
      <point x="83.2161" y="-171"/>
      <point x="74.9948" y="657.436"/>
      <point x="74.9948" y="936.032" type="curve" smooth="yes"/>
      <point x="74.9948" y="943.044"/>
      <point x="75" y="949.707"/>
      <point x="75" y="956" type="curve" smooth="yes"/>
      <point x="75" y="1262.13"/>
      <point x="93.8878" y="1770"/>
      <point x="829" y="1770" type="curve" smooth="yes"/>
      <point x="1636.82" y="1770"/>
      <point x="1750" y="1151.91"/>
    </contour>
  </outline>
</glyph>
<glyph name="A" format="1">
  <advance width="1132"/>
  <unicode hex="0041"/>
  <outline>
    <contour>
      <point x="512.994" y="509.947" type="line"/>
      <point x="726.76" y="493.575" type="line"/>
      <point x="712.8" y="1198.84" type="line"/>
    </contour>
    <contour>
      <point x="320.11" y="11.0371" type="line"/>
      <point x="81" y="75.7793" type="line"/>
      <point x="578.513" y="1547.93" type="line"/>
      <point x="894.41" y="1521.67" type="line"/>
      <point x="1056.34" y="30.7861" type="line"/>
      <point x="1010.58" y="21.9297" type="line" smooth="yes"/>
      <point x="947.23" y="9.66699"/>
      <point x="887.799" y="1.0791"/>
      <point x="799.859" y="-0.985352" type="curve" smooth="yes"/>
      <point x="733.678" y="-2.24414" type="line"/>
      <point x="733.678" y="328.912" type="line"/>
      <point x="454.637" y="366.212" type="line"/>
    </contour>
  </outline>
</glyph>
<glyph name="B" format="1">
  <advance width="1178"/>
  <unicode hex="0042"/>
  <outline>
    <contour>
      <point x="1024" y="1173.84" type="curve" smooth="yes"/>
      <point x="1024" y="1064.42"/>
      <point x="953.721" y="943.287"/>
      <point x="807.402" y="869.181" type="curve"/>
      <point x="1018.65" y="759.71"/>
      <point x="1079" y="589.34"/>
      <point x="1079" y="397.775" type="curve" smooth="yes"/>
      <point x="1079" y="108.388"/>
      <point x="924.993" y="-17"/>
      <point x="335" y="-17" type="curve" smooth="yes"/>
      <point x="314.198" y="-17" type="line"/>
      <point x="159" y="-12.4121" type="line"/>
      <point x="159" y="78.7178" type="line" smooth="yes"/>
      <point x="159" y="499.48"/>
      <point x="154" y="907.852"/>
      <point x="154" y="1332.43" type="curve" smooth="yes"/>
      <point x="154" y="1532.06" type="line"/>
      <point x="288.048" y="1537" type="line"/>
      <point x="295" y="1537" type="line" smooth="yes"/>
      <point x="816.294" y="1537"/>
      <point x="1024" y="1392.03"/>
    </contour>
    <contour>
      <point x="791.079" y="369" type="curve" smooth="yes"/>
      <point x="791.079" y="597.763"/>
      <point x="616.45" y="735"/>
      <point x="543.922" y="735" type="curve" smooth="yes"/>
      <point x="414.643" y="735" type="line"/>
      <point x="436.59" y="186.209" type="line"/>
      <point x="719.203" y="213.896"/>
      <point x="791.079" y="297.144"/>
    </contour>
    <contour>
      <point x="403.997" y="1319" type="curve"/>
      <point x="412.606" y="898.506" type="line"/>
      <point x="608.741" y="942.426"/>
      <point x="757.079" y="1092.58"/>
      <point x="757.079" y="1185" type="curve" smooth="yes"/>
      <point x="757.079" y="1213.35"/>
      <point x="627.379" y="1319"/>
    </contour>
  </outline>
</glyph>
<glyph name="C" format="1">
  <advance width="1102"/>
  <unicode hex="0043"/>
  <outline>
    <contour>
      <point x="114" y="791.519" type="curve" smooth="yes"/>
      <point x="114" y="877.145"/>
      <point x="117" y="956.37"/>
      <point x="117" y="1021.79" type="curve" smooth="yes"/>
      <point x="117" y="1353.12"/>
      <point x="315.8" y="1566"/>
      <point x="665.073" y="1566" type="curve" smooth="yes"/>
      <point x="845.8" y="1566"/>
      <point x="950.218" y="1514.29"/>
      <point x="950.2" y="1513.54" type="curve" smooth="yes"/>
      <point x="945.888" y="1332.04" type="line"/>
      <point x="849.088" y="1350.14"/>
      <point x="767.979" y="1358.83"/>
      <point x="700.048" y="1358.83" type="curve" smooth="yes"/>
      <point x="391.772" y="1358.83"/>
      <point x="354.924" y="1179.96"/>
      <point x="354.924" y="890.664" type="curve" smooth="yes"/>
      <point x="354.924" y="865.92"/>
      <point x="355" y="840.088"/>
      <point x="355" y="813.179" type="curve" smooth="yes"/>
      <point x="355" y="553.792"/>
      <point x="384.299" y="195"/>
      <point x="675.156" y="195" type="curve" smooth="yes"/>
      <point x="847.987" y="195"/>
      <point x="929.253" y="253.473"/>
      <point x="1013.58" y="331.569" type="curve"/>
      <point x="1099.27" y="108.775" type="line"/>
      <point x="979.593" y="16.7549"/>
      <point x="879.367" y="-33"/>
      <point x="631.043" y="-33" type="curve" smooth="yes"/>
      <point x="146.047" y="-33"/>
      <point x="114" y="452.467"/>
    </contour>
  </outline>
</glyph>
<glyph name="D" format="1">
  <advance width="1368"/>
  <unicode hex="0044"/>
  <outline>
    <contour>
      <point x="355.948" y="1552" type="line"/>
      <point x="382.735" y="1552" type="line"/>
      <point x="383.906" y="1553" type="line"/>
      <point x="408.643" y="1553" type="line" smooth="yes"/>
      <point x="1254.68" y="1553"/>
      <point x="1262.88" y="1091.71"/>
      <point x="1279.87" y="866.571" type="curve" smooth="yes"/>
      <point x="1280" y="864.883" type="line"/>
      <point x="1280" y="863.189" type="line" smooth="yes"/>
      <point x="1280" y="553.622"/>
      <point x="1061.19" y="-4"/>
      <point x="313" y="-4" type="curve"/>
      <point x="156.845" y="0.730469" type="line"/>
      <point x="152" y="29.5557" type="line"/>
      <point x="152" y="31.3408" type="line"/>
      <point x="149.891" y="336.136" type="line"/>
      <point x="120.947" y="969.617" type="line"/>
      <point x="118.904" y="1178.69" type="line"/>
      <point x="120" y="1514.98" type="line"/>
      <point x="120" y="1517.51" type="line"/>
      <point x="127.396" y="1552.57" type="line"/>
    </contour>
    <contour>
      <point x="390.32" y="1376.9" type="curve"/>
      <point x="434.405" y="308.504" type="line"/>
      <point x="434.405" y="243.89" type="line"/>
      <point x="871.082" y="377.456"/>
      <point x="989.461" y="663.437"/>
      <point x="989.461" y="854" type="curve" smooth="yes"/>
      <point x="989.461" y="1047.34"/>
      <point x="951.008" y="1355.65"/>
    </contour>
  </outline>
</glyph>
<glyph name="E" format="1">
  <advance width="767"/>
  <unicode hex="0045"/>
  <outline>
    <contour>
      <point x="410" y="700.996" type="line"/>
      <point x="410" y="193.453" type="line"/>
      <point x="730" y="197.941" type="line"/>
      <point x="793.577" y="197.941" type="line"/>
      <point x="778.021" y="132.39"/>
      <point x="773.063" y="56.2413"/>
      <point x="760.197" y="-12" type="curve"/>
      <point x="341" y="-12" type="line"/>
      <point x="163.206" y="-6.60645" type="line"/>
      <point x="155" y="101.988" type="line"/>
      <point x="155" y="1533" type="line"/>
      <point x="206" y="1533" type="line"/>
      <point x="626" y="1551" type="line"/>
      <point x="675.5" y="1551" type="line"/>
      <point x="678.665" y="1475.08"/>
      <point x="679.548" y="1398.5"/>
      <point x="677.171" y="1321" type="curve"/>
      <point x="627" y="1321" type="line"/>
      <point x="384.301" y="1322.92" type="line"/>
      <point x="394" y="1067.34" type="line"/>
      <point x="393.473" y="909.137" type="line"/>
      <point x="610" y="921" type="line"/>
      <point x="658.387" y="921" type="line"/>
      <point x="663.894" y="816.358" type="line"/>
      <point x="673.208" y="699" type="line"/>
      <point x="618" y="699" type="line"/>
    </contour>
  </outline>
</glyph>
<glyph name="F" format="1">
  <advance width="697"/>
  <unicode hex="0046"/>
  <outline>
    <contour>
      <point x="187" y="168.064" type="line"/>
      <point x="108" y="1544.19" type="line"/>
      <point x="406" y="1554" type="line"/>
      <point x="521.476" y="1548.89" type="line"/>
      <point x="563.47" y="1543.94" type="line"/>
      <point x="570.802" y="1437.64" type="line"/>
      <point x="582.124" y="1338" type="line"/>
      <point x="525" y="1338" type="line"/>
      <point x="380" y="1340" type="line"/>
      <point x="357.311" y="1339.29" type="line"/>
      <point x="396.046" y="909.019" type="line"/>
      <point x="585" y="922.994" type="line"/>
      <point x="620.674" y="922.994" type="line"/>
      <point x="636.721" y="831.292" type="line"/>
      <point x="651.067" y="745.287" type="line"/>
      <point x="605.278" y="731.452" type="line"/>
      <point x="398.589" y="708.971" type="line"/>
      <point x="430.878" y="287.297" type="line"/>
      <point x="442.906" y="126.247" type="line"/>
      <point x="449.55" y="10.5586" type="line"/>
      <point x="311.402" y="-1.7207" type="line"/>
      <point x="199.611" y="-15.6055" type="line"/>
      <point x="187" y="165.513" type="line"/>
    </contour>
  </outline>
</glyph>
<glyph name="G" format="1">
  <advance width="1560"/>
  <unicode hex="0047"/>
  <outline>
    <contour>
      <point x="1233.78" y="-29.8604" type="line"/>
      <point x="1217.97" y="26.7539" type="line"/>
      <point x="1126.5" y="-7.43359"/>
      <point x="1024.92" y="-54"/>
      <point x="897.851" y="-54" type="curve" smooth="yes"/>
      <point x="130.487" y="-54"/>
      <point x="113" y="483.977"/>
      <point x="113" y="714.357" type="curve" smooth="yes"/>
      <point x="113" y="753.174"/>
      <point x="112" y="802.33"/>
      <point x="112" y="856.541" type="curve" smooth="yes"/>
      <point x="112" y="1136.62"/>
      <point x="155.214" y="1591"/>
      <point x="875.17" y="1591" type="curve" smooth="yes"/>
      <point x="878.027" y="1591" type="line"/>
      <point x="1213.29" y="1561.72" type="line"/>
      <point x="1215.03" y="1299.25" type="line"/>
      <point x="1156.87" y="1299.25" type="line" smooth="yes"/>
      <point x="1029.85" y="1299.25"/>
      <point x="928.694" y="1318.52"/>
      <point x="823.003" y="1318.52" type="curve" smooth="yes"/>
      <point x="377.191" y="1318.52"/>
      <point x="360.3" y="906.542"/>
      <point x="360.3" y="745.109" type="curve" smooth="yes"/>
      <point x="360.3" y="718.256"/>
      <point x="359.975" y="691.035"/>
      <point x="359.973" y="663.806" type="curve" smooth="yes"/>
      <point x="359.96" y="413.385"/>
      <point x="373.08" y="179.219"/>
      <point x="889.913" y="179.219" type="curve" smooth="yes"/>
      <point x="1017.03" y="179.219"/>
      <point x="1111.01" y="200.796"/>
      <point x="1185.18" y="234.601" type="curve"/>
      <point x="1151.36" y="495.569" type="line"/>
      <point x="1052.91" y="493.203"/>
      <point x="930.568" y="489.021"/>
      <point x="811.662" y="489.021" type="curve" smooth="yes"/>
      <point x="753.824" y="489.021" type="line"/>
      <point x="753.824" y="725.333" type="line"/>
      <point x="813.217" y="724.009" type="line" smooth="yes"/>
      <point x="966.031" y="720.602"/>
      <point x="1221.84" y="712.746"/>
      <point x="1324" y="712.746" type="curve" smooth="yes"/>
      <point x="1363.74" y="712.746" type="line"/>
      <point x="1404.19" y="561.927" type="line"/>
      <point x="1466.29" y="-36.75" type="line"/>
    </contour>
  </outline>
</glyph>
<glyph name="H" format="1">
  <advance width="1194"/>
  <unicode hex="0048"/>
  <outline>
    <contour>
      <point x="206.645" y="-15.8359" type="line"/>
      <point x="192.381" y="44.2139" type="line"/>
      <point x="137.438" y="260.876"/>
      <point x="98" y="1281.89"/>
      <point x="98" y="1464.97" type="curve" smooth="yes"/>
      <point x="98" y="1553.3" type="line"/>
      <point x="210.439" y="1557.11" type="line"/>
      <point x="368.45" y="1537.21" type="line"/>
      <point x="362.519" y="1488.1" type="line" smooth="yes"/>
      <point x="355.206" y="1427.52"/>
      <point x="351.562" y="1368.26"/>
      <point x="351.562" y="1309" type="curve" smooth="yes"/>
      <point x="351.562" y="1174.49"/>
      <point x="376.447" y="1031.52"/>
      <point x="376.568" y="888.988" type="curve"/>
      <point x="380.363" y="810.062" type="line"/>
      <point x="509.98" y="812.977"/>
      <point x="639.056" y="819.739"/>
      <point x="759.766" y="822.772" type="curve"/>
      <point x="755.361" y="1038.28"/>
      <point x="731.659" y="1254.78"/>
      <point x="731.659" y="1475" type="curve" smooth="yes"/>
      <point x="731.659" y="1520.4" type="line"/>
      <point x="1036.9" y="1553.17" type="line"/>
      <point x="1041" y="1355.84" type="line"/>
      <point x="1041" y="937.352"/>
      <point x="1099" y="514.932"/>
      <point x="1099" y="90.8984" type="curve" smooth="yes"/>
      <point x="1099" y="45.0391" type="line"/>
      <point x="829.189" y="34.876" type="line"/>
      <point x="829.189" y="88" type="line"/>
      <point x="812.931" y="405.728" type="line"/>
      <point x="794.74" y="700.974" type="line"/>
      <point x="661.272" y="700.796"/>
      <point x="528.929" y="699.425"/>
      <point x="409.222" y="690.354" type="curve"/>
      <point x="411.242" y="499.024"/>
      <point x="430.332" y="306.589"/>
      <point x="430.332" y="110" type="curve" smooth="yes"/>
      <point x="430.332" y="77.0244" type="line"/>
    </contour>
  </outline>
</glyph>
<glyph name="I" format="1">
  <advance width="744"/>
  <unicode hex="0049"/>
  <outline>
    <contour>
      <point x="672.396" y="112.45" type="line"/>
      <point x="674.713" y="19" type="line"/>
      <point x="83" y="19" type="line"/>
      <point x="89.5479" y="110.938" type="line"/>
      <point x="91.5498" y="202.757" type="line"/>
      <point x="265.166" y="201.754" type="line"/>
      <point x="215.481" y="1082.61" type="line"/>
      <point x="220.481" y="1278.25" type="line"/>
      <point x="217.337" y="1334.17" type="line"/>
      <point x="107.773" y="1326" type="line"/>
      <point x="83.6562" y="1512.24" type="line"/>
      <point x="465.507" y="1552.86" type="line"/>
      <point x="599.499" y="1559.73" type="line"/>
      <point x="595.628" y="1360.06" type="line"/>
      <point x="547.418" y="1358.37" type="line" smooth="yes"/>
      <point x="512.238" y="1357.13"/>
      <point x="474.99" y="1355.83"/>
      <point x="441.279" y="1354.62" type="curve"/>
      <point x="506.514" y="240.721" type="line"/>
      <point x="506.514" y="204.998" type="line"/>
      <point x="673.621" y="205.954" type="line"/>
      <point x="668.811" y="129.262" type="line"/>
    </contour>
  </outline>
</glyph>
<glyph name="J" format="1">
  <advance width="726"/>
  <unicode hex="004A"/>
  <outline>
    <contour>
      <point x="118.678" y="-126.886" type="line"/>
      <point x="59.4004" y="-20.75" type="line"/>
      <point x="59.4004" y="-19.75" type="line"/>
      <point x="149.4" y="21.2502"/>
      <point x="318" y="100.403"/>
      <point x="318" y="266.906" type="curve" smooth="yes"/>
      <point x="318" y="354.295"/>
      <point x="320" y="442.849"/>
      <point x="320" y="531.696" type="curve"/>
      <point x="300.084" y="1334.91" type="line"/>
      <point x="71.4004" y="1327" type="line"/>
      <point x="66" y="1430" type="line"/>
      <point x="62.4004" y="1550.07" type="line"/>
      <point x="702.4" y="1553" type="line"/>
      <point x="710" y="1359.25" type="line"/>
      <point x="521.817" y="1356.11" type="line"/>
      <point x="523" y="1088.23" type="line"/>
      <point x="565" y="335.346" type="line"/>
      <point x="565" y="34.2049"/>
      <point x="442.066" y="-124.103"/>
      <point x="176.4" y="-230.75" type="curve"/>
    </contour>
  </outline>
</glyph>
<glyph name="K" format="1">
  <advance width="1224"/>
  <unicode hex="004B"/>
  <outline>
    <contour>
      <point x="165" y="667.396" type="curve" smooth="yes"/>
      <point x="165" y="745.943"/>
      <point x="168.101" y="864.666"/>
      <point x="168.847" y="983.466" type="curve"/>
      <point x="166" y="983.466" type="line"/>
      <point x="166" y="1031.16" type="line" smooth="yes"/>
      <point x="166" y="1242.19"/>
      <point x="167" y="1365.66"/>
      <point x="167" y="1509" type="curve" smooth="yes"/>
      <point x="167" y="1560" type="line"/>
      <point x="406.057" y="1560" type="line"/>
      <point x="406.057" y="1323" type="line" smooth="yes"/>
      <point x="406.057" y="1239.14"/>
      <point x="402.738" y="1153.23"/>
      <point x="399.403" y="1071.74" type="curve"/>
      <point x="552.333" y="1245.22"/>
      <point x="784.604" y="1500.11"/>
      <point x="898.857" y="1582.12" type="curve" smooth="yes"/>
      <point x="935.937" y="1608.74" type="line"/>
      <point x="1069" y="1516.72" type="line"/>
      <point x="1069" y="1491.61" type="line" smooth="yes"/>
      <point x="1069" y="1402.42"/>
      <point x="691.788" y="1071.07"/>
      <point x="652.22" y="985.497" type="curve"/>
      <point x="650.584" y="982.269" type="line"/>
      <point x="762.343" y="833.106"/>
      <point x="1136.87" y="149.435"/>
      <point x="1162.93" y="103.828" type="curve" smooth="yes"/>
      <point x="1182.45" y="69.668" type="line"/>
      <point x="1004.32" y="-72.21" type="line"/>
      <point x="971.938" y="-28.249" type="line"/>
      <point x="865.667" y="97.4873"/>
      <point x="580.699" y="640.542"/>
      <point x="443.027" y="843.654" type="curve"/>
      <point x="387.87" y="787.854"/>
      <point x="384" y="788.479"/>
      <point x="384" y="700" type="curve" smooth="yes"/>
      <point x="384" y="577.559"/>
      <point x="401" y="451.559"/>
      <point x="401" y="320" type="curve" smooth="yes"/>
      <point x="401" y="3.77246" type="line"/>
      <point x="263.599" y="-6.79688" type="line"/>
      <point x="160" y="-17.5889" type="line"/>
      <point x="160" y="39" type="line" smooth="yes"/>
      <point x="160" y="249.176"/>
      <point x="165" y="458.641"/>
    </contour>
  </outline>
</glyph>
<glyph name="L" format="1">
  <advance width="740"/>
  <unicode hex="004C"/>
  <outline>
    <contour>
      <point x="425" y="216.986" type="curve" smooth="yes"/>
      <point x="425" y="204" type="line"/>
      <point x="680.427" y="204" type="line"/>
      <point x="671.745" y="99.8252" type="line"/>
      <point x="659.215" y="-4" type="line"/>
      <point x="301" y="-4" type="line"/>
      <point x="301" y="-4"/>
      <point x="180" y="-35.0244"/>
      <point x="180" y="51" type="curve" smooth="yes"/>
      <point x="180" y="91.3408"/>
      <point x="177" y="129.755"/>
      <point x="177" y="174.473" type="curve" smooth="yes"/>
      <point x="177" y="622.48"/>
      <point x="124" y="1073.01"/>
      <point x="124" y="1528" type="curve" smooth="yes"/>
      <point x="124" y="1585.66" type="line"/>
      <point x="181.229" y="1578.62" type="line" smooth="yes"/>
      <point x="229.182" y="1572.72"/>
      <point x="277.785" y="1567.12"/>
      <point x="326.632" y="1561.69" type="curve" smooth="yes"/>
      <point x="372" y="1556.65" type="line"/>
      <point x="372" y="1511" type="line" smooth="yes"/>
      <point x="372" y="1270.55"/>
      <point x="399" y="1025.92"/>
      <point x="399" y="780.973" type="curve" smooth="yes"/>
      <point x="399" y="760.792"/>
      <point x="397.714" y="737.32"/>
      <point x="394" y="716.597" type="curve"/>
      <point x="394" y="712.329" type="line" smooth="yes"/>
      <point x="394" y="552.692"/>
      <point x="425" y="387.578"/>
    </contour>
  </outline>
</glyph>
<glyph name="M" format="1">
  <advance width="1678"/>
  <unicode hex="004D"/>
  <outline>
    <contour>
      <point x="109" y="1225.38" type="line"/>
      <point x="113.684" y="1515.57" type="line"/>
      <point x="441.394" y="1559.26" type="line"/>
      <point x="826.849" y="544.869" type="line"/>
      <point x="1122.77" y="1473.09" type="line"/>
      <point x="1122.77" y="1527.08" type="line"/>
      <point x="1393.97" y="1536.84" type="line"/>
      <point x="1524.8" y="-5.51562" type="line"/>
      <point x="1284.44" y="-30.8164" type="line"/>
      <point x="1273.39" y="-23" type="line"/>
      <point x="1237.98" y="-23" type="line"/>
      <point x="1164.53" y="897.367" type="line"/>
      <point x="951.587" y="253.259" type="line"/>
      <point x="666.172" y="216.17" type="line"/>
      <point x="384.887" y="1051.31" type="line"/>
      <point x="384.285" y="977.133" type="line"/>
      <point x="441.266" y="-4" type="line"/>
      <point x="304.874" y="-4" type="line"/>
      <point x="134.209" y="44.7617" type="line"/>
      <point x="143.993" y="483.948" type="line"/>
    </contour>
  </outline>
</glyph>
<glyph name="N" format="1">
  <advance width="1514"/>
  <unicode hex="004E"/>
  <outline>
    <contour>
      <point x="1092.4" y="-62.4814" type="line"/>
      <point x="1298" y="27.6758" type="line"/>
      <point x="1298" y="687" type="line" smooth="yes"/>
      <point x="1298" y="937.657"/>
      <point x="1308" y="1191.65"/>
      <point x="1308" y="1444" type="curve" smooth="yes"/>
      <point x="1308" y="1477.91"/>
      <point x="1312" y="1519.56"/>
      <point x="1312" y="1576" type="curve" smooth="yes"/>
      <point x="1312" y="1638.88" type="line"/>
      <point x="1062.48" y="1586.37" type="line"/>
      <point x="1062.48" y="514.221" type="line"/>
      <point x="1022.81" y="491.198" type="line"/>
      <point x="777.365" y="905.468"/>
      <point x="471.967" y="1418.91"/>
      <point x="399.303" y="1571.38" type="curve"/>
      <point x="399.303" y="1602.27" type="line"/>
      <point x="67.5996" y="1602.27" type="line"/>
      <point x="82.3411" y="1528.44"/>
      <point x="79.0284" y="1281.73"/>
      <point x="80" y="1073" type="curve" smooth="yes"/>
      <point x="80" y="812" type="line" smooth="yes"/>
      <point x="80" y="687.287"/>
      <point x="84" y="370.504"/>
      <point x="84" y="177" type="curve" smooth="yes"/>
      <point x="84" y="122.656"/>
      <point x="94" y="77.0002"/>
      <point x="94" y="60" type="curve" smooth="yes"/>
      <point x="94" y="56.2398"/>
      <point x="93.5397" y="52.4589"/>
      <point x="92.6939" y="47.3843" type="curve" smooth="yes"/>
      <point x="92.6939" y="-50" type="line"/>
      <point x="377" y="-50" type="line"/>
      <point x="367" y="1012.67" type="line"/>
      <point x="408.246" y="1013.2" type="line"/>
    </contour>
  </outline>
</glyph>
<glyph name="O" format="1">
  <advance width="1415"/>
  <unicode hex="004F"/>
  <outline>
    <contour>
      <point x="1305.44" y="692.894" type="curve" smooth="yes"/>
      <point x="1305.44" y="331.955"/>
      <point x="1159.95" y="-56"/>
      <point x="788.572" y="-56" type="curve" smooth="yes"/>
      <point x="128.777" y="-56"/>
      <point x="103" y="630.341"/>
      <point x="103" y="797.923" type="curve" smooth="yes"/>
      <point x="103" y="1175.28"/>
      <point x="184.619" y="1585"/>
      <point x="581.367" y="1585" type="curve" smooth="yes"/>
      <point x="1110.21" y="1585"/>
      <point x="1305.44" y="1105.97"/>
    </contour>
    <contour>
      <point x="1014.75" y="639" type="curve" smooth="yes"/>
      <point x="1014.75" y="802.582"/>
      <point x="983.985" y="1403"/>
      <point x="598.707" y="1403" type="curve" smooth="yes"/>
      <point x="421.756" y="1403"/>
      <point x="391.862" y="993.274"/>
      <point x="391.862" y="848" type="curve" smooth="yes"/>
      <point x="391.862" y="707.564"/>
      <point x="506.018" y="152"/>
      <point x="792.623" y="152" type="curve" smooth="yes"/>
      <point x="964.107" y="152"/>
      <point x="1014.75" y="534.77"/>
    </contour>
  </outline>
</glyph>
<glyph name="P" format="1">
  <advance width="828"/>
  <unicode hex="0050"/>
  <outline>
    <contour>
      <point x="476.676" y="1141.47" type="curve" smooth="yes"/>
      <point x="476.676" y="1218.5"/>
      <point x="439.188" y="1296.06"/>
      <point x="353.629" y="1363.82" type="curve"/>
      <point x="357.78" y="1216.61"/>
      <point x="368.493" y="1068.88"/>
      <point x="373.018" y="919.803" type="curve"/>
      <point x="444.336" y="993.178"/>
      <point x="476.676" y="1070.2"/>
    </contour>
    <contour>
      <point x="132" y="789.969" type="curve" smooth="yes"/>
      <point x="134.131" y="1566" type="line"/>
      <point x="246" y="1566" type="line" smooth="yes"/>
      <point x="550.176" y="1566"/>
      <point x="715" y="1353.34"/>
      <point x="715" y="1151.22" type="curve" smooth="yes"/>
      <point x="715" y="960.557"/>
      <point x="603.59" y="782.623"/>
      <point x="382.265" y="685.59" type="curve"/>
      <point x="384.849" y="476.152"/>
      <point x="403" y="266.24"/>
      <point x="403" y="52.3438" type="curve" smooth="yes"/>
      <point x="403" y="11.876" type="line"/>
      <point x="267.67" y="-10.9326" type="line"/>
      <point x="149" y="-12.8164" type="line"/>
      <point x="149" y="39" type="line" smooth="yes"/>
      <point x="149" y="244.125"/>
      <point x="131.253" y="517.921"/>
    </contour>
  </outline>
</glyph>
<glyph name="Q" format="1">
  <advance width="1426"/>
  <unicode hex="0051"/>
  <outline>
    <contour>
      <point x="130" y="900.317" type="curve" smooth="yes"/>
      <point x="130" y="930.681"/>
      <point x="127" y="979.512"/>
      <point x="127" y="1035.44" type="curve" smooth="yes"/>
      <point x="127" y="1232.84"/>
      <point x="160.009" y="1575"/>
      <point x="614.329" y="1575" type="curve" smooth="yes"/>
      <point x="615.487" y="1575" type="line" smooth="yes"/>
      <point x="1245.51" y="1575"/>
      <point x="1284" y="1150.79"/>
      <point x="1284" y="854.717" type="curve" smooth="yes"/>
      <point x="1284" y="784.623"/>
      <point x="1283" y="718.609"/>
      <point x="1283" y="663.582" type="curve" smooth="yes"/>
      <point x="1283" y="416.492"/>
      <point x="1150.4" y="181"/>
      <point x="1005.86" y="117.283" type="curve"/>
      <point x="1182.98" y="-138" type="line"/>
      <point x="1236" y="-229" type="line"/>
      <point x="1030.4" y="-431" type="line"/>
      <point x="744.567" y="19" type="line"/>
      <point x="175.047" y="19"/>
      <point x="128.181" y="490.098"/>
      <point x="128.181" y="765.462" type="curve" smooth="yes"/>
      <point x="128.181" y="819.71"/>
      <point x="130" y="899.859"/>
    </contour>
    <contour>
      <point x="1020.48" y="864.392" type="curve"/>
      <point x="1016.31" y="1096.25"/>
      <point x="971.751" y="1372"/>
      <point x="570.324" y="1372" type="curve" smooth="yes"/>
      <point x="423.064" y="1372"/>
      <point x="379" y="960.103"/>
      <point x="379" y="857" type="curve" smooth="yes"/>
      <point x="379" y="398.801"/>
      <point x="502.4" y="234.457"/>
      <point x="667.443" y="234.457" type="curve" smooth="yes"/>
      <point x="949.069" y="234.457"/>
      <point x="1020.48" y="405.261"/>
    </contour>
  </outline>
</glyph>
<glyph name="R" format="1">
  <advance width="1108"/>
  <unicode hex="0052"/>
  <outline>
    <contour>
      <point x="383.07" y="930.838" type="curve"/>
      <point x="539.284" y="992.005"/>
      <point x="550.976" y="991.419"/>
      <point x="633.397" y="1216.71" type="curve"/>
      <point x="629.7" y="1328"/>
      <point x="585.427" y="1384.3"/>
      <point x="403.069" y="1406.4" type="curve"/>
      <point x="397.751" y="1252.28"/>
      <point x="383" y="1101.29"/>
      <point x="383" y="955" type="curve" smooth="yes"/>
      <point x="383" y="946.944"/>
      <point x="383.009" y="938.215"/>
    </contour>
    <contour>
      <point x="678.22" y="661.487" type="curve"/>
      <point x="811.578" y="506.509"/>
      <point x="988.079" y="277.083"/>
      <point x="1083.88" y="127.067" type="curve"/>
      <point x="1080.69" y="88.1309" type="line"/>
      <point x="993.688" y="-19.124" type="line"/>
      <point x="869.104" y="-28.5625" type="line"/>
      <point x="821.558" y="69.2256" type="line"/>
      <point x="461.719" y="534.881" type="line"/>
      <point x="433.508" y="527.417"/>
      <point x="426.02" y="524.528"/>
      <point x="426.02" y="518.198" type="curve" smooth="yes"/>
      <point x="426.02" y="469.567"/>
      <point x="428.301" y="391.013"/>
      <point x="428.301" y="203.628" type="curve" smooth="yes"/>
      <point x="428.301" y="147.669"/>
      <point x="426.475" y="79.1746"/>
      <point x="421.411" y="-5.35938" type="curve"/>
      <point x="268.996" y="-13.0723" type="line"/>
      <point x="143" y="-6.35254" type="line"/>
      <point x="143" y="103.646" type="line" smooth="yes"/>
      <point x="143" y="480.011"/>
      <point x="161" y="855.881"/>
      <point x="161" y="1229.38" type="curve" smooth="yes"/>
      <point x="161" y="1556.88" type="line"/>
      <point x="282" y="1557" type="line" smooth="yes"/>
      <point x="763.03" y="1557"/>
      <point x="975" y="1370.29"/>
      <point x="975" y="1189.77" type="curve" smooth="yes"/>
      <point x="975" y="1010"/>
      <point x="924.672" y="783.447"/>
    </contour>
  </outline>
</glyph>
<glyph name="S" format="1">
  <advance width="969"/>
  <unicode hex="0053"/>
  <outline>
    <contour>
      <point x="517.64" y="1355.9" type="curve" smooth="yes"/>
      <point x="459.263" y="1355.9"/>
      <point x="411.842" y="1351.68"/>
      <point x="411.842" y="1257.16" type="curve" smooth="yes"/>
      <point x="411.842" y="824.987"/>
      <point x="873.24" y="818.263"/>
      <point x="873.24" y="366.505" type="curve" smooth="yes"/>
      <point x="873.24" y="196.532"/>
      <point x="744.652" y="-45"/>
      <point x="367.251" y="-45" type="curve" smooth="yes"/>
      <point x="299.296" y="-45"/>
      <point x="193.776" y="-35.8711"/>
      <point x="114.558" y="37.6084" type="curve" smooth="yes"/>
      <point x="90" y="60.3877" type="line"/>
      <point x="154.211" y="242.318" type="line"/>
      <point x="209.745" y="200.872" type="line" smooth="yes"/>
      <point x="261.574" y="162.189"/>
      <point x="315.554" y="150"/>
      <point x="367.251" y="150" type="curve" smooth="yes"/>
      <point x="507.653" y="150"/>
      <point x="605.584" y="308.172"/>
      <point x="605.584" y="388.559" type="curve" smooth="yes"/>
      <point x="605.584" y="665.47"/>
      <point x="131.24" y="898.438"/>
      <point x="131.24" y="1245.88" type="curve" smooth="yes"/>
      <point x="131.24" y="1392.96"/>
      <point x="229.128" y="1545.12"/>
      <point x="499.485" y="1545.12" type="curve" smooth="yes"/>
      <point x="631.182" y="1545.12"/>
      <point x="710.2" y="1525.82"/>
      <point x="818.477" y="1479.23" type="curve" smooth="yes"/>
      <point x="854.886" y="1463.56" type="line"/>
      <point x="816.84" y="1277.7" type="line"/>
      <point x="763.411" y="1291.84" type="line" smooth="yes"/>
      <point x="719.238" y="1303.53"/>
      <point x="620.593" y="1355.9"/>
    </contour>
  </outline>
</glyph>
<glyph name="T" format="1">
  <advance width="915"/>
  <unicode hex="0054"/>
  <outline>
    <contour>
      <point x="655.819" y="916.668" type="curve" smooth="yes"/>
      <point x="655.819" y="767.755"/>
      <point x="658.819" y="626.716"/>
      <point x="658.819" y="475.397" type="curve" smooth="yes"/>
      <point x="658.819" y="328.941"/>
      <point x="660.819" y="183.271"/>
      <point x="660.819" y="36" type="curve" smooth="yes"/>
      <point x="660.819" y="-16.4365" type="line"/>
      <point x="557.528" y="-13.9834" type="line"/>
      <point x="347.969" y="-10.8281" type="line"/>
      <point x="347.969" y="39" type="line" smooth="yes"/>
      <point x="347.969" y="171.688"/>
      <point x="342.175" y="304.983"/>
      <point x="338.712" y="438.836" type="curve" smooth="yes"/>
      <point x="323.247" y="1036.87" type="line"/>
      <point x="329.419" y="1204.28" type="line"/>
      <point x="324.955" y="1333.46" type="line"/>
      <point x="253.132" y="1330.33"/>
      <point x="186.732" y="1324.99"/>
      <point x="116.819" y="1324.99" type="curve" smooth="yes"/>
      <point x="64.9004" y="1324.99" type="line"/>
      <point x="66.8115" y="1425.15" type="line"/>
      <point x="64.9004" y="1529.33" type="line"/>
      <point x="112.548" y="1533.24" type="line" smooth="yes"/>
      <point x="285.913" y="1547.47"/>
      <point x="713.985" y="1550"/>
      <point x="789.819" y="1550" type="curve" smooth="yes"/>
      <point x="836.612" y="1550" type="line"/>
      <point x="845.819" y="1449.94" type="line"/>
      <point x="845.819" y="1349.51" type="line"/>
      <point x="794.819" y="1349.51" type="line" smooth="yes"/>
      <point x="747.398" y="1349.51"/>
      <point x="699.299" y="1351.82"/>
      <point x="656.831" y="1352.78" type="curve"/>
      <point x="660.819" y="1164.48" type="line"/>
      <point x="660.819" y="1080.05"/>
      <point x="655.819" y="997.634"/>
    </contour>
  </outline>
</glyph>
<glyph name="U" format="1">
  <advance width="1500"/>
  <unicode hex="0055"/>
  <outline>
    <contour>
      <point x="376.924" y="1483" type="line" smooth="yes"/>
      <point x="376.924" y="939.052"/>
      <point x="316.392" y="275"/>
      <point x="882.314" y="275" type="curve" smooth="yes"/>
      <point x="1193.64" y="275"/>
      <point x="1068.82" y="816.479"/>
      <point x="1070.36" y="1084.63" type="curve"/>
      <point x="1063.4" y="1214.71"/>
      <point x="1040.4" y="1349.33"/>
      <point x="1040.4" y="1488" type="curve" smooth="yes"/>
      <point x="1040.4" y="1536.17" type="line"/>
      <point x="1334.86" y="1536.17" type="line"/>
      <point x="1368.91" y="516.434" type="line"/>
      <point x="1368.91" y="279.016"/>
      <point x="1312.1" y="-37"/>
      <point x="873.614" y="-37" type="curve" smooth="yes"/>
      <point x="152.638" y="-37"/>
      <point x="114.08" y="624.043"/>
      <point x="114.08" y="1090.62" type="curve" smooth="yes"/>
      <point x="114.08" y="1197.99"/>
      <point x="103.22" y="1302.14"/>
      <point x="103.081" y="1392.85" type="curve" smooth="yes"/>
      <point x="103.081" y="1569.82" type="line"/>
      <point x="376.924" y="1530.91" type="line"/>
    </contour>
  </outline>
</glyph>
<glyph name="V" format="1">
  <advance width="1076"/>
  <unicode hex="0056"/>
  <outline>
    <contour>
      <point x="72" y="1509.81" type="line"/>
      <point x="308.697" y="1563" type="line"/>
      <point x="368.37" y="1563" type="line"/>
      <point x="379.505" y="1522.57" type="line" smooth="yes"/>
      <point x="453.525" y="1253.79"/>
      <point x="533.54" y="905.506"/>
      <point x="590.111" y="641.104" type="curve"/>
      <point x="645.79" y="963.642"/>
      <point x="699.876" y="1298.15"/>
      <point x="739.076" y="1523.76" type="curve" smooth="yes"/>
      <point x="746.684" y="1567.55" type="line"/>
      <point x="892.097" y="1569" type="line"/>
      <point x="1005.33" y="1569" type="line"/>
      <point x="999.046" y="1512.38" type="line"/>
      <point x="980.404" y="1355.02"/>
      <point x="801.392" y="168.106"/>
      <point x="773.694" y="8.80371" type="curve"/>
      <point x="765.478" y="-41.6602" type="line"/>
      <point x="488.572" y="-6.20508" type="line"/>
      <point x="476.327" y="23.6611" type="line"/>
      <point x="321.387" y="377.269"/>
      <point x="192.667" y="1127.79"/>
      <point x="87.4492" y="1460.9" type="curve" smooth="yes"/>
    </contour>
  </outline>
</glyph>
<glyph name="W" format="1">
  <advance width="1656"/>
  <unicode hex="0057"/>
  <outline>
    <contour>
      <point x="87.1509" y="1490.76" type="line"/>
      <point x="318.012" y="1545.23" type="line"/>
      <point x="526.979" y="550.548" type="line"/>
      <point x="601.435" y="1362.72" type="line"/>
      <point x="827.057" y="1382.72" type="line"/>
      <point x="1127.41" y="361.126" type="line"/>
      <point x="1200.53" y="825.747"/>
      <point x="1296.58" y="1431.13"/>
      <point x="1304.05" y="1530.83" type="curve"/>
      <point x="1314.05" y="1619.86" type="line"/>
      <point x="1608.3" y="1619.86" type="line"/>
      <point x="1608.3" y="1548.54" type="line"/>
      <point x="1559.67" y="1240.6"/>
      <point x="1368.58" y="433.014"/>
      <point x="1331.29" y="86.6328" type="curve"/>
      <point x="1331.29" y="47.377" type="line"/>
      <point x="996.535" y="17.9805" type="line"/>
      <point x="996.535" y="60.0205" type="line"/>
      <point x="928.854" y="292.062"/>
      <point x="806.469" y="629.397"/>
      <point x="736.24" y="857.546" type="curve"/>
      <point x="647.196" y="27.4258" type="line"/>
      <point x="343.892" y="27.4258" type="line"/>
    </contour>
  </outline>
</glyph>
<glyph name="X" format="1">
  <advance width="984"/>
  <unicode hex="0058"/>
  <outline>
    <contour>
      <point x="228.972" y="-34.002" type="line"/>
      <point x="88" y="50.5928" type="line"/>
      <point x="88" y="84.9053" type="line"/>
      <point x="90.2129" y="91.7285" type="line" smooth="yes"/>
      <point x="151.242" y="279.928"/>
      <point x="301.177" y="672.637"/>
      <point x="329.707" y="751.038" type="curve"/>
      <point x="283.456" y="900.76"/>
      <point x="66.6396" y="1406.03"/>
      <point x="129.824" y="1451.87" type="curve" smooth="yes"/>
      <point x="161.8" y="1475.07" type="line"/>
      <point x="291.44" y="1543.26" type="line"/>
      <point x="312.593" y="1488.33" type="line"/>
      <point x="357.697" y="1391.95"/>
      <point x="446.309" y="1236.38"/>
      <point x="508.757" y="1114.49" type="curve"/>
      <point x="576.49" y="1243.59"/>
      <point x="658.535" y="1409.33"/>
      <point x="708.451" y="1520.84" type="curve" smooth="yes"/>
      <point x="731.413" y="1572.13" type="line"/>
      <point x="885" y="1490.06" type="line"/>
      <point x="885" y="1462.25" type="line" smooth="yes"/>
      <point x="885" y="1334.58"/>
      <point x="670.352" y="910.368"/>
      <point x="666.052" y="798.935" type="curve"/>
      <point x="675.592" y="755.446"/>
      <point x="763.036" y="489.598"/>
      <point x="774.31" y="446.87" type="curve"/>
      <point x="825.134" y="280.37" type="line"/>
      <point x="825.621" y="276.635" type="line" smooth="yes"/>
      <point x="831.991" y="227.857"/>
      <point x="867.117" y="157.173"/>
      <point x="875.376" y="108.102" type="curve" smooth="yes"/>
      <point x="881.902" y="69.3271" type="line"/>
      <point x="754.956" y="25.4209" type="line"/>
      <point x="641.492" y="7.34277" type="line"/>
      <point x="629.536" y="56.7363" type="line"/>
      <point x="611.176" y="126.037"/>
      <point x="546.701" y="283.608"/>
      <point x="484.056" y="425.655" type="curve"/>
      <point x="401.741" y="281.703"/>
      <point x="303.53" y="98.3389"/>
      <point x="255.434" y="12.9668" type="curve" smooth="yes"/>
    </contour>
  </outline>
</glyph>
<glyph name="Y" format="1">
  <advance width="788"/>
  <unicode hex="0059"/>
  <outline>
    <contour>
      <point x="89.1963" y="1507.61" type="line"/>
      <point x="210" y="1546" type="line"/>
      <point x="407.668" y="1057.76" type="line"/>
      <point x="566" y="1539" type="line"/>
      <point x="757" y="1470.47" type="line"/>
      <point x="560" y="733.653" type="line"/>
      <point x="567" y="667" type="line"/>
      <point x="567" y="637.898" type="line"/>
      <point x="566" y="218.143" type="line"/>
      <point x="565" y="122.388" type="line"/>
      <point x="565" y="79.2041" type="line"/>
      <point x="560.441" y="-19.1797" type="line"/>
      <point x="436" y="-25" type="line"/>
      <point x="328.998" y="-38.2148" type="line"/>
      <point x="330" y="76.21" type="line"/>
      <point x="330" y="634.218" type="line"/>
      <point x="279" y="776.813" type="line"/>
      <point x="24" y="1487.3" type="line"/>
    </contour>
  </outline>
</glyph>
<glyph name="Z" format="1">
  <advance width="754"/>
  <unicode hex="005A"/>
  <outline>
    <contour>
      <point x="211.646" y="1550.14" type="line"/>
      <point x="239.514" y="1544.56"/>
      <point x="270.093" y="1542.37"/>
      <point x="299.136" y="1542.37" type="curve" smooth="yes"/>
      <point x="399.843" y="1542.37"/>
      <point x="501.385" y="1568.2"/>
      <point x="602.279" y="1574" type="curve"/>
      <point x="656.279" y="1460.93" type="line"/>
      <point x="382.627" y="183.154" type="line"/>
      <point x="470.637" y="184.633"/>
      <point x="551.696" y="185.661"/>
      <point x="643.4" y="185.661" type="curve"/>
      <point x="642.279" y="78.8418" type="line"/>
      <point x="642.279" y="46.7412" type="line"/>
      <point x="640.4" y="-11" type="line"/>
      <point x="549.279" y="-11" type="line" smooth="yes"/>
      <point x="442.82" y="-11"/>
      <point x="332.382" y="-19"/>
      <point x="220.279" y="-19" type="curve"/>
      <point x="85" y="81.9473" type="line"/>
      <point x="409.062" y="1356.26" type="line"/>
      <point x="322.55" y="1353.95"/>
      <point x="223.158" y="1351.75"/>
      <point x="121.4" y="1351.75" type="curve"/>
      <point x="119.279" y="1460.66" type="line"/>
      <point x="119.279" y="1547.64" type="line"/>
    </contour>
  </outline>
</glyph>
<glyph name="bracketleft" format="1">
  <advance width="685"/>
  <unicode hex="005B"/>
  <outline>
    <contour>
      <point x="398.854" y="1426.99" type="line"/>
      <point x="295.013" y="56.864" type="line"/>
      <point x="559" y="26.8408" type="line"/>
      <point x="537.5" y="-163" type="line"/>
      <point x="78.5" y="-142.76" type="line"/>
      <point x="62.3991" y="-78.2263" type="line"/>
      <point x="50" y="-35" type="line"/>
      <point x="106" y="470" type="line"/>
      <point x="175" y="1480" type="line"/>
      <point x="250.567" y="1619.62" type="line"/>
      <point x="262.752" y="1627" type="line"/>
      <point x="685" y="1627" type="line"/>
      <point x="671" y="1511" type="line"/>
      <point x="651.5" y="1414" type="line"/>
    </contour>
  </outline>
</glyph>
<glyph name="backslash" format="1">
  <advance width="737"/>
  <unicode hex="005C"/>
  <outline>
    <contour>
      <point x="307" y="1616" type="line"/>
      <point x="859" y="41" type="line"/>
      <point x="660" y="-58.2822" type="line"/>
      <point x="660" y="-82" type="line"/>
      <point x="609" y="-82" type="line"/>
      <point x="34" y="1505" type="line"/>
      <point x="40.3067" y="1537.8" type="line"/>
    </contour>
  </outline>
</glyph>
<glyph name="bracketright" format="1">
  <advance width="665"/>
  <unicode hex="005D"/>
  <outline>
    <contour>
      <point x="296.13" y="1421.02" type="curve"/>
      <point x="257.646" y="1417.84"/>
      <point x="216.797" y="1413"/>
      <point x="173" y="1413" type="curve" smooth="yes"/>
      <point x="148.161" y="1413"/>
      <point x="26" y="1408.3"/>
      <point x="26" y="1510" type="curve" smooth="yes"/>
      <point x="26" y="1651.45"/>
      <point x="305.525" y="1628"/>
      <point x="328" y="1628" type="curve" smooth="yes"/>
      <point x="429.75" y="1628" type="line"/>
      <point x="437.15" y="1625.7" type="line" smooth="yes"/>
      <point x="464.465" y="1617.2"/>
      <point x="491.861" y="1605.87"/>
      <point x="508.999" y="1578.14" type="curve" smooth="yes"/>
      <point x="522.999" y="1555.49"/>
      <point x="523" y="1533.45"/>
      <point x="523" y="1518" type="curve" smooth="yes"/>
      <point x="523" y="1504.65"/>
      <point x="522" y="1493.78"/>
      <point x="522" y="1481" type="curve" smooth="yes"/>
      <point x="522" y="1160.93"/>
      <point x="569" y="839.933"/>
      <point x="569" y="510" type="curve" smooth="yes"/>
      <point x="569" y="336.86"/>
      <point x="622" y="157.86"/>
      <point x="622" y="-35" type="curve" smooth="yes"/>
      <point x="622" y="-50.7509"/>
      <point x="617.1" y="-66.0637"/>
      <point x="609.596" y="-78.2035" type="curve" smooth="yes"/>
      <point x="582.804" y="-121.55"/>
      <point x="534.06" y="-133.156"/>
      <point x="492.441" y="-142.404" type="curve" smooth="yes"/>
      <point x="403.733" y="-162.116"/>
      <point x="290.97" y="-163"/>
      <point x="249" y="-163" type="curve" smooth="yes"/>
      <point x="221.072" y="-163"/>
      <point x="112" y="-162.108"/>
      <point x="112" y="-68" type="curve" smooth="yes"/>
      <point x="112" y="66.7142"/>
      <point x="316.444" y="55.5924"/>
      <point x="373.737" y="56.5407" type="curve"/>
      <point x="360.443" y="510.132"/>
      <point x="299.371" y="961.256"/>
    </contour>
  </outline>
</glyph>
<glyph name="asciicircum" format="1">
  <advance width="474"/>
  <unicode hex="005E"/>
  <outline>
    <contour>
      <point x="101" y="1575" type="curve" smooth="yes"/>
      <point x="101" y="1633.49"/>
      <point x="145.045" y="1707"/>
      <point x="234" y="1707" type="curve" smooth="yes"/>
      <point x="302.247" y="1707"/>
      <point x="381" y="1663.41"/>
      <point x="381" y="1583" type="curve" smooth="yes"/>
      <point x="381" y="1511.12"/>
      <point x="316.283" y="1464"/>
      <point x="247" y="1464" type="curve" smooth="yes"/>
      <point x="196.408" y="1464"/>
      <point x="101" y="1484.41"/>
    </contour>
  </outline>
</glyph>
<glyph name="underscore" format="1">
  <advance width="1556"/>
  <unicode hex="005F"/>
  <outline>
    <contour>
      <point x="192" y="-188" type="curve" smooth="yes"/>
      <point x="137.767" y="-188"/>
      <point x="75" y="-151.68"/>
      <point x="75" y="-85" type="curve" smooth="yes"/>
      <point x="75" y="43.9481"/>
      <point x="302.387" y="28"/>
      <point x="409" y="28" type="curve" smooth="yes"/>
      <point x="553.494" y="28"/>
      <point x="712.863" y="31"/>
      <point x="773" y="31" type="curve" smooth="yes"/>
      <point x="812.26" y="31"/>
      <point x="849.944" y="31.5508"/>
      <point x="886.174" y="32.47" type="curve" smooth="yes"/>
      <point x="1066.99" y="37.0576"/>
      <point x="1211.36" y="51"/>
      <point x="1336" y="51" type="curve" smooth="yes"/>
      <point x="1386.23" y="51"/>
      <point x="1474" y="24.4666"/>
      <point x="1474" y="-58" type="curve" smooth="yes"/>
      <point x="1474" y="-67.762"/>
      <point x="1473.16" y="-77.6773"/>
      <point x="1470.72" y="-87.8255" type="curve" smooth="yes"/>
      <point x="1451.14" y="-169.494"/>
      <point x="1363.89" y="-167"/>
      <point x="1295" y="-167" type="curve" smooth="yes"/>
      <point x="1260.98" y="-167"/>
      <point x="1222.31" y="-166"/>
      <point x="1175" y="-166" type="curve" smooth="yes"/>
      <point x="1080.95" y="-166"/>
      <point x="983.957" y="-167.59"/>
      <point x="887.683" y="-169.92" type="curve" smooth="yes"/>
      <point x="626.72" y="-176.233"/>
      <point x="371.546" y="-188"/>
    </contour>
  </outline>
</glyph>
<glyph name="grave" format="1">
  <advance width="771"/>
  <unicode hex="0060"/>
  <outline>
    <contour>
      <point x="163" y="1777" type="line"/>
      <point x="675" y="1565" type="line"/>
      <point x="641" y="1474" type="line"/>
      <point x="441.313" y="1515.42"/>
      <point x="223.41" y="1551.19"/>
      <point x="48.2578" y="1608.69" type="curve"/>
      <point x="76" y="1658" type="line"/>
      <point x="140.828" y="1771.93" type="line"/>
      <point x="151.334" y="1777" type="line"/>
    </contour>
  </outline>
</glyph>
<glyph name="a" format="1">
  <advance width="1089"/>
  <unicode hex="0061"/>
  <outline>
    <contour>
      <point x="649.44" y="1363" type="line"/>
      <point x="739.585" y="1353.85" type="line"/>
      <point x="801.137" y="1348.73" type="line"/>
      <point x="967.136" y="365.054" type="line"/>
      <point x="985.041" y="207.076"/>
      <point x="1002.26" y="109.921"/>
      <point x="1009.32" y="37.6172" type="curve" smooth="yes"/>
      <point x="1014.3" y="-17.1973" type="line"/>
      <point x="751.104" y="-20.5771" type="line"/>
      <point x="722.537" y="136.489" type="line"/>
      <point x="689.244" y="297.397" type="line"/>
      <point x="518.553" y="305.171" type="line"/>
      <point x="437.884" y="312.226" type="line"/>
      <point x="324.067" y="-20.2842" type="line"/>
      <point x="80" y="38.6289" type="line"/>
      <point x="389.633" y="1082.48" type="line"/>
      <point x="474.711" y="1363" type="line"/>
    </contour>
    <contour>
      <point x="478.396" y="450.64" type="line"/>
      <point x="678.089" y="434.462" type="line"/>
      <point x="676.761" y="445.556" type="line"/>
      <point x="607.072" y="977.338" type="line"/>
    </contour>
  </outline>
</glyph>
<glyph name="b" format="1">
  <advance width="1040"/>
  <unicode hex="0062"/>
  <outline>
    <contour>
      <point x="288" y="1384" type="line"/>
      <point x="682.363" y="1384"/>
      <point x="902" y="1288.86"/>
      <point x="902" y="1005.52" type="curve" smooth="yes"/>
      <point x="902" y="891.048"/>
      <point x="823.293" y="791.157"/>
      <point x="623.806" y="709.728" type="curve"/>
      <point x="907.616" y="612.681"/>
      <point x="918" y="478.431"/>
      <point x="918" y="382.789" type="curve" smooth="yes"/>
      <point x="918" y="177.496"/>
      <point x="781.083" y="-19"/>
      <point x="260" y="-19" type="curve"/>
      <point x="146" y="-20.7764" type="line"/>
      <point x="152" y="535.675" type="line"/>
      <point x="164" y="1140.69" type="line"/>
      <point x="161.187" y="1235.44" type="line"/>
      <point x="161" y="1237.47" type="line"/>
      <point x="161" y="1382.22" type="line"/>
    </contour>
    <contour>
      <point x="412.385" y="584.756" type="curve"/>
      <point x="390.147" y="440.734"/>
      <point x="382.721" y="274.199"/>
      <point x="382.721" y="177" type="curve" smooth="yes"/>
      <point x="382.721" y="144.841" type="line"/>
      <point x="609.112" y="177.628"/>
      <point x="674" y="258.486"/>
      <point x="674" y="309" type="curve" smooth="yes"/>
      <point x="674" y="392.256"/>
      <point x="648.402" y="544.333"/>
    </contour>
    <contour>
      <point x="614.348" y="1012" type="curve" smooth="yes"/>
      <point x="614.348" y="1057.49"/>
      <point x="561.827" y="1189.08"/>
      <point x="417.362" y="1226.07" type="curve"/>
      <point x="416.188" y="818.909" type="line"/>
      <point x="602.784" y="842.667"/>
      <point x="614.348" y="946.896"/>
    </contour>
  </outline>
</glyph>
<glyph name="c" format="1">
  <advance width="951"/>
  <unicode hex="0063"/>
  <outline>
    <contour>
      <point x="109" y="507.29" type="curve" smooth="yes"/>
      <point x="109" y="536.154"/>
      <point x="108" y="575.556"/>
      <point x="108" y="619.034" type="curve" smooth="yes"/>
      <point x="108" y="662.802" type="line" smooth="yes"/>
      <point x="108" y="1010.65"/>
      <point x="149.21" y="1364"/>
      <point x="849.969" y="1364" type="curve"/>
      <point x="844" y="1265.81" type="line"/>
      <point x="844" y="1186.77" type="line"/>
      <point x="389.279" y="1064.15"/>
      <point x="376.367" y="966.126"/>
      <point x="376.367" y="523.156" type="curve" smooth="yes"/>
      <point x="376.367" y="496.485"/>
      <point x="376.414" y="468.564"/>
      <point x="376.414" y="439.312" type="curve" smooth="yes"/>
      <point x="376.414" y="311.197"/>
      <point x="424.711" y="190.643"/>
      <point x="607.45" y="190.643" type="curve" smooth="yes"/>
      <point x="681.968" y="190.643"/>
      <point x="777.215" y="226.603"/>
      <point x="850.992" y="259.359" type="curve"/>
      <point x="911.181" y="69.5186" type="line"/>
      <point x="800.902" y="19.9841"/>
      <point x="691.26" y="-16.7051"/>
      <point x="563.419" y="-16.7051" type="curve" smooth="yes"/>
      <point x="161.232" y="-16.7051"/>
      <point x="109" y="341.861"/>
    </contour>
  </outline>
</glyph>
<glyph name="d" format="1">
  <advance width="1235"/>
  <unicode hex="0064"/>
  <outline>
    <contour>
      <point x="423" y="1044" type="line" smooth="yes"/>
      <point x="423" y="746.367"/>
      <point x="420.831" y="444.738"/>
      <point x="420.821" y="142" type="curve"/>
      <point x="470.183" y="142" type="line"/>
      <point x="838.174" y="312.299"/>
      <point x="869" y="390.117"/>
      <point x="869" y="611" type="curve" smooth="yes"/>
      <point x="869" y="781.372"/>
      <point x="853.463" y="1147.37"/>
      <point x="423" y="1200.64" type="curve"/>
    </contour>
    <contour>
      <point x="263" y="-13" type="line"/>
      <point x="161.1" y="0" type="line"/>
      <point x="155" y="884.973" type="line"/>
      <point x="161.1" y="1344.08" type="line"/>
      <point x="266" y="1353" type="line"/>
      <point x="317" y="1353" type="line"/>
      <point x="317" y="1351.04" type="line"/>
      <point x="967.406" y="1331.93"/>
      <point x="1138" y="1017.27"/>
      <point x="1138" y="701.638" type="curve" smooth="yes"/>
      <point x="1138" y="597.441" type="line" smooth="yes"/>
      <point x="1138" y="354.323"/>
      <point x="1095.14" y="111.918"/>
      <point x="534.531" y="-13" type="curve"/>
    </contour>
  </outline>
</glyph>
<glyph name="e" format="1">
  <advance width="783"/>
  <unicode hex="0065"/>
  <outline>
    <contour>
      <point x="311" y="1352" type="line"/>
      <point x="371.079" y="1352"/>
      <point x="521.951" y="1339.04"/>
      <point x="641.256" y="1309.51" type="curve" smooth="yes"/>
      <point x="686.673" y="1298.26" type="line"/>
      <point x="653.487" y="1103.11" type="line"/>
      <point x="403.762" y="1137.75" type="line"/>
      <point x="405.045" y="1111.49" type="line"/>
      <point x="393.843" y="856.609" type="line"/>
      <point x="609.144" y="859.398" type="line"/>
      <point x="623.614" y="765.342" type="line"/>
      <point x="635.684" y="660.746" type="line"/>
      <point x="413.308" y="658.259" type="line"/>
      <point x="399.831" y="658.259" type="line"/>
      <point x="405.045" y="568.704" type="line"/>
      <point x="392.972" y="222.116" type="line"/>
      <point x="390.834" y="165.065" type="line"/>
      <point x="710.77" y="169.796" type="line"/>
      <point x="695.641" y="69.458" type="line"/>
      <point x="685.076" y="-27" type="line"/>
      <point x="280" y="-27" type="line"/>
      <point x="145" y="36" type="line"/>
      <point x="145" y="353.302"/>
      <point x="162" y="679.691"/>
      <point x="162" y="1007.01" type="curve" smooth="yes"/>
      <point x="162" y="1109.01"/>
      <point x="168" y="1207.52"/>
      <point x="168" y="1306" type="curve"/>
    </contour>
  </outline>
</glyph>
<glyph name="f" format="1">
  <advance width="812"/>
  <unicode hex="0066"/>
  <outline>
    <contour>
      <point x="246.524" y="-30" type="line"/>
      <point x="232.783" y="-30" type="line"/>
      <point x="168" y="-13.3018" type="line"/>
      <point x="171.867" y="67.5283" type="line"/>
      <point x="181.066" y="455.446"/>
      <point x="183.524" y="856.33"/>
      <point x="183.524" y="1251.56" type="curve" smooth="yes"/>
      <point x="183.524" y="1362.89" type="line"/>
      <point x="733.711" y="1364.11" type="line"/>
      <point x="738.604" y="1240.04" type="line"/>
      <point x="738.385" y="1151.41" type="line"/>
      <point x="681.977" y="1162.33" type="line"/>
      <point x="632.663" y="1160.42"/>
      <point x="535.326" y="1159.47"/>
      <point x="462.229" y="1159.23" type="curve"/>
      <point x="461.78" y="1036.27"/>
      <point x="458.524" y="920.337"/>
      <point x="458.524" y="807.749" type="curve" smooth="yes"/>
      <point x="458.524" y="804.252" type="line"/>
      <point x="496.337" y="804.549"/>
      <point x="539.622" y="805"/>
      <point x="586.524" y="805" type="curve" smooth="yes"/>
      <point x="638.478" y="805" type="line"/>
      <point x="636.493" y="697.83" type="line"/>
      <point x="629.237" y="589" type="line"/>
      <point x="581.524" y="589" type="line" smooth="yes"/>
      <point x="540.723" y="589"/>
      <point x="485.59" y="591.525"/>
      <point x="437.524" y="595.438" type="curve"/>
      <point x="437.524" y="-37" type="line"/>
    </contour>
  </outline>
</glyph>
<glyph name="g" format="1">
  <advance width="1292"/>
  <unicode hex="0067"/>
  <outline>
    <contour>
      <point x="100.617" y="506.279" type="curve" smooth="yes"/>
      <point x="100.617" y="552.977"/>
      <point x="102.89" y="599.562"/>
      <point x="102.89" y="647.572" type="curve" smooth="yes"/>
      <point x="102.89" y="664.842"/>
      <point x="102.848" y="682.169"/>
      <point x="102.848" y="699.501" type="curve" smooth="yes"/>
      <point x="102.848" y="1025.7"/>
      <point x="117.877" y="1354"/>
      <point x="713.65" y="1354" type="curve" smooth="yes"/>
      <point x="843.494" y="1354"/>
      <point x="949.296" y="1334.19"/>
      <point x="1056.6" y="1293.78" type="curve"/>
      <point x="1022.71" y="1123.93" type="line"/>
      <point x="934.474" y="1141.32"/>
      <point x="829.195" y="1163.3"/>
      <point x="746.059" y="1163.3" type="curve" smooth="yes"/>
      <point x="375.651" y="1163.3"/>
      <point x="365.383" y="954.93"/>
      <point x="365.383" y="639.188" type="curve" smooth="yes"/>
      <point x="365.383" y="451.531"/>
      <point x="384.366" y="193"/>
      <point x="750.31" y="193" type="curve" smooth="yes"/>
      <point x="900.64" y="193"/>
      <point x="921" y="324.29"/>
      <point x="921" y="421.604" type="curve" smooth="yes"/>
      <point x="921" y="467.358" type="line"/>
      <point x="906.055" y="468.023"/>
      <point x="890.597" y="468"/>
      <point x="871.287" y="468" type="curve" smooth="yes"/>
      <point x="854.775" y="468"/>
      <point x="725.391" y="467"/>
      <point x="703.671" y="467" type="curve" smooth="yes"/>
      <point x="638.641" y="467" type="line"/>
      <point x="638.641" y="514.991" type="line" smooth="yes"/>
      <point x="638.641" y="674.013" type="line"/>
      <point x="710.902" y="674.182"/>
      <point x="807.683" y="676.171"/>
      <point x="891.471" y="676.171" type="curve" smooth="yes"/>
      <point x="983.068" y="676.171"/>
      <point x="1063.53" y="674.951"/>
      <point x="1107.7" y="670.681" type="curve"/>
      <point x="1152.78" y="670.681" type="line"/>
      <point x="1152.78" y="416.459" type="line" smooth="yes"/>
      <point x="1152.78" y="133.381"/>
      <point x="1045.76" y="-16"/>
      <point x="691.654" y="-16" type="curve" smooth="yes"/>
      <point x="192.643" y="-16"/>
      <point x="100.617" y="333.114"/>
    </contour>
  </outline>
</glyph>
<glyph name="h" format="1">
  <advance width="1191"/>
  <unicode hex="0068"/>
  <outline>
    <contour>
      <point x="740.664" y="581" type="line" smooth="yes"/>
      <point x="617.928" y="581"/>
      <point x="504.06" y="593.189"/>
      <point x="388.124" y="598.112" type="curve"/>
      <point x="387.194" y="541.704"/>
      <point x="385.928" y="489.359"/>
      <point x="385.928" y="438.352" type="curve" smooth="yes"/>
      <point x="385.928" y="430.122" type="line"/>
      <point x="395.091" y="76.2441" type="line"/>
      <point x="395.091" y="36.1201" type="line"/>
      <point x="189.605" y="5.72168" type="line"/>
      <point x="132.468" y="-2.94629" type="line"/>
      <point x="136" y="310.407" type="line"/>
      <point x="136" y="412.774"/>
      <point x="144" y="522.807"/>
      <point x="144" y="599.984" type="curve" smooth="yes"/>
      <point x="144" y="648.867"/>
      <point x="145" y="679.93"/>
      <point x="145" y="708.576" type="curve" smooth="yes"/>
      <point x="145" y="793.887"/>
      <point x="140" y="871.007"/>
      <point x="140" y="939.952" type="curve" smooth="yes"/>
      <point x="140" y="1078.33"/>
      <point x="132" y="1219.34"/>
      <point x="132" y="1363" type="curve"/>
      <point x="272.584" y="1352.92" type="line"/>
      <point x="389.49" y="1355.39" type="line"/>
      <point x="389.49" y="1322.11" type="line" smooth="yes"/>
      <point x="389.49" y="1135.23"/>
      <point x="386.763" y="949.566"/>
      <point x="386.335" y="767.95" type="curve"/>
      <point x="473.552" y="762.993"/>
      <point x="558.639" y="763"/>
      <point x="648.67" y="763" type="curve" smooth="yes"/>
      <point x="770.384" y="763" type="line"/>
      <point x="747.209" y="1319" type="line"/>
      <point x="747.209" y="1366.82" type="line"/>
      <point x="871.352" y="1368.87" type="line"/>
      <point x="911.627" y="1372.05" type="line"/>
      <point x="1002.17" y="1374.79" type="line"/>
      <point x="1055.63" y="46.3867" type="line"/>
      <point x="946.044" y="27.3291" type="line"/>
      <point x="834.362" y="1.74219" type="line"/>
      <point x="819.097" y="317.208" type="line" smooth="yes"/>
      <point x="815.028" y="404.61"/>
      <point x="808.671" y="486.675"/>
      <point x="808.084" y="581.446" type="curve"/>
    </contour>
  </outline>
</glyph>
<glyph name="i" format="1">
  <advance width="825"/>
  <unicode hex="0069"/>
  <outline>
    <contour>
      <point x="520.029" y="23" type="line"/>
      <point x="420.029" y="22" type="line"/>
      <point x="174.029" y="18" type="line"/>
      <point x="120.198" y="18" type="line"/>
      <point x="125.029" y="107.377" type="line"/>
      <point x="125.029" y="220" type="line"/>
      <point x="285.867" y="220" type="line"/>
      <point x="287.029" y="590.456" type="line"/>
      <point x="282.029" y="1001.47" type="line"/>
      <point x="274.343" y="1152" type="line"/>
      <point x="79.7354" y="1152" type="line"/>
      <point x="74" y="1257.15" type="line"/>
      <point x="76.1035" y="1356" type="line"/>
      <point x="278.029" y="1356" type="line"/>
      <point x="321.103" y="1355.97" type="line"/>
      <point x="711.029" y="1355" type="line"/>
      <point x="711.029" y="1351.41" type="line"/>
      <point x="688.817" y="1157.07" type="line"/>
      <point x="525.042" y="1157.07" type="line"/>
      <point x="530.029" y="1041.36" type="line"/>
      <point x="535.029" y="679.402" type="line"/>
      <point x="535.029" y="220.251" type="line"/>
      <point x="534.983" y="216.548" type="line"/>
      <point x="680.039" y="216.548" type="line"/>
      <point x="678.197" y="129.6" type="line"/>
      <point x="677.605" y="24" type="line"/>
      <point x="646.029" y="24" type="line"/>
    </contour>
  </outline>
</glyph>
<glyph name="j" format="1">
  <advance width="949"/>
  <unicode hex="006A"/>
  <outline>
    <contour>
      <point x="240.364" y="-253.646" type="curve"/>
      <point x="219.678" y="-256.099" type="line"/>
      <point x="133.113" y="-96.1074" type="line"/>
      <point x="375.11" y="4.71973"/>
      <point x="421.576" y="50.1328"/>
      <point x="421.576" y="216.114" type="curve" smooth="yes"/>
      <point x="421.576" y="528.137"/>
      <point x="390.804" y="843.206"/>
      <point x="388.563" y="1158.06" type="curve"/>
      <point x="153.1" y="1191.95" type="line"/>
      <point x="155.358" y="1267.42" type="line"/>
      <point x="157.1" y="1341.78" type="line"/>
      <point x="243.358" y="1359" type="line"/>
      <point x="905.1" y="1341.41" type="line"/>
      <point x="920.358" y="1251.34" type="line"/>
      <point x="911.1" y="1165.15" type="line"/>
      <point x="797.358" y="1158.23" type="line"/>
      <point x="712.574" y="1157.67" type="line"/>
      <point x="715.092" y="904.559"/>
      <point x="738.358" y="649.97"/>
      <point x="738.358" y="392.153" type="curve" smooth="yes"/>
      <point x="738.358" y="359.712"/>
      <point x="734.358" y="330.691"/>
      <point x="734.358" y="305.626" type="curve" smooth="yes"/>
      <point x="734.358" y="251.317"/>
      <point x="738.358" y="195.938"/>
      <point x="738.358" y="140.096" type="curve" smooth="yes"/>
      <point x="738.358" y="-39.5029"/>
      <point x="680.57" y="-215.923"/>
    </contour>
  </outline>
</glyph>
<glyph name="k" format="1">
  <advance width="1117"/>
  <unicode hex="006B"/>
  <outline>
    <contour>
      <point x="673.206" y="861.145" type="line"/>
      <point x="597.889" y="790.126" type="line"/>
      <point x="1111.24" y="75.2305" type="line"/>
      <point x="904.549" y="-52.0684" type="line"/>
      <point x="874.17" y="-17.8721" type="line"/>
      <point x="427.644" y="672.172" type="line"/>
      <point x="388.74" y="616.347" type="line"/>
      <point x="388.74" y="-34.7578" type="line"/>
      <point x="272.125" y="-30.8535" type="line"/>
      <point x="137" y="-7.82129" type="line"/>
      <point x="158.319" y="657.308" type="line"/>
      <point x="189.297" y="1317" type="line"/>
      <point x="189.297" y="1375.59" type="line"/>
      <point x="329.627" y="1356.05" type="line"/>
      <point x="457.277" y="1325.85" type="line"/>
      <point x="457.277" y="1287" type="line"/>
      <point x="434.325" y="956.164" type="line"/>
      <point x="443.133" y="967.917" type="line"/>
      <point x="846.297" y="1380" type="line"/>
      <point x="865.599" y="1380" type="line"/>
      <point x="1000.3" y="1268.91" type="line"/>
      <point x="1000.3" y="1247.44" type="line"/>
      <point x="675.422" y="863.451" type="line"/>
    </contour>
  </outline>
</glyph>
<glyph name="l" format="1">
  <advance width="787"/>
  <unicode hex="006C"/>
  <outline>
    <contour>
      <point x="399.307" y="164.065" type="line"/>
      <point x="437.288" y="163.668" type="line"/>
      <point x="449.442" y="163.719" type="line" smooth="yes"/>
      <point x="494.443" y="164.096"/>
      <point x="566.004" y="166.464"/>
      <point x="638" y="166.464" type="curve" smooth="yes"/>
      <point x="693.068" y="166.464" type="line"/>
      <point x="710.461" y="75.5498" type="line"/>
      <point x="732.294" y="-36.541" type="line"/>
      <point x="660.62" y="-33.1299" type="line"/>
      <point x="161.362" y="-34.3896" type="line"/>
      <point x="155" y="74.9932" type="line"/>
      <point x="155" y="80.2314" type="line" smooth="yes"/>
      <point x="155" y="366.249"/>
      <point x="161" y="649.575"/>
      <point x="161" y="930.211" type="curve" smooth="yes"/>
      <point x="161" y="942.664" type="line"/>
      <point x="152.932" y="1063.21"/>
      <point x="153" y="1181.07"/>
      <point x="153" y="1299" type="curve" smooth="yes"/>
      <point x="153" y="1347.85" type="line"/>
      <point x="296.446" y="1354.02" type="line"/>
      <point x="394.518" y="1351.94" type="line"/>
      <point x="397" y="1113.63" type="line"/>
      <point x="397" y="961.785"/>
      <point x="405" y="809.395"/>
      <point x="405" y="654.844" type="curve" smooth="yes"/>
      <point x="405" y="642.115" type="line"/>
    </contour>
  </outline>
</glyph>
<glyph name="m" format="1">
  <advance width="1761"/>
  <unicode hex="006D"/>
  <outline>
    <contour>
      <point x="789.371" y="191.594" type="line"/>
      <point x="791.881" y="190.859" type="line"/>
      <point x="793.484" y="192.044" type="line"/>
      <point x="938.505" y="202.444" type="line"/>
      <point x="1301.38" y="841.137" type="line"/>
      <point x="1303.42" y="639" type="line"/>
      <point x="1312.42" y="283" type="line"/>
      <point x="1305.92" y="16.1855" type="line"/>
      <point x="1537.51" y="16.9463" type="line"/>
      <point x="1554.64" y="18.5039" type="line"/>
      <point x="1553.41" y="92.7334" type="line"/>
      <point x="1555.42" y="423.154" type="line"/>
      <point x="1555.42" y="459" type="line"/>
      <point x="1533.54" y="1313.6" type="line"/>
      <point x="1509.42" y="1321.24" type="line"/>
      <point x="1259.11" y="1346.65" type="line"/>
      <point x="864.785" y="516.381" type="line"/>
      <point x="511.711" y="1296.36" type="line"/>
      <point x="510.066" y="1298.56" type="line"/>
      <point x="262.868" y="1292.19" type="line"/>
      <point x="211.416" y="255" type="line"/>
      <point x="214.383" y="13.5049" type="line"/>
      <point x="443.964" y="16.1855" type="line"/>
      <point x="440.416" y="87.7363" type="line"/>
      <point x="440.416" y="89" type="line"/>
      <point x="474.478" y="877.508" type="line"/>
      <point x="472.344" y="899.227" type="line"/>
    </contour>
  </outline>
</glyph>
<glyph name="n" format="1">
  <advance width="1511"/>
  <unicode hex="006E"/>
  <outline>
    <contour>
      <point x="1334.39" y="6.02832" type="line"/>
      <point x="1090.72" y="-72.5381" type="line"/>
      <point x="1033.23" y="-8.13574" type="line" smooth="yes"/>
      <point x="893.001" y="148.961"/>
      <point x="566.846" y="680.02"/>
      <point x="386.354" y="967.405" type="curve"/>
      <point x="386.354" y="858" type="line" smooth="yes"/>
      <point x="386.354" y="748.173"/>
      <point x="409.514" y="493.106"/>
      <point x="409.514" y="328" type="curve" smooth="yes"/>
      <point x="409.514" y="-65.9756" type="line"/>
      <point x="263.021" y="-15.7393" type="line"/>
      <point x="143" y="32.5449" type="line"/>
      <point x="143" y="64.5322" type="line" smooth="yes"/>
      <point x="143" y="315.541"/>
      <point x="138" y="567.133"/>
      <point x="138" y="819.306" type="curve" smooth="yes"/>
      <point x="138" y="941.168"/>
      <point x="154" y="1060"/>
      <point x="154" y="1173.95" type="curve" smooth="yes"/>
      <point x="154" y="1291.47" type="line"/>
      <point x="397.102" y="1354.75" type="line"/>
      <point x="421.332" y="1335.83" type="line"/>
      <point x="611.641" y="1197.82"/>
      <point x="929.409" y="664.614"/>
      <point x="1108" y="375.703" type="curve"/>
      <point x="1118.22" y="1185.74" type="line"/>
      <point x="1103.36" y="1295.04" type="line"/>
      <point x="1240.25" y="1277.13" type="line"/>
      <point x="1373" y="1264.52" type="line"/>
      <point x="1373" y="1221.75" type="line"/>
      <point x="1377" y="915.157" type="line"/>
    </contour>
  </outline>
</glyph>
<glyph name="o" format="1">
  <advance width="1326"/>
  <unicode hex="006F"/>
  <outline>
    <contour>
      <point x="723.825" y="1136.04" type="curve" smooth="yes"/>
      <point x="401.582" y="1136.04"/>
      <point x="358.88" y="981.053"/>
      <point x="358.88" y="769" type="curve" smooth="yes"/>
      <point x="358.88" y="647.398"/>
      <point x="410.442" y="180"/>
      <point x="640.236" y="180" type="curve" smooth="yes"/>
      <point x="890.882" y="180"/>
      <point x="937.29" y="500.035"/>
      <point x="937.29" y="616" type="curve" smooth="yes"/>
      <point x="937.29" y="671.178"/>
      <point x="945.743" y="745.562"/>
      <point x="945.743" y="827" type="curve" smooth="yes"/>
      <point x="945.743" y="1019.35"/>
      <point x="782.632" y="1136.04"/>
    </contour>
    <contour>
      <point x="663.016" y="1360.74" type="curve" smooth="yes"/>
      <point x="961.798" y="1360.74"/>
      <point x="1193" y="1161.36"/>
      <point x="1193" y="788.714" type="curve" smooth="yes"/>
      <point x="1193" y="558.502" type="line" smooth="yes"/>
      <point x="1193" y="394.633"/>
      <point x="1175.99" y="-38"/>
      <point x="663.179" y="-38" type="curve" smooth="yes"/>
      <point x="145.064" y="-38"/>
      <point x="109" y="433.864"/>
      <point x="109" y="628.404" type="curve" smooth="yes"/>
      <point x="109" y="670.61"/>
      <point x="108" y="710.505"/>
      <point x="108" y="744.908" type="curve" smooth="yes"/>
      <point x="108" y="782.189" type="line" smooth="yes"/>
      <point x="108" y="1151.73"/>
      <point x="353.608" y="1360.74"/>
    </contour>
  </outline>
</glyph>
<glyph name="p" format="1">
  <advance width="815"/>
  <unicode hex="0070"/>
  <outline>
    <contour>
      <point x="407" y="1168.62" type="curve"/>
      <point x="407" y="1115" type="line" smooth="yes"/>
      <point x="407" y="981.554"/>
      <point x="396.582" y="850.886"/>
      <point x="393.122" y="724.512" type="curve"/>
      <point x="535.069" y="759.002"/>
      <point x="607.559" y="867.059"/>
      <point x="607.559" y="968.163" type="curve" smooth="yes"/>
      <point x="607.559" y="1064.62"/>
      <point x="541.583" y="1154.74"/>
    </contour>
    <contour>
      <point x="155" y="868.763" type="curve" smooth="yes"/>
      <point x="155" y="923.001"/>
      <point x="159.041" y="982.271"/>
      <point x="159.041" y="1040.24" type="curve" smooth="yes"/>
      <point x="159.041" y="1043.48"/>
      <point x="159.029" y="1046.72"/>
      <point x="159.002" y="1049.95" type="curve" smooth="yes"/>
      <point x="156.621" y="1338.1" type="line"/>
      <point x="260.038" y="1342" type="line"/>
      <point x="378" y="1342" type="line" smooth="yes"/>
      <point x="740.354" y="1342"/>
      <point x="839" y="1154.54"/>
      <point x="839" y="1017.86" type="curve" smooth="yes"/>
      <point x="839" y="826.774"/>
      <point x="817.598" y="669.475"/>
      <point x="394" y="594.71" type="curve"/>
      <point x="394" y="428.09" type="line" smooth="yes"/>
      <point x="394" y="286.772"/>
      <point x="385" y="149.506"/>
      <point x="385" y="12" type="curve" smooth="yes"/>
      <point x="385" y="-39" type="line"/>
      <point x="148.386" y="-39" type="line"/>
      <point x="151" y="164.253" type="line"/>
      <point x="150.978" y="327.283"/>
      <point x="145" y="487.697"/>
      <point x="145" y="651.831" type="curve" smooth="yes"/>
      <point x="145" y="713.684"/>
      <point x="155" y="807.278"/>
    </contour>
  </outline>
</glyph>
<glyph name="q" format="1">
  <advance width="1321"/>
  <unicode hex="0071"/>
  <outline>
    <contour>
      <point x="558.32" y="1147" type="curve" smooth="yes"/>
      <point x="449.775" y="1147"/>
      <point x="343" y="1058.46"/>
      <point x="343" y="699" type="curve" smooth="yes"/>
      <point x="343" y="564.205"/>
      <point x="366.835" y="65.2939"/>
      <point x="610.76" y="57.0918" type="curve"/>
      <point x="661.166" y="65.1338"/>
      <point x="713.167" y="68.7373"/>
      <point x="763.254" y="68.9932" type="curve"/>
      <point x="877.272" y="128.195"/>
      <point x="962.346" y="370.132"/>
      <point x="962.346" y="609.837" type="curve" smooth="yes"/>
      <point x="962.346" y="879.836"/>
      <point x="854.409" y="1147"/>
    </contour>
    <contour>
      <point x="653.9" y="-150.5" type="line"/>
      <point x="332.9" y="-126.5"/>
      <point x="107" y="129.575"/>
      <point x="107" y="513.803" type="curve" smooth="yes"/>
      <point x="107" y="593.488"/>
      <point x="111" y="671.8"/>
      <point x="111" y="741.729" type="curve" smooth="yes"/>
      <point x="111" y="868.326"/>
      <point x="112.146" y="1369"/>
      <point x="572.81" y="1369" type="curve" smooth="yes"/>
      <point x="579.698" y="1369" type="line"/>
      <point x="586.417" y="1367.74" type="line"/>
      <point x="1125.98" y="1234.75"/>
      <point x="1192" y="983.109"/>
      <point x="1192" y="622.258" type="curve" smooth="yes"/>
      <point x="1192" y="609.19"/>
      <point x="1192.21" y="592.466"/>
      <point x="1192.21" y="572.854" type="curve" smooth="yes"/>
      <point x="1192.21" y="401.574"/>
      <point x="1176.44" y="10.0096"/>
      <point x="869.498" y="-90.2607" type="curve"/>
      <point x="878.538" y="-149.89"/>
      <point x="911.733" y="-216.109"/>
      <point x="944.656" y="-284.709" type="curve"/>
      <point x="1014.9" y="-489.5" type="line"/>
      <point x="842.9" y="-564.5" type="line"/>
      <point x="793.276" y="-564.5"/>
      <point x="755.301" y="-458.278"/>
      <point x="713.231" y="-379.155" type="curve"/>
    </contour>
  </outline>
</glyph>
<glyph name="r" format="1">
  <advance width="906"/>
  <unicode hex="0072"/>
  <outline>
    <contour>
      <point x="811" y="1106.84" type="curve" smooth="yes"/>
      <point x="811" y="879.136"/>
      <point x="704.507" y="771.73"/>
      <point x="509.853" y="625.417" type="curve"/>
      <point x="603.254" y="477.776"/>
      <point x="805.273" y="184.203"/>
      <point x="876" y="84.7334" type="curve"/>
      <point x="784.669" y="41.709" type="line"/>
      <point x="645" y="-35" type="line"/>
      <point x="355.919" y="460.619" type="line"/>
      <point x="366.832" y="307.307"/>
      <point x="370.169" y="151.262"/>
      <point x="377" y="-3" type="curve"/>
      <point x="265" y="-5" type="line"/>
      <point x="140.896" y="-12.0342" type="line"/>
      <point x="135" y="230.187" type="line"/>
      <point x="125.913" y="552.954" type="line"/>
      <point x="122" y="1365.42" type="line"/>
      <point x="401" y="1365" type="line" smooth="yes"/>
      <point x="595.031" y="1365"/>
      <point x="811" y="1293.42"/>
    </contour>
    <contour>
      <point x="366.919" y="823.863" type="line"/>
      <point x="507.705" y="921.136"/>
      <point x="577" y="1038.2"/>
      <point x="577" y="1088" type="curve" smooth="yes"/>
      <point x="577" y="1159.68"/>
      <point x="531.943" y="1213.14"/>
      <point x="359.103" y="1230.44" type="curve"/>
    </contour>
  </outline>
</glyph>
<glyph name="s" format="1">
  <advance width="761"/>
  <unicode hex="0073"/>
  <outline>
    <contour>
      <point x="437.018" y="354.375" type="curve" smooth="yes"/>
      <point x="437.018" y="607.439"/>
      <point x="115.271" y="728.468"/>
      <point x="115.271" y="1061.94" type="curve" smooth="yes"/>
      <point x="115.271" y="1169.67"/>
      <point x="184.793" y="1381"/>
      <point x="407.271" y="1381" type="curve" smooth="yes"/>
      <point x="517.593" y="1381"/>
      <point x="582.773" y="1337.95"/>
      <point x="644.168" y="1299.99" type="curve"/>
      <point x="610.794" y="1136.76" type="line"/>
      <point x="561.181" y="1152.86"/>
      <point x="502.396" y="1172.87"/>
      <point x="452.95" y="1172.87" type="curve" smooth="yes"/>
      <point x="393.32" y="1172.87"/>
      <point x="347.271" y="1143.78"/>
      <point x="347.271" y="1043.69" type="curve" smooth="yes"/>
      <point x="347.271" y="841.663"/>
      <point x="666.271" y="717.838"/>
      <point x="666.271" y="362.971" type="curve" smooth="yes"/>
      <point x="666.271" y="213.637"/>
      <point x="581.719" y="-28"/>
      <point x="300.271" y="-28" type="curve" smooth="yes"/>
      <point x="220.836" y="-28"/>
      <point x="151.213" y="3.50066"/>
      <point x="85" y="35.4648" type="curve"/>
      <point x="127.446" y="192.517" type="line"/>
      <point x="168.257" y="187.983"/>
      <point x="201.319" y="169.218"/>
      <point x="258.738" y="169.218" type="curve" smooth="yes"/>
      <point x="367.382" y="169.218"/>
      <point x="437.018" y="224.163"/>
    </contour>
  </outline>
</glyph>
<glyph name="t" format="1">
  <advance width="928"/>
  <unicode hex="0074"/>
  <outline>
    <contour>
      <point x="350.986" y="224.562" type="curve" smooth="yes"/>
      <point x="350.986" y="248.991"/>
      <point x="356.597" y="270.451"/>
      <point x="358.43" y="287.023" type="curve"/>
      <point x="352.656" y="358.546"/>
      <point x="339.025" y="976.289"/>
      <point x="336.494" y="1167.8" type="curve"/>
      <point x="69" y="1175.29" type="line"/>
      <point x="69" y="1176.55" type="line"/>
      <point x="76.7539" y="1362.13" type="line"/>
      <point x="668.895" y="1341.01" type="line"/>
      <point x="842.962" y="1342.4" type="line"/>
      <point x="845.056" y="1247.08" type="line"/>
      <point x="833.827" y="1149.73" type="line"/>
      <point x="788" y="1149.73" type="line" smooth="yes"/>
      <point x="742.092" y="1149.73"/>
      <point x="697.82" y="1154.8"/>
      <point x="659.091" y="1158.62" type="curve"/>
      <point x="659.032" y="791.554"/>
      <point x="658" y="426.777"/>
      <point x="658" y="54.4375" type="curve" smooth="yes"/>
      <point x="658" y="7.8291" type="line"/>
      <point x="539.222" y="6" type="line"/>
      <point x="358.78" y="6" type="line"/>
      <point x="358.78" y="53.4326" type="line" smooth="yes"/>
      <point x="358.78" y="99.3223"/>
      <point x="350.986" y="173.727"/>
    </contour>
  </outline>
</glyph>
<glyph name="u" format="1">
  <advance width="1228"/>
  <unicode hex="0075"/>
  <outline>
    <contour>
      <point x="570.137" y="-31" type="curve" smooth="yes"/>
      <point x="211.137" y="-31"/>
      <point x="131" y="181.676"/>
      <point x="131" y="485.766" type="curve" smooth="yes"/>
      <point x="131" y="693.158"/>
      <point x="146" y="812.754"/>
      <point x="146" y="988.564" type="curve" smooth="yes"/>
      <point x="146" y="1093.19"/>
      <point x="145.385" y="1193.79"/>
      <point x="143" y="1290.78" type="curve"/>
      <point x="143" y="1377.6" type="line"/>
      <point x="383" y="1410.66" type="line"/>
      <point x="383" y="460" type="line" smooth="yes"/>
      <point x="383" y="332.058"/>
      <point x="407.893" y="223.287"/>
      <point x="613.458" y="221" type="curve"/>
      <point x="735.4" y="221"/>
      <point x="772.503" y="326.058"/>
      <point x="772.503" y="529.058" type="curve" smooth="yes"/>
      <point x="772.503" y="1389.12" type="line"/>
      <point x="1082" y="1389.12" type="line"/>
      <point x="1082" y="1269" type="line" smooth="yes"/>
      <point x="1082" y="1191.38"/>
      <point x="1084" y="1117.67"/>
      <point x="1084" y="1052.52" type="curve" smooth="yes"/>
      <point x="1084" y="944.862"/>
      <point x="1084.47" y="811.388"/>
      <point x="1084.47" y="660.799" type="curve" smooth="yes"/>
      <point x="1084.47" y="439.444"/>
      <point x="1077.41" y="-31"/>
    </contour>
  </outline>
</glyph>
<glyph name="v" format="1">
  <advance width="1165"/>
  <unicode hex="0076"/>
  <outline>
    <contour>
      <point x="962.77" y="1378" type="line"/>
      <point x="1109.78" y="1367.67" type="line"/>
      <point x="1109.78" y="1167.68"/>
      <point x="804.885" y="114.383"/>
      <point x="772.284" y="50.1621" type="curve"/>
      <point x="758.045" y="17.7773" type="line"/>
      <point x="437.033" y="5.00879" type="line"/>
      <point x="423.581" y="44.7334" type="line"/>
      <point x="345.326" y="258.421"/>
      <point x="212.098" y="887.633"/>
      <point x="95.2764" y="1257.1" type="curve" smooth="yes"/>
      <point x="82" y="1299.09" type="line"/>
      <point x="259.955" y="1366" type="line"/>
      <point x="309.253" y="1366" type="line"/>
      <point x="319.453" y="1328.33" type="line"/>
      <point x="319.453" y="1328.33"/>
      <point x="513.742" y="751.173"/>
      <point x="616.522" y="418.669" type="curve"/>
      <point x="706.143" y="726.579"/>
      <point x="773.152" y="1031.55"/>
      <point x="850.382" y="1337.79" type="curve"/>
      <point x="859.09" y="1378" type="line"/>
    </contour>
  </outline>
</glyph>
<glyph name="w" format="1">
  <advance width="1471"/>
  <unicode hex="0077"/>
  <outline>
    <contour>
      <point x="511.18" y="-13" type="line"/>
      <point x="260.9" y="-30" type="line"/>
      <point x="83.2657" y="1270.69" type="line"/>
      <point x="326.9" y="1329" type="line"/>
      <point x="355.362" y="1144" type="line"/>
      <point x="438.366" y="570.049" type="line"/>
      <point x="508.867" y="1209.43" type="line"/>
      <point x="639.604" y="1223.98"/>
      <point x="714.49" y="1182.67"/>
      <point x="796.728" y="1148.72" type="curve"/>
      <point x="1039.32" y="501.506" type="line"/>
      <point x="1069.88" y="933" type="line"/>
      <point x="1130.9" y="1383" type="line"/>
      <point x="1224.31" y="1387.32"/>
      <point x="1286.45" y="1360.37"/>
      <point x="1345.26" y="1330.09" type="curve"/>
      <point x="1178.9" y="-30" type="line"/>
      <point x="926.9" y="-51" type="line"/>
      <point x="675.9" y="813" type="line"/>
    </contour>
  </outline>
</glyph>
<glyph name="x" format="1">
  <advance width="800"/>
  <unicode hex="0078"/>
  <outline>
    <contour>
      <point x="438.934" y="1197.07" type="curve" smooth="yes"/>
      <point x="470.84" y="1345" type="line"/>
      <point x="733.897" y="1314.45" type="line"/>
      <point x="643.44" y="1058.84" type="line"/>
      <point x="642.163" y="1056.29" type="line" smooth="yes"/>
      <point x="607.173" y="986.55"/>
      <point x="532.274" y="734.83"/>
      <point x="528.118" y="653.168" type="curve"/>
      <point x="728.694" y="69.7256" type="line"/>
      <point x="522.9" y="-18" type="line"/>
      <point x="507.396" y="44.8314"/>
      <point x="460.014" y="144.56"/>
      <point x="425.412" y="245.023" type="curve"/>
      <point x="418.104" y="205.812"/>
      <point x="408.189" y="166.486"/>
      <point x="393.472" y="128.105" type="curve"/>
      <point x="354.899" y="-15.1611" type="line"/>
      <point x="254.973" y="-17.5308"/>
      <point x="203.146" y="28.1983"/>
      <point x="138.413" y="61.0225" type="curve"/>
      <point x="294.301" y="660.631" type="line"/>
      <point x="161.562" y="1119.56" type="line"/>
      <point x="132.979" y="1183.4" type="line"/>
      <point x="91" y="1273.96" type="line"/>
      <point x="307.051" y="1361.82" type="line"/>
      <point x="325.12" y="1309.71" type="line" smooth="yes"/>
      <point x="347.848" y="1244.16"/>
      <point x="381.61" y="1141.62"/>
      <point x="409.408" y="1051.23" type="curve"/>
      <point x="422.072" y="1110.67"/>
      <point x="432.262" y="1161.44"/>
    </contour>
  </outline>
</glyph>
<glyph name="y" format="1">
  <advance width="967"/>
  <unicode hex="0079"/>
  <outline>
    <contour>
      <point x="426.882" y="80.5957" type="line"/>
      <point x="422.824" y="120.739"/>
      <point x="421.548" y="474.443"/>
      <point x="421.113" y="565.352" type="curve"/>
      <point x="318.596" y="792.876"/>
      <point x="120.211" y="1162.67"/>
      <point x="52" y="1275.62" type="curve"/>
      <point x="272.527" y="1392.74" type="line"/>
      <point x="347.057" y="1222.58"/>
      <point x="472.942" y="1006.01"/>
      <point x="558.437" y="826.53" type="curve"/>
      <point x="608.915" y="1007.65"/>
      <point x="679.739" y="1212.28"/>
      <point x="733.431" y="1368.17" type="curve"/>
      <point x="963.891" y="1328.91" type="line"/>
      <point x="875.127" y="1017.1"/>
      <point x="731.356" y="741.511"/>
      <point x="731.356" y="453.778" type="curve"/>
      <point x="720.19" y="43.0684" type="line"/>
      <point x="560.619" y="32.709" type="line"/>
      <point x="419.916" y="33.6807" type="line"/>
    </contour>
  </outline>
</glyph>
<glyph name="z" format="1">
  <advance width="825"/>
  <unicode hex="007A"/>
  <outline>
    <contour>
      <point x="582.439" y="1357.81" type="line"/>
      <point x="725" y="1258.53" type="line"/>
      <point x="348.758" y="195.224" type="line"/>
      <point x="399" y="197.298" type="line"/>
      <point x="399" y="199.769" type="line"/>
      <point x="450" y="199.769" type="line"/>
      <point x="611.9" y="198.596" type="line"/>
      <point x="609" y="105.885" type="line"/>
      <point x="608.9" y="12" type="line"/>
      <point x="338" y="0" type="line"/>
      <point x="144" y="-4" type="line"/>
      <point x="101.9" y="51.8027" type="line"/>
      <point x="91" y="91.8291" type="line"/>
      <point x="479.134" y="1165.48" type="line"/>
      <point x="173.9" y="1157.11" type="line"/>
      <point x="199" y="1356" type="line"/>
      <point x="520" y="1359" type="line"/>
      <point x="542" y="1359" type="line"/>
    </contour>
  </outline>
</glyph>
<glyph name="braceleft" format="1">
  <advance width="787"/>
  <unicode hex="007B"/>
  <outline>
    <contour>
      <point x="577" y="-96.0345" type="curve"/>
      <point x="577" y="-100" type="line"/>
      <point x="526" y="-100" type="line" smooth="yes"/>
      <point x="284.482" y="-100"/>
      <point x="212" y="33.1231"/>
      <point x="212" y="197" type="curve" smooth="yes"/>
      <point x="212" y="619.845" type="line" smooth="yes"/>
      <point x="211.339" y="728.292"/>
      <point x="30" y="582.016"/>
      <point x="30" y="765" type="curve" smooth="yes"/>
      <point x="30" y="953.203"/>
      <point x="211" y="809.13"/>
      <point x="211" y="915" type="curve" smooth="yes"/>
      <point x="211" y="949.535"/>
      <point x="198" y="1048.56"/>
      <point x="198" y="1129" type="curve" smooth="yes"/>
      <point x="198" y="1166.27"/>
      <point x="200.013" y="1202.63"/>
      <point x="212.409" y="1232.84" type="curve"/>
      <point x="209.76" y="1247.88"/>
      <point x="208" y="1262.58"/>
      <point x="208" y="1279" type="curve" smooth="yes"/>
      <point x="208" y="1429.75"/>
      <point x="327.789" y="1545"/>
      <point x="526" y="1545" type="curve" smooth="yes"/>
      <point x="560.726" y="1545"/>
      <point x="709.118" y="1551.67"/>
      <point x="753.802" y="1469.76" type="curve" smooth="yes"/>
      <point x="759.36" y="1459.57"/>
      <point x="763" y="1446.95"/>
      <point x="763" y="1434" type="curve" smooth="yes"/>
      <point x="763" y="1351.27"/>
      <point x="674.157" y="1337"/>
      <point x="637" y="1337" type="curve" smooth="yes"/>
      <point x="577.132" y="1337"/>
      <point x="537.459" y="1356"/>
      <point x="506" y="1356" type="curve" smooth="yes"/>
      <point x="443.404" y="1356"/>
      <point x="430" y="1241.48"/>
      <point x="430" y="1156" type="curve" smooth="yes"/>
      <point x="430" y="1110.67"/>
      <point x="440" y="1026.85"/>
      <point x="440" y="946" type="curve" smooth="yes"/>
      <point x="440" y="885.406"/>
      <point x="435.216" y="821.963"/>
      <point x="406.135" y="768.655" type="curve"/>
      <point x="437.99" y="718.306"/>
      <point x="441" y="663.663"/>
      <point x="441" y="621" type="curve" smooth="yes"/>
      <point x="441" y="179" type="line" smooth="yes"/>
      <point x="441" y="118.267"/>
      <point x="444.534" y="90"/>
      <point x="506" y="90" type="curve" smooth="yes"/>
      <point x="546.315" y="90"/>
      <point x="593.988" y="113"/>
      <point x="663" y="113" type="curve" smooth="yes"/>
      <point x="746.764" y="113"/>
      <point x="737" y="16"/>
      <point x="737" y="16" type="curve"/>
      <point x="737" y="-82.4528"/>
      <point x="613.98" y="-91.9142"/>
    </contour>
  </outline>
</glyph>
<glyph name="bar" format="1">
  <advance width="457"/>
  <unicode hex="007C"/>
  <outline>
    <contour>
      <point x="122" y="114" type="curve" smooth="yes"/>
      <point x="122" y="578.686"/>
      <point x="104" y="1043.68"/>
      <point x="104" y="1510" type="curve" smooth="yes"/>
      <point x="104" y="1587.87"/>
      <point x="167.45" y="1635"/>
      <point x="247" y="1635" type="curve" smooth="yes"/>
      <point x="299.555" y="1635"/>
      <point x="336.9" y="1599.05"/>
      <point x="348.713" y="1560.83" type="curve" smooth="yes"/>
      <point x="351.422" y="1552.07"/>
      <point x="353" y="1542.77"/>
      <point x="353" y="1533" type="curve" smooth="yes"/>
      <point x="353" y="1148.79"/>
      <point x="362" y="763.796"/>
      <point x="362" y="379" type="curve" smooth="yes"/>
      <point x="362" y="-29" type="line" smooth="yes"/>
      <point x="362" y="-44.1172"/>
      <point x="357.84" y="-58.2744"/>
      <point x="351.564" y="-70.0393" type="curve" smooth="yes"/>
      <point x="329.111" y="-112.129"/>
      <point x="283.087" y="-131"/>
      <point x="240" y="-131" type="curve" smooth="yes"/>
      <point x="226.567" y="-131"/>
      <point x="213.103" y="-127.922"/>
      <point x="201.38" y="-122.342" type="curve" smooth="yes"/>
      <point x="102.206" y="-75.1328"/>
      <point x="122" y="98.2846"/>
    </contour>
  </outline>
</glyph>
<glyph name="braceright" format="1">
  <advance width="782"/>
  <unicode hex="007D"/>
  <outline>
    <contour>
      <point x="271" y="1546" type="curve" smooth="yes"/>
      <point x="509.551" y="1546"/>
      <point x="585" y="1412.47"/>
      <point x="585" y="1249" type="curve" smooth="yes"/>
      <point x="585" y="876" type="line" smooth="yes"/>
      <point x="585" y="763.809"/>
      <point x="754" y="912.899"/>
      <point x="754" y="731" type="curve" smooth="yes"/>
      <point x="754" y="542.02"/>
      <point x="586" y="690.209"/>
      <point x="586" y="581" type="curve" smooth="yes"/>
      <point x="586" y="543.116"/>
      <point x="596" y="423.684"/>
      <point x="596" y="330" type="curve" smooth="yes"/>
      <point x="596" y="286.398"/>
      <point x="596.253" y="246.118"/>
      <point x="584.089" y="213.19" type="curve"/>
      <point x="586.545" y="195.076"/>
      <point x="587" y="180.895"/>
      <point x="587" y="166" type="curve" smooth="yes"/>
      <point x="587" y="15.6177"/>
      <point x="469.296" y="-99"/>
      <point x="271" y="-99" type="curve" smooth="yes"/>
      <point x="236.274" y="-99"/>
      <point x="87.8817" y="-105.667"/>
      <point x="43.1984" y="-23.7571" type="curve" smooth="yes"/>
      <point x="37.6403" y="-13.5684"/>
      <point x="34" y="-0.950836"/>
      <point x="34" y="12" type="curve" smooth="yes"/>
      <point x="34" y="94.5288"/>
      <point x="122.372" y="109"/>
      <point x="159" y="109" type="curve" smooth="yes"/>
      <point x="219.54" y="109"/>
      <point x="259.868" y="90"/>
      <point x="290" y="90" type="curve" smooth="yes"/>
      <point x="352.892" y="90"/>
      <point x="367" y="204.165"/>
      <point x="367" y="289" type="curve" smooth="yes"/>
      <point x="367" y="339.561"/>
      <point x="354" y="438.847"/>
      <point x="354" y="534" type="curve" smooth="yes"/>
      <point x="354" y="602.375"/>
      <point x="359.528" y="672.826"/>
      <point x="390.076" y="728" type="curve"/>
      <point x="358.815" y="778.467"/>
      <point x="355" y="831.592"/>
      <point x="355" y="875" type="curve" smooth="yes"/>
      <point x="355" y="922.388"/>
      <point x="368" y="1023.99"/>
      <point x="368" y="1127" type="curve" smooth="yes"/>
      <point x="368" y="1280.79"/>
      <point x="336.792" y="1357"/>
      <point x="290" y="1357" type="curve" smooth="yes"/>
      <point x="250.962" y="1357"/>
      <point x="202.736" y="1334"/>
      <point x="133" y="1334" type="curve" smooth="yes"/>
      <point x="48.9203" y="1334"/>
      <point x="60" y="1431"/>
      <point x="60" y="1431" type="curve"/>
      <point x="60" y="1553.16"/>
      <point x="242.36" y="1546"/>
    </contour>
  </outline>
</glyph>
<glyph name="exclamdown" format="1">
  <advance width="460"/>
  <unicode hex="00A1"/>
  <outline>
    <contour>
      <point x="117" y="1038" type="curve" smooth="yes"/>
      <point x="117" y="1047.73"/>
      <point x="115" y="1071.59"/>
      <point x="115" y="1099" type="curve" smooth="yes"/>
      <point x="115" y="1140.74"/>
      <point x="102.738" y="1301"/>
      <point x="217" y="1301" type="curve" smooth="yes"/>
      <point x="338.996" y="1301"/>
      <point x="341" y="1110.48"/>
      <point x="341" y="1074" type="curve" smooth="yes"/>
      <point x="341" y="719.01"/>
      <point x="394" y="362.024"/>
      <point x="394" y="-2" type="curve" smooth="yes"/>
      <point x="394" y="-18.7861"/>
      <point x="389.297" y="-34.9748"/>
      <point x="381.394" y="-48.5947" type="curve" smooth="yes"/>
      <point x="359.923" y="-85.5953"/>
      <point x="318.735" y="-103"/>
      <point x="278" y="-103" type="curve" smooth="yes"/>
      <point x="212.655" y="-103"/>
      <point x="114" y="-63.7646"/>
      <point x="114" y="27" type="curve" smooth="yes"/>
      <point x="114" y="252.973"/>
      <point x="127" y="476.973"/>
      <point x="127" y="699" type="curve" smooth="yes"/>
      <point x="127" y="802.919"/>
      <point x="117" y="921.105"/>
    </contour>
    <contour>
      <point x="215" y="1344" type="curve" smooth="yes"/>
      <point x="138.248" y="1344"/>
      <point x="53" y="1397.66"/>
      <point x="53" y="1481" type="curve" smooth="yes"/>
      <point x="53" y="1487" type="line" smooth="yes"/>
      <point x="53" y="1559.26"/>
      <point x="109.347" y="1623"/>
      <point x="205" y="1623" type="curve" smooth="yes"/>
      <point x="272.701" y="1623"/>
      <point x="375" y="1595.82"/>
      <point x="375" y="1494" type="curve" smooth="yes"/>
      <point x="375" y="1415.78"/>
      <point x="312.674" y="1344"/>
    </contour>
  </outline>
</glyph>
<glyph name="cent" format="1">
  <advance width="929"/>
  <unicode hex="00A2"/>
  <outline>
    <contour>
      <point x="539" y="1343.14" type="line"/>
      <point x="557.174" y="1229.99"/>
      <point x="676.823" y="1305.44"/>
      <point x="777.58" y="1170.91" type="curve"/>
      <point x="792" y="1152.89" type="line"/>
      <point x="792" y="1135" type="line" smooth="yes"/>
      <point x="792" y="1120.13"/>
      <point x="788.028" y="1107.69"/>
      <point x="782.852" y="1096.95" type="curve" smooth="yes"/>
      <point x="767.356" y="1064.81"/>
      <point x="732.665" y="1033"/>
      <point x="684" y="1033" type="curve" smooth="yes"/>
      <point x="638.849" y="1033"/>
      <point x="602.399" y="1054.03"/>
      <point x="577.767" y="1078.54" type="curve"/>
      <point x="599.488" y="881.718"/>
      <point x="634.297" y="629.051"/>
      <point x="640.179" y="450.471" type="curve"/>
      <point x="683.67" y="465.133"/>
      <point x="711.818" y="497.629"/>
      <point x="751.092" y="543.973" type="curve" smooth="yes"/>
      <point x="766.37" y="562" type="line"/>
      <point x="790" y="562" type="line" smooth="yes"/>
      <point x="827.553" y="562"/>
      <point x="867.331" y="555.172"/>
      <point x="894.418" y="522.734" type="curve" smooth="yes"/>
      <point x="912.386" y="501.216"/>
      <point x="918" y="474.802"/>
      <point x="918" y="451" type="curve" smooth="yes"/>
      <point x="918" y="336.813"/>
      <point x="761.426" y="286.33"/>
      <point x="677.072" y="264.427" type="curve" smooth="yes"/>
      <point x="665.691" y="261.471"/>
      <point x="652.34" y="258.476"/>
      <point x="643" y="256.649" type="curve"/>
      <point x="643" y="222" type="line" smooth="yes"/>
      <point x="643" y="207.749"/>
      <point x="644.022" y="192.952"/>
      <point x="645.658" y="177.551" type="curve" smooth="yes"/>
      <point x="650.396" y="132.944"/>
      <point x="661" y="83.3009"/>
      <point x="661" y="28" type="curve" smooth="yes"/>
      <point x="661" y="-38.3729"/>
      <point x="597.524" y="-71"/>
      <point x="547" y="-71" type="curve" smooth="yes"/>
      <point x="525.349" y="-71" type="line"/>
      <point x="510.311" y="-55.4243" type="line" smooth="yes"/>
      <point x="485.749" y="-29.9853"/>
      <point x="455" y="2.99722"/>
      <point x="455" y="65" type="curve" smooth="yes"/>
      <point x="455" y="92.9288"/>
      <point x="449.513" y="124.639"/>
      <point x="446.101" y="161.163" type="curve" smooth="yes"/>
      <point x="444.886" y="174.165"/>
      <point x="444" y="187.775"/>
      <point x="444" y="202" type="curve" smooth="yes"/>
      <point x="444" y="223.836"/>
      <point x="441.454" y="247.28"/>
      <point x="438.131" y="272.195" type="curve"/>
      <point x="82.0141" y="369.536"/>
      <point x="66" y="562.735"/>
      <point x="66" y="777" type="curve" smooth="yes"/>
      <point x="66" y="932.806"/>
      <point x="71.3378" y="1163.84"/>
      <point x="300.443" y="1282.95" type="curve"/>
      <point x="294.293" y="1309.35"/>
      <point x="288" y="1335.78"/>
      <point x="288" y="1368" type="curve" smooth="yes"/>
      <point x="288" y="1413.71"/>
      <point x="313.831" y="1507"/>
      <point x="430" y="1507" type="curve" smooth="yes"/>
      <point x="439.659" y="1507" type="line"/>
      <point x="448.648" y="1503.47" type="line" smooth="yes"/>
      <point x="514.994" y="1477.4"/>
      <point x="539" y="1432.71"/>
      <point x="539" y="1379" type="curve" smooth="yes"/>
    </contour>
    <contour>
      <point x="348.432" y="1029.04" type="curve"/>
      <point x="309.951" y="951.943"/>
      <point x="297" y="852.7"/>
      <point x="297" y="790" type="curve" smooth="yes"/>
      <point x="297" y="702.333"/>
      <point x="312.191" y="522.82"/>
      <point x="430.808" y="471.91" type="curve"/>
      <point x="414.274" y="611.363"/>
      <point x="379.46" y="839.487"/>
    </contour>
  </outline>
</glyph>
<glyph name="sterling" format="1">
  <advance width="998"/>
  <unicode hex="00A3"/>
  <outline>
    <contour>
      <point x="287" y="382" type="curve" smooth="yes"/>
      <point x="287" y="536.414"/>
      <point x="91" y="747.66"/>
      <point x="91" y="918" type="curve" smooth="yes"/>
      <point x="91" y="928.733"/>
      <point x="92.874" y="939.186"/>
      <point x="96.2214" y="948.912" type="curve" smooth="yes"/>
      <point x="101.912" y="965.448"/>
      <point x="112.389" y="980.164"/>
      <point x="124.092" y="991.331" type="curve"/>
      <point x="116.76" y="1067.28"/>
      <point x="94" y="1147.71"/>
      <point x="94" y="1238" type="curve" smooth="yes"/>
      <point x="94" y="1310.09"/>
      <point x="96.8555" y="1683"/>
      <point x="333" y="1683" type="curve" smooth="yes"/>
      <point x="418" y="1683" type="line" smooth="yes"/>
      <point x="434.086" y="1683"/>
      <point x="449.671" y="1680.48"/>
      <point x="464.444" y="1676.24" type="curve" smooth="yes"/>
      <point x="583.773" y="1641.98"/>
      <point x="686" y="1496.26"/>
      <point x="686" y="1403" type="curve" smooth="yes"/>
      <point x="686" y="1370.11" type="line"/>
      <point x="611.465" y="1308" type="line"/>
      <point x="593" y="1308" type="line" smooth="yes"/>
      <point x="505.121" y="1308"/>
      <point x="472.827" y="1355.5"/>
      <point x="446.5" y="1392.36" type="curve" smooth="yes"/>
      <point x="437" y="1405.66" type="line"/>
      <point x="437" y="1444.4" type="line"/>
      <point x="429.84" y="1457.07"/>
      <point x="425.886" y="1466.15"/>
      <point x="421.988" y="1475.8" type="curve"/>
      <point x="420.369" y="1476.62"/>
      <point x="419.75" y="1476.91"/>
      <point x="418.739" y="1477.39" type="curve"/>
      <point x="388.658" y="1440.73"/>
      <point x="324.926" y="1291.59"/>
      <point x="324" y="1269.93" type="curve" smooth="yes"/>
      <point x="324" y="1243" type="line" smooth="yes"/>
      <point x="324" y="1169.95"/>
      <point x="325.882" y="1095.28"/>
      <point x="338.12" y="1029.75" type="curve"/>
      <point x="408.512" y="1036.47"/>
      <point x="482.79" y="1053"/>
      <point x="565" y="1053" type="curve" smooth="yes"/>
      <point x="614.677" y="1053"/>
      <point x="683" y="1022.1"/>
      <point x="683" y="952" type="curve" smooth="yes"/>
      <point x="683" y="815.304"/>
      <point x="454.634" y="836.112"/>
      <point x="391.738" y="834.832" type="curve"/>
      <point x="436.449" y="694.417"/>
      <point x="515" y="542.926"/>
      <point x="515" y="378" type="curve" smooth="yes"/>
      <point x="515" y="316.402"/>
      <point x="495.774" y="261.452"/>
      <point x="476.233" y="212.723" type="curve"/>
      <point x="564.872" y="200.352"/>
      <point x="642.824" y="180.65"/>
      <point x="720.449" y="176.717" type="curve" smooth="yes"/>
      <point x="729.662" y="176.25"/>
      <point x="738.841" y="176"/>
      <point x="748" y="176" type="curve" smooth="yes"/>
      <point x="784.934" y="176"/>
      <point x="821.101" y="180.704"/>
      <point x="851.369" y="191.855" type="curve" smooth="yes"/>
      <point x="873.319" y="199.942" type="line"/>
      <point x="983" y="139.009" type="line"/>
      <point x="983" y="109" type="line" smooth="yes"/>
      <point x="983" y="-9.6546"/>
      <point x="862.264" y="-24"/>
      <point x="795" y="-24" type="curve" smooth="yes"/>
      <point x="764.595" y="-24"/>
      <point x="735.476" y="-21.4326"/>
      <point x="710.357" y="-19.4641" type="curve" smooth="yes"/>
      <point x="692.56" y="-18.0695"/>
      <point x="676.754" y="-17"/>
      <point x="665" y="-17" type="curve" smooth="yes"/>
      <point x="571.767" y="-17" type="line"/>
      <point x="564.819" y="-14.9888" type="line" smooth="yes"/>
      <point x="534.279" y="-6.14815"/>
      <point x="482.697" y="10.3244"/>
      <point x="439.158" y="16.9874" type="curve" smooth="yes"/>
      <point x="426.377" y="18.9434"/>
      <point x="414.521" y="20"/>
      <point x="405" y="20" type="curve" smooth="yes"/>
      <point x="378.135" y="20"/>
      <point x="225.313" y="-28.2673"/>
      <point x="184.47" y="-45.1373" type="curve" smooth="yes"/>
      <point x="114" y="-74.2444" type="line"/>
      <point x="114" y="-35.5794" type="line"/>
      <point x="86.2544" y="-26.0143"/>
      <point x="39" y="-3.13086"/>
      <point x="39" y="53" type="curve" smooth="yes"/>
      <point x="39" y="215.916"/>
      <point x="287" y="240.729"/>
    </contour>
  </outline>
</glyph>
<glyph name="currency" format="1">
  <advance width="1579"/>
  <unicode hex="00A4"/>
  <outline>
    <contour>
      <point x="1247" y="819.539" type="line"/>
      <point x="1226.69" y="960.262"/>
      <point x="1102.18" y="1129"/>
      <point x="761" y="1129" type="curve" smooth="yes"/>
      <point x="733.056" y="1129"/>
      <point x="621.844" y="1091.2"/>
      <point x="568.728" y="1067.42" type="curve"/>
      <point x="568.955" y="1061.76"/>
      <point x="569" y="1060.36"/>
      <point x="569" y="1056" type="curve" smooth="yes"/>
      <point x="569" y="1042.74"/>
      <point x="567.24" y="1023.28"/>
      <point x="555.007" y="1004.14" type="curve" smooth="yes"/>
      <point x="533.004" y="969.704"/>
      <point x="491.845" y="959.375"/>
      <point x="451.203" y="958.132" type="curve"/>
      <point x="420.314" y="924.381"/>
      <point x="370.025" y="766.861"/>
      <point x="365.383" y="705.164" type="curve"/>
      <point x="369.729" y="697.507"/>
      <point x="376" y="688.13"/>
      <point x="376" y="669" type="curve" smooth="yes"/>
      <point x="376" y="627.537"/>
      <point x="365" y="601"/>
      <point x="365" y="585" type="curve" smooth="yes"/>
      <point x="365" y="540.023"/>
      <point x="368.329" y="502.001"/>
      <point x="456.101" y="468.68" type="curve" smooth="yes"/>
      <point x="489" y="456.19" type="line"/>
      <point x="489" y="421" type="line" smooth="yes"/>
      <point x="489" y="400.273"/>
      <point x="583.34" y="356"/>
      <point x="780" y="356" type="curve" smooth="yes"/>
      <point x="1177.72" y="356"/>
      <point x="1247" y="654.312"/>
      <point x="1247" y="779" type="curve" smooth="yes"/>
    </contour>
    <contour>
      <point x="1252.15" y="223.097" type="curve"/>
      <point x="1093.82" y="176.622"/>
      <point x="877.717" y="154"/>
      <point x="699" y="154" type="curve" smooth="yes"/>
      <point x="553.333" y="154"/>
      <point x="417.059" y="183.982"/>
      <point x="315.951" y="225.162" type="curve"/>
      <point x="292.154" y="190.827"/>
      <point x="251.152" y="150"/>
      <point x="184" y="150" type="curve" smooth="yes"/>
      <point x="100.911" y="150"/>
      <point x="50" y="210.228"/>
      <point x="50" y="276" type="curve" smooth="yes"/>
      <point x="50" y="346.968"/>
      <point x="122.492" y="382.396"/>
      <point x="148.295" y="402.571" type="curve"/>
      <point x="121.429" y="461.543"/>
      <point x="120" y="516.82"/>
      <point x="120" y="567" type="curve" smooth="yes"/>
      <point x="120" y="681.717"/>
      <point x="119.886" y="931.277"/>
      <point x="198.234" y="1071.04" type="curve"/>
      <point x="169.301" y="1093.38"/>
      <point x="88" y="1130.87"/>
      <point x="88" y="1209" type="curve" smooth="yes"/>
      <point x="88" y="1277.64"/>
      <point x="154.881" y="1306"/>
      <point x="201" y="1306" type="curve" smooth="yes"/>
      <point x="279.154" y="1306"/>
      <point x="328.403" y="1260.11"/>
      <point x="366.291" y="1231.54" type="curve"/>
      <point x="434.802" y="1267.53"/>
      <point x="552.213" y="1336"/>
      <point x="657" y="1336" type="curve" smooth="yes"/>
      <point x="834.11" y="1336"/>
      <point x="1006.74" y="1311.63"/>
      <point x="1157.62" y="1271.21" type="curve"/>
      <point x="1210.8" y="1308.81"/>
      <point x="1278.42" y="1402"/>
      <point x="1389" y="1402" type="curve" smooth="yes"/>
      <point x="1404.72" y="1402" type="line"/>
      <point x="1511.18" y="1329.48" type="line"/>
      <point x="1508.84" y="1299.97" type="line" smooth="yes"/>
      <point x="1502.07" y="1214.69"/>
      <point x="1408.35" y="1152.01"/>
      <point x="1386.54" y="1128.45" type="curve"/>
      <point x="1394.44" y="1038.86"/>
      <point x="1503" y="922.947"/>
      <point x="1503" y="772" type="curve" smooth="yes"/>
      <point x="1503" y="620.237"/>
      <point x="1416" y="502.238"/>
      <point x="1416" y="396" type="curve" smooth="yes"/>
      <point x="1416" y="395.342"/>
      <point x="1415.67" y="394.302"/>
      <point x="1419.09" y="389.317" type="curve" smooth="yes"/>
      <point x="1426.93" y="377.888"/>
      <point x="1516" y="332.612"/>
      <point x="1516" y="247" type="curve" smooth="yes"/>
      <point x="1516" y="238.566"/>
      <point x="1514.82" y="230.287"/>
      <point x="1512.66" y="222.48" type="curve" smooth="yes"/>
      <point x="1498.62" y="171.644"/>
      <point x="1449.04" y="144"/>
      <point x="1400" y="144" type="curve" smooth="yes"/>
      <point x="1356.65" y="144"/>
      <point x="1276.46" y="151.649"/>
    </contour>
  </outline>
</glyph>
<glyph name="yen" format="1">
  <advance width="1428"/>
  <unicode hex="00A5"/>
  <outline>
    <contour>
      <point x="609.832" y="1104.13" type="curve"/>
      <point x="417.454" y="1256.89"/>
      <point x="13" y="1576.27"/>
      <point x="13" y="1737" type="curve" smooth="yes"/>
      <point x="13" y="1816.55"/>
      <point x="99.8789" y="1825"/>
      <point x="145" y="1825" type="curve" smooth="yes"/>
      <point x="303.349" y="1825"/>
      <point x="645.511" y="1446.34"/>
      <point x="786.426" y="1297.16" type="curve"/>
      <point x="856.806" y="1454.24"/>
      <point x="1017.13" y="1883"/>
      <point x="1186" y="1883" type="curve" smooth="yes"/>
      <point x="1237.54" y="1883"/>
      <point x="1312" y="1852.82"/>
      <point x="1312" y="1778" type="curve" smooth="yes"/>
      <point x="1312" y="1756.71" type="line"/>
      <point x="1307.24" y="1746.48" type="line" smooth="yes"/>
      <point x="1208.5" y="1534.39"/>
      <point x="1083.01" y="1327.91"/>
      <point x="981.085" y="1111.75" type="curve"/>
      <point x="1048.67" y="1113.84"/>
      <point x="1131.1" y="1117"/>
      <point x="1186" y="1117" type="curve" smooth="yes"/>
      <point x="1254.12" y="1117"/>
      <point x="1402" y="1119.34"/>
      <point x="1402" y="1005" type="curve" smooth="yes"/>
      <point x="1402" y="948.435"/>
      <point x="1349.71" y="927.489"/>
      <point x="1325.89" y="920.049" type="curve"/>
      <point x="1360.8" y="904.723"/>
      <point x="1396" y="870.858"/>
      <point x="1396" y="820" type="curve" smooth="yes"/>
      <point x="1396" y="740.982"/>
      <point x="1307.31" y="729"/>
      <point x="1272" y="729" type="curve" smooth="yes"/>
      <point x="1136.17" y="729"/>
      <point x="1135.27" y="729.006"/>
      <point x="931.901" y="725.784" type="curve"/>
      <point x="924.998" y="524.437"/>
      <point x="892" y="332.262"/>
      <point x="892" y="142" type="curve" smooth="yes"/>
      <point x="892" y="132.611"/>
      <point x="894" y="114.812"/>
      <point x="894" y="94" type="curve" smooth="yes"/>
      <point x="894" y="39.0536"/>
      <point x="871.015" y="-59"/>
      <point x="753" y="-59" type="curve" smooth="yes"/>
      <point x="723.222" y="-59"/>
      <point x="575" y="-63.6028"/>
      <point x="575" y="40" type="curve" smooth="yes"/>
      <point x="575" y="63.759" type="line"/>
      <point x="586.753" y="77.5739" type="line"/>
      <point x="617.445" y="126.197"/>
      <point x="659.081" y="553.966"/>
      <point x="665.711" y="722" type="curve"/>
      <point x="274.5" y="722" type="line"/>
      <point x="200.44" y="723.452"/>
      <point x="143" y="775.005"/>
      <point x="143" y="838" type="curve" smooth="yes"/>
      <point x="143" y="875.628"/>
      <point x="169.353" y="912.686"/>
      <point x="211.581" y="924.203" type="curve" smooth="yes"/>
      <point x="218.17" y="926" type="line"/>
      <point x="225" y="926" type="line" smooth="yes"/>
      <point x="246.842" y="926" type="line"/>
      <point x="218.727" y="936.379"/>
      <point x="179" y="961.34"/>
      <point x="179" y="1010" type="curve" smooth="yes"/>
      <point x="179" y="1109.78"/>
      <point x="296.707" y="1108"/>
      <point x="336" y="1108" type="curve" smooth="yes"/>
      <point x="382.259" y="1108"/>
      <point x="455.156" y="1103"/>
      <point x="520" y="1103" type="curve" smooth="yes"/>
      <point x="550.312" y="1103"/>
      <point x="580.798" y="1103.37"/>
    </contour>
  </outline>
</glyph>
<glyph name="brokenbar" format="1">
  <advance width="442"/>
  <unicode hex="00A6"/>
  <outline>
    <contour>
      <point x="217" y="746" type="curve" smooth="yes"/>
      <point x="304.543" y="746"/>
      <point x="347" y="682.616"/>
      <point x="347" y="621" type="curve" smooth="yes"/>
      <point x="347" y="-16" type="line" smooth="yes"/>
      <point x="347" y="-40.167"/>
      <point x="342.713" y="-72.1041"/>
      <point x="318.245" y="-98.1665" type="curve" smooth="yes"/>
      <point x="296.699" y="-121.117"/>
      <point x="265.337" y="-131"/>
      <point x="233" y="-131" type="curve" smooth="yes"/>
      <point x="189.871" y="-131"/>
      <point x="146.131" y="-111.78"/>
      <point x="124.726" y="-71.5182" type="curve" smooth="yes"/>
      <point x="118.122" y="-59.0951"/>
      <point x="114" y="-44.4218"/>
      <point x="114" y="-29" type="curve" smooth="yes"/>
      <point x="114" y="644" type="line" smooth="yes"/>
      <point x="114" y="671.192"/>
      <point x="124.739" y="698.84"/>
      <point x="146.969" y="719.329" type="curve" smooth="yes"/>
      <point x="164.724" y="735.693"/>
      <point x="189.764" y="746"/>
    </contour>
    <contour>
      <point x="107" y="1020" type="curve" smooth="yes"/>
      <point x="107" y="1180.93"/>
      <point x="97" y="1345.92"/>
      <point x="97" y="1510" type="curve" smooth="yes"/>
      <point x="97" y="1587.87"/>
      <point x="160.45" y="1635"/>
      <point x="240" y="1635" type="curve" smooth="yes"/>
      <point x="257.093" y="1635"/>
      <point x="274.24" y="1629.42"/>
      <point x="287.612" y="1620.15" type="curve" smooth="yes"/>
      <point x="356.754" y="1572.25"/>
      <point x="347" y="1461.59"/>
      <point x="347" y="1393" type="curve" smooth="yes"/>
      <point x="347" y="877" type="line" smooth="yes"/>
      <point x="347" y="861.883"/>
      <point x="342.84" y="847.726"/>
      <point x="336.564" y="835.961" type="curve" smooth="yes"/>
      <point x="314.111" y="793.871"/>
      <point x="268.087" y="775"/>
      <point x="225" y="775" type="curve" smooth="yes"/>
      <point x="211.567" y="775"/>
      <point x="198.103" y="778.078"/>
      <point x="186.38" y="783.658" type="curve" smooth="yes"/>
      <point x="87.2063" y="830.867"/>
      <point x="107" y="1004.28"/>
    </contour>
  </outline>
</glyph>
<glyph name="section" format="1">
  <advance width="802"/>
  <unicode hex="00A7"/>
  <outline>
    <contour>
      <point x="750.463" y="685" type="curve"/>
      <point x="755" y="685" type="line"/>
      <point x="755" y="634" type="line" smooth="yes"/>
      <point x="755" y="563.265"/>
      <point x="719.791" y="496.88"/>
      <point x="662.927" y="451.755" type="curve"/>
      <point x="704.454" y="391.59"/>
      <point x="736" y="323.859"/>
      <point x="736" y="246" type="curve" smooth="yes"/>
      <point x="736" y="110.329"/>
      <point x="627.667" y="-50"/>
      <point x="364" y="-50" type="curve" smooth="yes"/>
      <point x="278.612" y="-50"/>
      <point x="132" y="-28.3057"/>
      <point x="132" y="82" type="curve" smooth="yes"/>
      <point x="132" y="163.864"/>
      <point x="221.83" y="172"/>
      <point x="256" y="172" type="curve" smooth="yes"/>
      <point x="287.276" y="172"/>
      <point x="322.101" y="167.28"/>
      <point x="351.876" y="160.137" type="curve"/>
      <point x="453.141" y="163.871"/>
      <point x="490" y="239.797"/>
      <point x="490" y="257" type="curve" smooth="yes"/>
      <point x="490" y="392.048"/>
      <point x="54" y="499.377"/>
      <point x="54" y="820" type="curve" smooth="yes"/>
      <point x="54" y="898.3"/>
      <point x="89.2432" y="977.809"/>
      <point x="155.955" y="1033.23" type="curve"/>
      <point x="116.222" y="1111.52"/>
      <point x="97" y="1191.64"/>
      <point x="97" y="1275" type="curve" smooth="yes"/>
      <point x="97" y="1425.51"/>
      <point x="214.788" y="1494"/>
      <point x="446" y="1494" type="curve" smooth="yes"/>
      <point x="475.234" y="1494"/>
      <point x="677" y="1507.88"/>
      <point x="677" y="1392" type="curve" smooth="yes"/>
      <point x="677" y="1266.99"/>
      <point x="316.117" y="1278.72"/>
      <point x="316.117" y="1278.72" type="curve" smooth="yes"/>
      <point x="316.066" y="1278.42"/>
      <point x="316" y="1277.92"/>
      <point x="316" y="1277" type="curve" smooth="yes"/>
      <point x="316" y="1109.2"/>
      <point x="704.1" y="1009.61"/>
    </contour>
    <contour>
      <point x="522" y="646.682" type="curve"/>
      <point x="522" y="649" type="line" smooth="yes"/>
      <point x="522" y="707.432"/>
      <point x="437.833" y="780.702"/>
      <point x="326.311" y="862.246" type="curve"/>
      <point x="296.376" y="836.909"/>
      <point x="286" y="810.695"/>
      <point x="286" y="795" type="curve" smooth="yes"/>
      <point x="286" y="746.758"/>
      <point x="362.922" y="678.82"/>
      <point x="474.138" y="606.961" type="curve"/>
      <point x="502.953" y="622.215"/>
      <point x="518.474" y="639.493"/>
    </contour>
  </outline>
</glyph>
<glyph name="dieresis" format="1">
  <advance width="992"/>
  <unicode hex="00A8"/>
  <outline>
    <contour>
      <point x="632" y="1023" type="curve" smooth="yes"/>
      <point x="632" y="1100.92"/>
      <point x="708.097" y="1149"/>
      <point x="778" y="1149" type="curve" smooth="yes"/>
      <point x="848.368" y="1149"/>
      <point x="917" y="1097.26"/>
      <point x="917" y="1025" type="curve" smooth="yes"/>
      <point x="917" y="938.682"/>
      <point x="829.071" y="903"/>
      <point x="766" y="903" type="curve" smooth="yes"/>
      <point x="696.863" y="903"/>
      <point x="632" y="952.767"/>
    </contour>
    <contour>
      <point x="214" y="903" type="curve" smooth="yes"/>
      <point x="139.573" y="903"/>
      <point x="86" y="955.241"/>
      <point x="86" y="1021" type="curve" smooth="yes"/>
      <point x="86" y="1096.56"/>
      <point x="155.007" y="1146"/>
      <point x="228" y="1146" type="curve" smooth="yes"/>
      <point x="291.822" y="1146"/>
      <point x="371" y="1106.44"/>
      <point x="371" y="1026" type="curve" smooth="yes"/>
      <point x="371" y="935.792"/>
      <point x="272.567" y="903"/>
    </contour>
  </outline>
</glyph>
<glyph name="copyright" format="1">
  <advance width="2388"/>
  <unicode hex="00A9"/>
  <outline>
    <contour>
      <point x="1215.84" y="530.812" type="curve" smooth="yes"/>
      <point x="1378.81" y="530.812"/>
      <point x="1458.31" y="584.264"/>
      <point x="1561.59" y="665.062" type="curve"/>
      <point x="1672.66" y="564.206" type="line"/>
      <point x="1570.81" y="436.684"/>
      <point x="1386" y="377.125"/>
      <point x="1235.34" y="377.125" type="curve" smooth="yes"/>
      <point x="724.97" y="377.125"/>
      <point x="675.089" y="657.004"/>
      <point x="675.089" y="834.688" type="curve" smooth="yes"/>
      <point x="675.089" y="977.303"/>
      <point x="680.852" y="1353.12"/>
      <point x="1163.59" y="1353.12" type="curve" smooth="yes"/>
      <point x="1350.24" y="1353.12"/>
      <point x="1518.31" y="1336"/>
      <point x="1668.84" y="1144.06" type="curve"/>
      <point x="1597.06" y="1029.44" type="line"/>
      <point x="1462.06" y="1135.5"/>
      <point x="1346.45" y="1186"/>
      <point x="1172.34" y="1186" type="curve" smooth="yes"/>
      <point x="1006.81" y="1186"/>
      <point x="886.339" y="1008.26"/>
      <point x="886.339" y="827.812" type="curve" smooth="yes"/>
      <point x="886.339" y="675.467"/>
      <point x="1005.22" y="530.812"/>
    </contour>
    <contour>
      <point x="1994.01" y="926.21" type="curve" smooth="yes"/>
      <point x="1994.01" y="1306"/>
      <point x="1653.97" y="1662"/>
      <point x="1055.01" y="1662" type="curve" smooth="yes"/>
      <point x="478.535" y="1662"/>
      <point x="396.014" y="1154.83"/>
      <point x="396.014" y="940" type="curve" smooth="yes"/>
      <point x="396.014" y="472.163"/>
      <point x="568.313" y="132"/>
      <point x="1084.01" y="132" type="curve" smooth="yes"/>
      <point x="1774.99" y="132"/>
      <point x="1994.01" y="486"/>
    </contour>
    <contour>
      <point x="1145.01" y="-71" type="curve" smooth="yes"/>
      <point x="413.313" y="-71"/>
      <point x="141" y="375.104"/>
      <point x="141" y="878.258" type="curve" smooth="yes"/>
      <point x="141" y="893.457"/>
      <point x="141.014" y="908.708"/>
      <point x="141.014" y="924" type="curve" smooth="yes"/>
      <point x="141.014" y="1210.17"/>
      <point x="212.576" y="1863"/>
      <point x="989.014" y="1863" type="curve" smooth="yes"/>
      <point x="1989.37" y="1863"/>
      <point x="2250.17" y="1227.03"/>
      <point x="2250.17" y="840.036" type="curve" smooth="yes"/>
      <point x="2250.17" y="808.334"/>
      <point x="2248.21" y="778.302"/>
      <point x="2244.59" y="750.428" type="curve" smooth="yes"/>
      <point x="2202.21" y="379.758"/>
      <point x="2082.17" y="-71"/>
    </contour>
  </outline>
</glyph>
<glyph name="ordfeminine" format="1">
  <advance width="1179"/>
  <unicode hex="00AA"/>
  <outline>
    <contour>
      <point x="498.669" y="934.884" type="curve"/>
      <point x="580.508" y="926.9" type="line"/>
      <point x="659.065" y="923.72"/>
      <point x="717.504" y="920.478"/>
      <point x="754.049" y="917.615" type="curve"/>
      <point x="624.718" y="1169.09" type="line"/>
      <point x="578.832" y="1078.47"/>
      <point x="536.122" y="999.066"/>
    </contour>
    <contour>
      <point x="863" y="544" type="curve" smooth="yes"/>
      <point x="863" y="591" type="line" smooth="yes"/>
      <point x="863" y="688.61"/>
      <point x="870.237" y="765.594"/>
      <point x="639.459" y="766" type="curve"/>
      <point x="516.615" y="763.918" type="line"/>
      <point x="511.457" y="764.901" type="line" smooth="yes"/>
      <point x="499.577" y="767.164"/>
      <point x="460.153" y="771.158"/>
      <point x="407.451" y="774.385" type="curve"/>
      <point x="312.156" y="629.372" type="line"/>
      <point x="288.184" y="561.967"/>
      <point x="244.457" y="452"/>
      <point x="164" y="452" type="curve" smooth="yes"/>
      <point x="101.97" y="452"/>
      <point x="97" y="517.008"/>
      <point x="97" y="539" type="curve" smooth="yes"/>
      <point x="97" y="556.89" type="line"/>
      <point x="101.384" y="562.37" type="line"/>
      <point x="118.484" y="645.553"/>
      <point x="196.368" y="1132.75"/>
      <point x="491.589" y="1402.64" type="curve" smooth="yes"/>
      <point x="506.916" y="1416.65" type="line"/>
      <point x="587.818" y="1414" type="line"/>
      <point x="621.517" y="1414.09"/>
      <point x="641.398" y="1418.54"/>
      <point x="648.287" y="1421.6" type="curve" smooth="yes"/>
      <point x="658.177" y="1426" type="line"/>
      <point x="669" y="1426" type="line" smooth="yes"/>
      <point x="712.28" y="1426"/>
      <point x="773.67" y="1418.57"/>
      <point x="797.604" y="1364.71" type="curve" smooth="yes"/>
      <point x="798.404" y="1362.91" type="line"/>
      <point x="1041.02" y="679.369" type="line"/>
      <point x="1041.67" y="676.589" type="line" smooth="yes"/>
      <point x="1055.96" y="615.333"/>
      <point x="1065" y="573.021"/>
      <point x="1065" y="539" type="curve" smooth="yes"/>
      <point x="1065" y="510.424"/>
      <point x="1056.26" y="472.784"/>
      <point x="1024.01" y="452.794" type="curve"/>
      <point x="1039.69" y="439.861"/>
      <point x="1051" y="420.823"/>
      <point x="1051" y="393" type="curve" smooth="yes"/>
      <point x="1051" y="285.85"/>
      <point x="294.047" y="324"/>
      <point x="287" y="324" type="curve" smooth="yes"/>
      <point x="251.531" y="324"/>
      <point x="170" y="334.745"/>
      <point x="170" y="410" type="curve" smooth="yes"/>
      <point x="170" y="498.535"/>
      <point x="705.955" y="487.402"/>
      <point x="884.158" y="481.254" type="curve"/>
      <point x="870.953" y="496.512"/>
      <point x="863" y="517.029"/>
    </contour>
  </outline>
</glyph>
<glyph name="guillemotleft" format="1">
  <advance width="954"/>
  <unicode hex="00AB"/>
  <outline>
    <contour>
      <point x="41" y="697" type="curve" smooth="yes"/>
      <point x="41" y="810.825"/>
      <point x="341.594" y="1374.26"/>
      <point x="460" y="1504.39" type="curve"/>
      <point x="460" y="1529.23" type="line"/>
      <point x="503.788" y="1535.49" type="line" smooth="yes"/>
      <point x="504.797" y="1535.63"/>
      <point x="515.569" y="1540"/>
      <point x="535" y="1540" type="curve" smooth="yes"/>
      <point x="573.42" y="1540"/>
      <point x="651.191" y="1527.35"/>
      <point x="667.322" y="1459.85" type="curve"/>
      <point x="693.205" y="1484.06"/>
      <point x="717.185" y="1498"/>
      <point x="738" y="1498" type="curve" smooth="yes"/>
      <point x="744.97" y="1498"/>
      <point x="749.443" y="1497"/>
      <point x="749.443" y="1497" type="curve"/>
      <point x="760.989" y="1497" type="line"/>
      <point x="861.854" y="1437.16" type="line"/>
      <point x="856.355" y="1402.92" type="line" smooth="yes"/>
      <point x="818.08" y="1164.52"/>
      <point x="533.982" y="847.557"/>
      <point x="521.428" y="711.15" type="curve"/>
      <point x="566.335" y="626.172"/>
      <point x="875.242" y="155.376"/>
      <point x="916.246" y="98.9968" type="curve" smooth="yes"/>
      <point x="926" y="85.5844" type="line"/>
      <point x="926" y="33" type="line" smooth="yes"/>
      <point x="926" y="10.0131"/>
      <point x="919.183" y="-73"/>
      <point x="838" y="-73" type="curve" smooth="yes"/>
      <point x="811.126" y="-73"/>
      <point x="780.994" y="-58.4844"/>
      <point x="748.98" y="-33.4696" type="curve"/>
      <point x="734.247" y="-104.096"/>
      <point x="643.159" y="-110"/>
      <point x="617" y="-110" type="curve" smooth="yes"/>
      <point x="496.728" y="-110"/>
      <point x="41" y="582.323"/>
    </contour>
  </outline>
</glyph>
<glyph name="logicalnot" format="1">
  <advance width="1687"/>
  <unicode hex="00AC"/>
  <outline>
    <contour>
      <point x="1348" y="638.519" type="curve" smooth="yes"/>
      <point x="1348" y="659" type="line" smooth="yes"/>
      <point x="1348" y="666.212"/>
      <point x="1347.53" y="671.767"/>
      <point x="1347.11" y="674.502" type="curve"/>
      <point x="1335.51" y="678.466"/>
      <point x="1296.8" y="682"/>
      <point x="1230" y="682" type="curve" smooth="yes"/>
      <point x="1121.85" y="682"/>
      <point x="1014.17" y="680.342"/>
      <point x="909.806" y="677.934" type="curve" smooth="yes"/>
      <point x="634.741" y="671.588"/>
      <point x="383.203" y="660"/>
      <point x="205" y="660" type="curve" smooth="yes"/>
      <point x="150.767" y="660"/>
      <point x="88" y="696.32"/>
      <point x="88" y="763" type="curve" smooth="yes"/>
      <point x="88" y="897.157"/>
      <point x="312.204" y="886"/>
      <point x="422" y="886" type="curve" smooth="yes"/>
      <point x="568.181" y="886"/>
      <point x="729.651" y="879"/>
      <point x="786" y="879" type="curve" smooth="yes"/>
      <point x="826.36" y="879"/>
      <point x="866.654" y="879.582"/>
      <point x="906.732" y="880.551" type="curve" smooth="yes"/>
      <point x="1100.2" y="885.224"/>
      <point x="1288.39" y="899"/>
      <point x="1456" y="899" type="curve" smooth="yes"/>
      <point x="1502.97" y="899"/>
      <point x="1562.46" y="880.436"/>
      <point x="1586.3" y="826.308" type="curve" smooth="yes"/>
      <point x="1591.1" y="815.408"/>
      <point x="1594" y="802.912"/>
      <point x="1594" y="790" type="curve" smooth="yes"/>
      <point x="1594" y="759.433"/>
      <point x="1584.41" y="729.99"/>
      <point x="1569.16" y="704.596" type="curve"/>
      <point x="1570.32" y="651.459"/>
      <point x="1577.54" y="602.725"/>
      <point x="1596.96" y="556.898" type="curve" smooth="yes"/>
      <point x="1603.24" y="542.065" type="line"/>
      <point x="1599.87" y="526.314" type="line" smooth="yes"/>
      <point x="1590.86" y="484.287"/>
      <point x="1553.58" y="424"/>
      <point x="1479" y="424" type="curve" smooth="yes"/>
      <point x="1361.81" y="424"/>
      <point x="1346" y="537.189"/>
      <point x="1346" y="592" type="curve" smooth="yes"/>
      <point x="1346" y="609.422"/>
      <point x="1347.24" y="627.01"/>
    </contour>
  </outline>
</glyph>
<glyph name="uni00AD" format="1">
  <advance width="855"/>
  <unicode hex="00AD"/>
  <outline>
    <contour>
      <point x="772" y="739" type="curve" smooth="yes"/>
      <point x="772" y="579.636"/>
      <point x="268.258" y="605"/>
      <point x="233" y="605" type="curve" smooth="yes"/>
      <point x="181.157" y="605"/>
      <point x="95" y="632.703"/>
      <point x="95" y="715" type="curve" smooth="yes"/>
      <point x="95" y="873.436"/>
      <point x="598.562" y="849"/>
      <point x="632" y="849" type="curve" smooth="yes"/>
      <point x="682.061" y="849"/>
      <point x="772" y="823.681"/>
    </contour>
  </outline>
</glyph>
<glyph name="registered" format="1">
  <advance width="2236"/>
  <unicode hex="00AE"/>
  <outline>
    <contour>
      <point x="1087" y="-241" type="curve" smooth="yes"/>
      <point x="308.896" y="-241"/>
      <point x="264.938" y="371.004"/>
      <point x="143" y="757.139" type="curve"/>
      <point x="143" y="765" type="line" smooth="yes"/>
      <point x="143" y="809.272"/>
      <point x="142" y="865.488"/>
      <point x="142" y="930" type="curve" smooth="yes"/>
      <point x="142" y="1307.65"/>
      <point x="195.912" y="1989"/>
      <point x="1116" y="1989" type="curve" smooth="yes"/>
      <point x="1117" y="1989" type="line" smooth="yes"/>
      <point x="2027.09" y="1989"/>
      <point x="2094" y="1222.76"/>
      <point x="2094" y="807" type="curve" smooth="yes"/>
      <point x="2094" y="470.154"/>
      <point x="2083.95" y="-241"/>
    </contour>
    <contour>
      <point x="1198.2" y="910" type="curve"/>
      <point x="1314.2" y="750"/>
      <point x="1564.68" y="427.828"/>
      <point x="1632" y="325.329" type="curve"/>
      <point x="1632" y="316.444" type="line"/>
      <point x="1638.44" y="306.671"/>
      <point x="1671.09" y="285.602"/>
      <point x="1696.35" y="249" type="curve"/>
      <point x="1717.97" y="249" type="line"/>
      <point x="1829.43" y="392.456"/>
      <point x="1844" y="565.665"/>
      <point x="1844" y="706" type="curve" smooth="yes"/>
      <point x="1844" y="1019.81"/>
      <point x="1809.37" y="1336.26"/>
      <point x="1589.48" y="1624.04" type="curve" smooth="yes"/>
      <point x="1579" y="1637.75" type="line"/>
      <point x="1579" y="1642.19" type="line"/>
      <point x="1486.95" y="1696.59"/>
      <point x="1264.18" y="1781"/>
      <point x="1150" y="1781" type="curve" smooth="yes"/>
      <point x="440.731" y="1781"/>
      <point x="400" y="1239.42"/>
      <point x="400" y="954" type="curve" smooth="yes"/>
      <point x="400" y="953" type="line" smooth="yes"/>
      <point x="400" y="429.257"/>
      <point x="528.041" y="-11.1016"/>
      <point x="1032.19" y="-11.1016" type="curve" smooth="yes"/>
      <point x="1167.82" y="-11.1016"/>
      <point x="1330.66" y="20.7686"/>
      <point x="1525.56" y="91.459" type="curve"/>
      <point x="960.549" y="862" type="line"/>
      <point x="915.521" y="862" type="line"/>
      <point x="911" y="795" type="line"/>
      <point x="960" y="209" type="line"/>
      <point x="826" y="191" type="line"/>
      <point x="685.025" y="176.104" type="line"/>
      <point x="680" y="207" type="line"/>
      <point x="654" y="473.922" type="line"/>
      <point x="654" y="1582" type="line"/>
      <point x="1012" y="1590" type="line"/>
      <point x="1472.73" y="1590"/>
      <point x="1561" y="1411.69"/>
      <point x="1561" y="1269" type="curve" smooth="yes"/>
      <point x="1561" y="1010.27"/>
      <point x="1293.93" y="941.459"/>
    </contour>
    <contour>
      <point x="1028" y="1473" type="curve"/>
      <point x="875" y="1474" type="line"/>
      <point x="885" y="1262" type="line"/>
      <point x="900.818" y="1058.59" type="line"/>
      <point x="1154.96" y="1071.05"/>
      <point x="1267" y="1184.58"/>
      <point x="1267" y="1289.69" type="curve" smooth="yes"/>
      <point x="1267" y="1382.02"/>
      <point x="1180.54" y="1467.86"/>
    </contour>
  </outline>
</glyph>
<glyph name="macron" format="1">
  <advance width="860"/>
  <unicode hex="00AF"/>
  <outline>
    <contour>
      <point x="774" y="749" type="line"/>
      <point x="770" y="653" type="line"/>
      <point x="444" y="649" type="line"/>
      <point x="97" y="676.39" type="line"/>
      <point x="98" y="771.39" type="line"/>
      <point x="452" y="775.39" type="line"/>
    </contour>
  </outline>
</glyph>
<glyph name="degree" format="1">
  <advance width="1255"/>
  <unicode hex="00B0"/>
  <outline>
    <contour>
      <point x="585" y="850" type="curve" smooth="yes"/>
      <point x="584" y="850" type="line" smooth="yes"/>
      <point x="331.297" y="850"/>
      <point x="289.341" y="744.081"/>
      <point x="288.023" y="667.933" type="curve"/>
      <point x="303.348" y="640.385"/>
      <point x="427.633" y="566"/>
      <point x="584" y="566" type="curve" smooth="yes"/>
      <point x="958.903" y="566"/>
      <point x="991" y="710.075"/>
      <point x="991" y="729" type="curve" smooth="yes"/>
      <point x="991" y="739.183"/>
      <point x="953.35" y="850"/>
    </contour>
    <contour>
      <point x="91.3927" y="680" type="curve"/>
      <point x="87" y="680" type="line"/>
      <point x="87" y="731" type="line" smooth="yes"/>
      <point x="87" y="911.785"/>
      <point x="263.639" y="1021"/>
      <point x="566" y="1021" type="curve" smooth="yes"/>
      <point x="1061.4" y="1021"/>
      <point x="1182" y="864.598"/>
      <point x="1182" y="733" type="curve" smooth="yes"/>
      <point x="1182" y="615.658"/>
      <point x="1084.89" y="387"/>
      <point x="568" y="387" type="curve" smooth="yes"/>
      <point x="221.969" y="387"/>
      <point x="110.176" y="543.226"/>
    </contour>
  </outline>
</glyph>
<glyph name="plusminus" format="1">
  <advance width="978"/>
  <unicode hex="00B1"/>
  <outline>
    <contour>
      <point x="602" y="909" type="curve" smooth="yes"/>
      <point x="602" y="878" type="line" smooth="yes"/>
      <point x="602" y="861.987"/>
      <point x="601" y="837.943"/>
      <point x="601" y="812" type="curve" smooth="yes"/>
      <point x="601" y="791.057"/>
      <point x="602.02" y="767.414"/>
      <point x="603.857" y="753.24" type="curve"/>
      <point x="605.834" y="753.373"/>
      <point x="606.401" y="753.412"/>
      <point x="607.765" y="753.508" type="curve" smooth="yes"/>
      <point x="640.425" y="755.787"/>
      <point x="685.325" y="760"/>
      <point x="731" y="760" type="curve" smooth="yes"/>
      <point x="788.55" y="760"/>
      <point x="920" y="757.353"/>
      <point x="920" y="647" type="curve" smooth="yes"/>
      <point x="920" y="573.755"/>
      <point x="848.701" y="540"/>
      <point x="793" y="540" type="curve" smooth="yes"/>
      <point x="732.861" y="540"/>
      <point x="681.853" y="551"/>
      <point x="636" y="551" type="curve" smooth="yes"/>
      <point x="631.118" y="551"/>
      <point x="626.451" y="550.866"/>
      <point x="622.142" y="550.587" type="curve" smooth="yes"/>
      <point x="613.552" y="550.031"/>
      <point x="606.285" y="548.732"/>
      <point x="602.109" y="547.538" type="curve"/>
      <point x="603.773" y="507.706"/>
      <point x="627" y="456"/>
      <point x="627" y="389" type="curve" smooth="yes"/>
      <point x="627" y="373.817"/>
      <point x="623.119" y="358.975"/>
      <point x="616.541" y="346.398" type="curve" smooth="yes"/>
      <point x="604.008" y="322.435"/>
      <point x="584.799" y="306.834"/>
      <point x="563.537" y="297" type="curve"/>
      <point x="740" y="297" type="line" smooth="yes"/>
      <point x="772.256" y="297"/>
      <point x="920" y="310.551"/>
      <point x="920" y="192" type="curve" smooth="yes"/>
      <point x="920" y="107.977"/>
      <point x="831.855" y="94"/>
      <point x="793" y="94" type="curve" smooth="yes"/>
      <point x="607.811" y="94"/>
      <point x="419.821" y="84"/>
      <point x="232" y="84" type="curve" smooth="yes"/>
      <point x="175.018" y="84"/>
      <point x="74" y="99.9789"/>
      <point x="74" y="200" type="curve" smooth="yes"/>
      <point x="74" y="264.657"/>
      <point x="132.833" y="297"/>
      <point x="185" y="297" type="curve" smooth="yes"/>
      <point x="414.432" y="297" type="line"/>
      <point x="394.996" y="306.005"/>
      <point x="377.102" y="319.924"/>
      <point x="364.401" y="340.944" type="curve" smooth="yes"/>
      <point x="356.957" y="353.265"/>
      <point x="352" y="368.731"/>
      <point x="352" y="385" type="curve" smooth="yes"/>
      <point x="352" y="440.688"/>
      <point x="357.213" y="495.745"/>
      <point x="359.171" y="545.377" type="curve"/>
      <point x="319.51" y="542.651"/>
      <point x="274.552" y="539"/>
      <point x="238" y="539" type="curve" smooth="yes"/>
      <point x="191.889" y="539"/>
      <point x="125.573" y="540.839"/>
      <point x="90.2606" y="596.306" type="curve" smooth="yes"/>
      <point x="79.1891" y="613.696"/>
      <point x="74" y="634.413"/>
      <point x="74" y="655" type="curve" smooth="yes"/>
      <point x="74" y="666.155"/>
      <point x="75.8546" y="677.186"/>
      <point x="79.4265" y="687.652" type="curve" smooth="yes"/>
      <point x="93.6919" y="729.448"/>
      <point x="135.123" y="759"/>
      <point x="185" y="759" type="curve" smooth="yes"/>
      <point x="241.534" y="759"/>
      <point x="294.529" y="752"/>
      <point x="342" y="752" type="curve" smooth="yes"/>
      <point x="347.163" y="752" type="line"/>
      <point x="342.729" y="784.46"/>
      <point x="337" y="817.139"/>
      <point x="337" y="855" type="curve" smooth="yes"/>
      <point x="337" y="898.242"/>
      <point x="349.009" y="1019"/>
      <point x="473" y="1019" type="curve" smooth="yes"/>
      <point x="530.518" y="1019"/>
      <point x="602" y="982.785"/>
    </contour>
  </outline>
</glyph>
